<svg width="323" height="226" viewBox="0 0 323 226" fill="none" xmlns="http://www.w3.org/2000/svg">
<g filter="url(#filter0_d)">
<path d="M279.683 5H33.251V182.622H279.683V5Z" fill="white"/>
<path d="M54.817 171.061C54.817 172.638 54.6855 174.214 54.4225 176.054C54.1595 177.761 53.765 179.601 53.239 181.309C52.713 183.148 52.0555 184.856 51.2665 186.432C50.4775 188.14 49.557 189.585 48.505 191.031C46.927 187.878 46.1379 184.33 46.1379 180.258C46.1379 178.287 46.2695 176.316 46.664 174.477C47.0585 172.638 47.5845 171.061 48.1105 169.616C48.768 168.171 49.294 166.989 49.9515 166.2C50.609 165.281 51.2665 164.886 51.7925 164.886C52.976 164.886 53.6335 165.543 54.1595 166.726C54.554 167.908 54.817 169.353 54.817 171.061ZM30.7524 129.809C30.8839 127.313 31.1469 124.948 31.8044 122.583C32.4619 120.218 33.2509 118.247 34.3029 116.408C35.3549 114.569 36.5384 113.124 37.9849 112.073C39.4314 111.022 41.0095 110.496 42.5875 110.496C43.771 110.496 44.8229 110.759 45.612 111.284C46.401 111.81 47.0585 112.467 47.5845 113.255C47.979 114.043 48.3735 114.832 48.505 115.751C48.6365 116.671 48.768 117.459 48.768 118.379C48.768 120.087 48.242 121.663 47.4529 123.108C46.5324 124.554 45.349 125.736 43.9025 126.787C42.456 127.838 40.8779 128.626 39.0369 129.152C37.1959 129.677 35.3549 129.94 33.3824 129.94H32.0674C31.6729 129.94 31.2784 129.94 30.7524 129.809ZM57.184 176.185C57.447 174.214 57.71 172.506 57.71 170.798C57.71 169.879 57.5785 168.959 57.447 168.04C57.3155 167.12 56.921 166.2 56.5265 165.412C56.132 164.624 55.606 163.835 54.817 163.31C54.028 162.784 53.239 162.522 52.3185 162.522C50.872 162.522 49.557 163.179 48.505 164.361C47.453 165.543 46.401 167.12 45.7435 168.959C44.9545 170.798 44.4285 172.769 43.9025 175.003C43.508 177.105 43.245 179.207 43.245 181.177C43.245 183.542 43.508 185.776 44.034 187.878C44.56 189.98 45.2175 191.95 46.0065 193.658C43.508 195.629 40.7464 196.548 37.7219 196.548C33.2509 196.548 30.0949 194.446 28.2539 190.374C26.2814 186.301 25.3609 180.258 25.3609 172.244C25.3609 167.514 26.0184 163.31 27.4649 159.369C28.9114 155.427 30.8839 152.406 33.5139 150.304C34.5659 150.829 35.6179 151.092 36.6699 151.355C37.7219 151.617 38.9054 151.749 40.2204 151.749C41.4039 151.749 42.456 151.355 43.3765 150.698C44.297 150.041 44.823 149.253 45.086 148.464C45.349 147.676 45.086 146.888 44.56 146.231C43.9025 145.574 42.7189 145.18 40.8779 145.18C38.9054 145.18 36.9329 145.443 34.9604 145.968C33.5139 144.654 32.4619 142.815 31.8044 140.582C31.1469 138.217 30.8839 135.852 30.7524 133.224C31.1469 133.224 31.6729 133.224 31.9359 133.356C32.3304 133.356 32.7249 133.487 33.1194 133.487C35.4864 133.487 37.8534 133.093 40.2204 132.436C42.5874 131.779 44.823 130.728 46.664 129.546C48.6365 128.364 50.2145 126.787 51.398 124.948C52.5815 123.108 53.239 121.006 53.239 118.773C53.239 115.883 52.187 113.386 50.083 111.416C47.979 109.445 45.349 108.394 41.93 108.394C36.2754 108.394 31.6729 110.102 28.1224 113.649C24.5719 117.065 22.3364 121.532 21.4159 127.05C18.7859 124.816 17.4709 121.532 17.4709 117.328C17.4709 114.832 17.7339 112.73 18.2599 111.022C18.7859 109.314 19.3119 107.869 19.9694 106.555C20.6269 105.241 21.5474 104.059 22.3364 103.139C22.8624 104.19 23.7829 104.453 24.9664 104.19C26.1499 103.927 27.0704 103.27 27.7279 102.219C27.8594 101.825 27.9909 101.431 28.1224 100.906C28.2539 100.38 28.2539 99.986 28.1224 99.4605C27.9909 99.0663 27.8594 98.6722 27.4649 98.2781C27.2019 98.0153 26.6759 97.7525 26.0184 97.7525C24.9664 97.7525 23.7829 98.278 22.4679 99.0663C21.1529 99.986 19.9694 101.3 18.7859 102.876C17.6024 104.584 16.5504 106.555 15.7614 108.92C14.9724 111.284 14.5778 113.912 14.5778 116.802C14.5778 119.955 15.2354 122.714 16.4189 124.948C17.6024 127.181 19.1804 129.02 21.2844 130.203C21.2844 130.466 21.2844 130.728 21.1529 130.991C21.1529 131.254 21.0214 131.517 21.0214 131.779C21.0214 134.932 21.8104 138.085 23.2569 141.107C24.7034 144.129 26.8074 146.625 29.3059 148.333C27.3334 149.384 25.3609 150.698 23.5199 152.274C21.6789 153.851 20.1009 155.69 18.6544 157.792C17.3394 159.894 16.1558 162.259 15.3668 164.886C14.5778 167.514 14.1833 170.536 14.1833 173.689C14.1833 177.63 14.8408 181.177 16.0243 184.462C17.2079 187.746 18.9174 190.505 21.0214 192.87C23.1254 195.235 25.6239 197.074 28.5169 198.388C31.4099 199.702 34.4344 200.358 37.7219 200.358C39.5629 200.358 41.2724 199.964 42.8504 199.307C44.4284 198.651 45.875 197.599 47.19 196.286C49.4255 199.833 51.7925 201.541 54.1595 201.541C54.817 201.541 55.2115 201.278 55.4745 200.884C55.7375 200.49 55.7375 200.096 55.7375 199.57C55.7375 199.045 55.4745 198.65 55.08 198.256C54.6855 197.862 54.291 197.599 54.028 197.599C52.5815 197.599 51.0035 196.417 49.4255 193.921C50.7405 192.213 51.7925 190.505 52.8445 188.534C53.8965 186.564 54.6855 184.593 55.343 182.491C56.395 180.126 56.7895 178.156 57.184 176.185ZM168.959 150.172C169.222 144.392 169.617 138.742 170.143 133.093C170.669 127.444 171.326 122.452 171.984 117.985C172.773 113.518 173.562 109.971 174.482 107.212C175.403 104.453 176.455 103.139 177.507 103.139C178.559 103.139 179.216 103.796 179.479 105.241C179.742 106.686 179.874 108.525 179.611 110.89C179.348 113.255 178.953 116.014 178.296 119.167C177.638 122.32 176.718 125.605 175.797 129.152C174.745 132.699 173.693 136.246 172.51 139.793C171.326 143.603 170.143 147.019 168.959 150.172ZM134.769 150.172C135.032 144.392 135.427 138.742 135.953 133.093C136.479 127.444 137.136 122.452 137.794 117.985C138.583 113.518 139.372 109.971 140.292 107.212C141.213 104.453 142.265 103.139 143.317 103.139C144.369 103.139 145.026 103.796 145.289 105.241C145.552 106.686 145.684 108.525 145.421 110.89C145.158 113.255 144.763 116.014 144.106 119.167C143.448 122.32 142.528 125.605 141.607 129.152C140.555 132.699 139.503 136.246 138.32 139.793C137.136 143.603 135.953 147.019 134.769 150.172ZM73.6216 169.091C73.7531 166.2 73.8846 163.441 74.2791 160.682C74.6736 157.923 75.0681 155.427 75.5941 153.194C76.1201 150.96 76.6461 149.253 77.3036 147.807C77.9611 146.494 78.6186 145.705 79.4076 145.705C79.8021 145.705 80.1966 146.231 80.3281 147.282C80.4596 148.333 80.4596 149.647 80.1966 151.223C80.0651 152.8 79.6706 154.508 79.4076 156.478C79.0131 158.318 78.6186 160.157 77.9611 161.865C77.3036 163.573 76.6461 165.149 75.9886 166.463C75.1996 167.777 74.4106 168.696 73.6216 169.091ZM308.744 139.136C308.613 138.217 308.481 137.56 308.35 137.429C305.983 135.721 303.484 134.67 300.854 134.013C298.224 133.356 295.726 133.093 292.964 133.224C290.334 133.356 287.704 133.619 284.943 134.144C282.313 134.67 279.683 135.327 277.184 136.246C277.447 133.093 277.71 129.94 278.105 127.05C278.368 124.159 278.762 121.532 278.894 119.298C279.157 117.065 279.288 115.094 279.42 113.781C279.551 112.335 279.683 111.416 279.683 111.153C279.683 110.365 279.157 109.971 278.236 109.839C277.316 109.708 276.132 109.708 274.949 109.839C273.765 109.971 272.582 110.365 271.53 110.89C270.478 111.416 269.952 111.941 269.82 112.598C269.031 115.489 268.374 119.43 267.716 124.291C267.059 129.152 266.401 134.407 266.007 140.056C264.692 140.45 263.508 140.713 262.456 140.976C261.404 141.239 260.352 141.37 259.432 141.37C256.144 141.501 253.514 141.107 251.542 140.188C249.569 139.268 248.123 138.348 247.071 137.166C246.019 135.983 245.361 134.932 244.967 133.881C244.572 132.83 244.309 132.305 244.309 132.042C244.178 131.648 243.915 131.648 243.389 131.911C242.863 132.173 242.6 132.699 242.731 133.487C242.731 133.881 242.994 134.67 243.389 135.721C243.915 136.903 244.704 138.085 245.887 139.268C247.071 140.45 248.649 141.633 250.753 142.552C252.857 143.472 255.487 143.866 258.643 143.735C260.878 143.735 263.245 143.472 265.612 142.946C265.218 148.333 265.086 153.851 265.086 159.237C265.086 160.814 265.086 162.259 265.218 163.704C265.086 163.967 265.086 164.361 264.955 164.624C264.297 166.857 263.377 169.353 262.456 171.85C261.404 174.346 260.352 176.579 259.3 178.681C258.248 180.652 257.196 181.703 256.144 181.703C255.618 181.703 255.355 180.915 255.224 179.207C255.092 177.499 255.092 175.659 255.092 173.426C255.224 171.193 255.355 168.959 255.487 166.857C255.618 164.624 255.881 163.047 256.013 161.865C256.144 160.814 255.75 160.157 254.829 159.763C253.909 159.369 252.725 159.237 251.542 159.369C250.358 159.5 249.175 159.763 248.123 160.157C247.071 160.551 246.545 160.945 246.545 161.339C246.545 161.602 246.413 162.522 246.019 164.098C245.756 165.675 245.23 167.514 244.704 169.747C244.178 171.981 243.52 174.346 242.863 176.71C242.205 179.207 241.548 181.44 240.89 183.542C240.233 185.644 239.575 187.352 239.049 188.797C238.392 190.111 237.997 190.899 237.603 190.899C237.077 190.899 236.814 190.242 236.551 188.797C236.288 187.483 236.156 185.644 236.025 183.411C236.025 181.177 236.025 178.681 236.156 175.922C236.288 173.163 236.419 170.536 236.551 167.908C236.682 165.281 236.945 162.784 237.208 160.42C237.471 158.186 237.734 156.347 237.997 155.033C238.129 154.245 237.603 153.719 236.682 153.325C235.762 152.931 234.578 152.8 233.263 152.668C231.948 152.668 230.765 152.8 229.713 153.062C228.661 153.325 228.003 153.719 227.872 153.982C227.609 155.953 227.346 158.186 227.083 160.945C227.083 161.339 227.083 161.733 226.951 162.128C226.82 162.653 226.557 163.179 226.294 163.704C225.768 164.886 225.242 166.2 224.716 167.514C224.058 168.828 223.401 170.142 222.612 171.193C221.823 172.375 220.902 173.295 219.85 173.952C220.376 172.244 220.639 170.404 220.771 168.696C220.771 166.989 220.639 165.412 220.245 163.967C219.85 162.522 219.193 161.339 218.404 160.551C217.615 159.631 216.431 159.237 215.116 159.237C214.064 159.237 213.275 159.763 212.749 160.945C212.092 161.996 211.697 163.441 211.434 165.018C211.171 166.594 211.04 168.302 211.171 170.142C211.303 171.981 211.697 173.557 212.223 174.871C211.829 176.71 211.434 178.287 210.908 179.732C210.382 181.177 209.725 181.834 208.936 181.834C208.147 181.834 207.489 181.177 206.963 179.732C206.437 178.287 206.174 176.579 205.911 174.477C205.78 172.375 205.648 170.01 205.78 167.645C205.911 165.149 206.043 162.916 206.437 160.814C206.7 158.712 207.226 157.004 207.884 155.559C208.541 154.114 209.33 153.457 210.251 153.457C210.777 153.457 211.171 153.719 211.434 154.245C211.697 154.77 211.829 155.427 211.96 156.084C212.092 156.741 212.092 157.398 212.092 158.055C212.092 158.712 212.092 159.106 212.223 159.106C212.355 159.237 212.618 159.237 213.012 159.106C213.407 158.974 213.801 158.712 214.196 158.318C214.59 158.055 214.985 157.529 215.379 157.004C215.774 156.478 215.905 155.821 215.905 155.165C215.905 154.114 215.248 153.063 214.064 152.011C212.881 150.96 211.303 150.435 209.462 150.435C206.7 150.435 204.464 151.223 202.623 152.931C200.782 154.639 199.336 156.61 198.416 159.237C197.495 161.733 196.969 164.492 196.837 167.383V167.514C196.574 168.434 196.312 169.485 195.917 170.536C195.128 173.163 194.339 175.922 193.418 178.812C192.498 181.834 191.577 184.462 190.657 186.958C189.736 189.454 188.816 191.556 188.027 193.133C187.238 194.841 186.58 195.629 186.054 195.629C185.66 195.629 185.66 194.446 185.923 192.213C186.186 189.98 186.58 187.089 186.843 183.673C187.238 180.258 187.501 176.579 187.764 172.638C188.027 168.696 187.895 165.018 187.632 161.602C187.369 158.186 186.58 155.296 185.397 153.062C184.213 150.829 182.372 149.647 179.742 149.647C178.559 149.647 177.375 150.435 176.192 151.88C175.008 153.325 173.956 155.296 172.904 157.529C171.852 159.894 170.932 162.39 170.143 165.281C169.354 168.04 168.565 170.798 168.039 173.426C167.907 170.798 167.907 168.171 167.907 165.543C167.907 162.784 168.039 160.026 168.17 157.135C169.485 153.982 171.063 150.304 172.641 146.231C174.219 142.158 175.666 138.085 176.981 133.881C178.296 129.677 179.479 125.605 180.4 121.532C181.32 117.459 181.846 113.912 182.109 110.759C182.241 107.606 181.978 105.11 181.189 103.139C180.4 101.168 178.953 100.249 176.849 100.249C173.693 100.249 171.063 101.957 168.828 105.504C166.592 109.051 164.751 113.518 163.436 119.167C161.99 124.685 160.938 130.86 160.28 137.429C159.623 144.129 159.228 150.566 159.097 156.872C159.097 159.369 159.097 161.865 159.097 164.23C159.097 164.492 158.965 164.624 158.965 164.886C158.308 167.383 157.519 170.01 156.73 172.901C155.809 175.791 155.02 178.287 154.1 180.52C153.179 182.754 152.39 183.936 151.601 183.936C149.892 183.936 148.445 182.622 147.13 179.864C145.815 177.105 144.632 173.952 143.448 170.404C146.473 167.777 148.708 165.281 150.023 162.784C151.338 160.288 152.127 158.055 152.259 156.084C152.39 154.114 151.864 152.537 150.681 151.355C149.497 150.172 147.919 149.515 145.684 149.515C144.5 149.515 143.317 150.304 142.133 151.749C140.95 153.194 139.898 155.165 138.846 157.398C137.794 159.763 136.873 162.259 136.084 165.149C135.295 167.908 134.506 170.667 133.98 173.295C133.849 170.667 133.849 168.04 133.849 165.412C133.849 162.653 133.98 159.894 134.112 157.004C135.427 153.851 137.005 150.172 138.583 146.099C140.161 142.027 141.607 137.954 142.922 133.75C144.237 129.546 145.421 125.473 146.341 121.4C147.262 117.328 147.788 113.781 148.051 110.628C148.182 107.474 147.919 104.978 147.13 103.008C146.341 101.037 144.895 100.117 142.791 100.117C139.635 100.117 137.005 101.825 134.769 105.372C132.534 108.92 130.693 113.386 129.378 119.036C127.931 124.554 126.879 130.728 126.222 137.297C125.564 143.997 125.17 150.435 125.038 156.741C125.038 159.106 125.038 161.339 125.038 163.441C124.512 164.886 123.986 166.463 123.197 168.434C122.408 170.536 121.356 172.9 120.304 175.265C119.252 177.63 118.069 179.864 116.885 181.834C115.702 183.805 114.387 185.513 113.203 186.827C111.888 188.14 110.573 188.797 109.39 188.797C107.943 188.797 106.76 187.746 106.102 185.513C105.313 183.411 104.919 180.652 104.787 177.499C104.656 174.346 104.656 170.798 104.919 166.989C105.182 163.179 105.708 159.763 106.234 156.478C106.891 153.325 107.68 150.566 108.601 148.464C109.521 146.362 110.573 145.18 111.757 145.18C112.151 145.18 112.546 145.311 112.94 145.705C113.335 146.099 113.729 146.756 113.992 147.545C114.255 148.464 114.255 149.515 114.124 150.96C113.992 152.406 113.466 154.114 112.677 156.216C112.02 157.792 111.888 159.106 112.283 160.157C112.677 161.208 113.335 161.996 114.124 162.39C114.913 162.784 115.833 162.653 116.754 161.996C117.674 161.339 118.463 160.157 118.989 158.318C119.515 156.347 119.778 154.508 119.647 152.668C119.515 150.829 119.121 149.121 118.595 147.545C117.937 145.968 117.017 144.786 115.57 143.866C114.255 142.946 112.546 142.421 110.705 142.421C107.154 142.421 104.261 143.603 101.763 146.099C99.2642 148.596 97.4231 151.617 96.1081 155.296C95.1876 157.923 94.5301 160.814 94.1356 163.704C93.6096 165.018 93.0836 166.463 92.2946 168.04C91.3741 170.142 90.3221 172.506 89.1386 174.871C87.9551 177.236 86.7716 179.469 85.4566 181.44C84.1416 183.411 82.8266 185.119 81.5116 186.432C80.1966 187.746 78.8816 188.403 77.6981 188.403C76.9091 188.403 76.1201 187.878 75.5941 187.089C74.9366 186.17 74.5421 184.856 74.1476 183.279C73.7531 181.703 73.4901 179.864 73.3586 177.761C73.2271 175.659 73.0955 173.557 73.0955 171.193C75.068 171.324 76.9091 170.667 78.6186 169.222C80.3281 167.777 81.7746 166.069 82.9581 163.967C84.1416 161.865 85.0621 159.5 85.5881 157.004C86.2456 154.508 86.3771 152.143 85.9826 150.041C85.7196 147.939 84.7991 146.099 83.6156 144.654C82.3006 143.209 80.4596 142.421 77.9611 142.421C74.5421 142.421 71.7806 143.603 69.4135 146.099C67.178 148.596 65.337 151.617 64.1535 155.296C62.97 158.974 62.3125 162.916 62.181 167.383C62.0495 171.718 62.5755 175.791 63.6275 179.469C64.6795 183.148 66.389 186.17 68.6245 188.666C70.86 191.162 73.753 192.344 77.1721 192.344C78.8816 192.344 80.5911 191.687 82.3006 190.374C84.0101 189.06 85.4566 187.352 86.9031 185.381C88.3496 183.411 89.6646 181.177 90.8481 178.681C91.9001 176.579 92.8206 174.608 93.6096 172.769C93.7411 175.134 94.1356 177.367 94.7931 179.469C95.8451 183.148 97.5546 186.17 99.7902 188.666C102.026 191.162 105.05 192.344 108.732 192.344C110.442 192.344 112.151 191.687 113.729 190.374C115.307 189.06 116.754 187.352 118.2 185.381C119.515 183.411 120.83 181.177 121.882 178.681C123.066 176.316 123.986 173.952 124.907 171.85C125.038 171.718 125.038 171.455 125.038 171.324C125.038 172.112 125.17 172.901 125.17 173.557C125.564 178.55 126.09 182.228 126.879 184.593C127.011 184.856 127.405 185.119 128.194 185.25C128.983 185.381 129.904 185.381 130.824 185.381C131.745 185.381 132.534 185.25 133.323 184.987C134.112 184.856 134.375 184.593 134.375 184.462L134.112 181.966C134.243 179.469 134.769 176.579 135.69 173.295C136.61 170.01 137.531 166.726 138.714 163.704C139.766 160.682 140.95 158.055 142.002 155.953C143.054 153.851 143.974 152.8 144.763 152.8C145.158 152.8 145.158 153.457 145.026 154.77C144.763 156.084 144.369 157.661 143.711 159.631C143.054 161.602 142.133 163.704 140.95 166.069C139.766 168.434 138.583 170.667 137.136 172.769C136.347 174.083 136.084 175.265 136.479 176.316C137.136 178.418 137.794 180.389 138.583 182.36C139.372 184.33 140.161 186.038 141.081 187.615C142.002 189.191 142.922 190.374 143.974 191.293C145.026 192.213 146.078 192.607 147.13 192.607C148.445 192.607 149.629 191.95 150.812 190.505C151.996 189.191 153.179 187.352 154.231 185.25C155.283 183.148 156.204 180.783 157.124 178.287C157.913 176.054 158.571 173.82 159.228 171.718C159.228 172.375 159.36 172.901 159.36 173.557C159.754 178.55 160.28 182.228 161.069 184.593C161.201 184.856 161.595 185.119 162.384 185.25C163.173 185.381 164.094 185.381 165.014 185.381C165.935 185.381 166.724 185.25 167.513 184.987C168.302 184.856 168.565 184.593 168.565 184.462L168.302 181.966C168.433 179.469 168.959 176.579 169.88 173.295C170.8 170.01 171.721 166.726 172.904 163.704C173.956 160.682 175.14 158.055 176.192 155.953C177.244 153.851 178.164 152.8 178.953 152.8C179.611 152.8 179.874 153.982 179.611 156.216C179.479 158.449 179.085 161.339 178.69 164.755C178.164 168.171 177.77 171.849 177.375 175.922C176.981 179.864 176.849 183.673 176.981 187.089C177.112 190.505 177.638 193.395 178.69 195.629C179.742 197.862 181.452 199.045 183.819 199.045C185.134 199.045 186.449 198.256 187.764 196.548C189.079 194.841 190.394 192.739 191.577 190.111C192.761 187.483 193.944 184.593 194.996 181.571C195.917 178.813 196.706 176.185 197.495 173.689C197.626 174.083 197.758 174.477 197.89 175.003C198.679 177.499 199.994 179.601 201.835 181.309C203.676 183.017 205.911 183.805 208.673 183.805C210.908 183.805 212.881 183.148 214.59 181.834C216.168 180.52 217.483 178.944 218.535 177.105C220.245 176.579 221.691 175.528 223.006 174.083C224.321 172.638 225.373 171.193 226.294 169.485C226.425 169.353 226.425 169.222 226.557 169.091C226.425 172.112 226.557 175.134 226.82 178.156C227.083 181.177 227.609 183.936 228.398 186.301C229.187 188.666 230.239 190.636 231.685 192.213C233.132 193.79 234.973 194.446 237.208 194.446C238.26 194.446 239.312 193.658 240.233 191.95C241.153 190.242 241.942 188.272 242.731 185.907C243.52 183.542 244.178 181.177 244.835 178.681C245.493 176.185 246.019 174.083 246.413 172.244C246.282 173.952 246.413 175.791 246.808 177.63C247.202 179.469 247.991 181.177 248.912 182.622C249.832 184.068 250.884 185.119 252.199 185.907C253.383 186.695 254.698 186.695 256.144 186.17C257.459 185.644 258.906 184.199 260.221 181.966C261.536 179.732 262.719 177.105 263.903 174.346C264.56 172.506 265.218 170.93 265.744 169.222C265.875 170.667 266.007 172.112 266.27 173.426C266.927 177.761 268.111 181.309 269.557 184.068C271.135 186.827 273.108 188.14 275.738 188.14C276.921 188.14 278.105 187.483 279.288 186.432C280.472 185.25 281.655 183.805 282.839 181.966C284.022 180.126 285.074 178.156 286.126 176.054C287.178 173.952 287.967 171.85 288.756 169.879C289.545 167.908 290.203 166.2 290.729 164.755C291.255 163.31 291.518 162.259 291.649 161.733C291.912 160.682 291.781 159.894 290.992 159.631C290.334 159.369 289.808 159.369 289.677 160.026C289.545 160.551 288.888 162.128 287.967 164.624C287.047 167.12 285.995 169.747 284.68 172.506C283.365 175.265 282.05 177.761 280.735 180.126C279.42 182.36 278.105 183.542 277.053 183.542C276.132 183.542 275.475 182.228 275.212 179.469C274.949 176.71 274.817 173.295 274.949 169.091C275.08 164.886 275.212 160.157 275.606 154.902C276.001 149.647 276.395 144.523 276.79 139.399C279.42 138.611 281.918 137.954 284.548 137.297C287.178 136.64 289.808 136.246 292.438 136.115C295.068 135.983 297.698 136.246 300.328 136.772C302.958 137.297 305.588 138.48 308.218 140.056C308.744 140.45 308.876 140.056 308.744 139.136Z" stroke="white" stroke-width="8" stroke-miterlimit="1"/>
<path d="M39.3 57.2883H49.2941V89.4758H65.8631V98.0153H39.3V57.2883Z" fill="#3C3C3B"/>
<path d="M89.5333 56.6314C101.763 56.6314 110.836 65.6964 110.836 77.389C110.836 89.3444 101.894 98.6722 89.5333 98.6722C77.3037 98.6722 68.2302 89.3444 68.2302 77.389C68.3617 65.6964 77.3037 56.6314 89.5333 56.6314ZM89.5333 89.6072C95.5823 89.6072 100.579 84.352 100.579 77.389C100.579 70.6888 95.7138 65.6964 89.5333 65.6964C83.3528 65.6964 78.4872 70.6888 78.4872 77.389C78.6187 84.352 83.4843 89.6072 89.5333 89.6072Z" fill="#3C3C3B"/>
<path d="M117.674 57.2883H132.139C144.895 57.2883 153.179 64.7768 153.179 77.5204C153.179 90.264 145.026 97.8839 132.139 97.8839H117.674V57.2883ZM131.745 89.4758C138.583 89.4758 142.791 85.4031 142.791 77.6518C142.791 69.9005 138.451 65.9592 131.745 65.9592H127.668V89.6072H131.745V89.4758Z" fill="#3C3C3B"/>
<path d="M160.149 57.2883H185.66V65.8278H170.143V73.185H182.504V81.7245H170.143V89.3444H186.449V97.8839H160.149V57.2883Z" fill="#3C3C3B"/>
<path d="M212.092 56.6314C222.217 56.6314 227.346 62.412 227.346 62.412L222.743 69.9005C222.743 69.9005 218.141 65.6964 212.618 65.6964C204.859 65.6964 201.177 71.477 201.177 77.2576C201.177 83.301 205.122 89.4758 212.618 89.4758C218.798 89.4758 223.401 84.4834 223.401 84.4834L228.529 91.7092C228.529 91.7092 222.743 98.5408 212.092 98.5408C199.336 98.5408 190.789 89.4758 190.789 77.389C190.789 65.6964 199.862 56.6314 212.092 56.6314Z" fill="#3C3C3B"/>
<path d="M252.857 56.6314C265.086 56.6314 274.16 65.6964 274.16 77.389C274.16 89.3444 265.218 98.6722 252.857 98.6722C240.627 98.6722 231.554 89.3444 231.554 77.389C231.554 65.6964 240.627 56.6314 252.857 56.6314ZM252.857 89.6072C258.906 89.6072 263.903 84.352 263.903 77.389C263.903 70.6888 259.037 65.6964 252.857 65.6964C246.808 65.6964 241.811 70.6888 241.811 77.389C241.942 84.352 246.808 89.6072 252.857 89.6072Z" fill="#3C3C3B"/>
<path d="M74.4105 11.5689H39.8259V51.2449H74.4105V11.5689Z" fill="#E30613"/>
<path d="M74.4105 103.008H39.8259V142.684H74.4105V103.008Z" fill="#E30613"/>
<path d="M114.255 11.5689H79.6707V51.2449H114.255V11.5689Z" fill="#E30613"/>
<path d="M114.255 103.008H79.6707V142.684H114.255V103.008Z" fill="#E30613"/>
<path d="M153.968 11.5689H119.384V51.2449H153.968V11.5689Z" fill="#E30613"/>
<path d="M153.968 103.008H119.384V142.684H153.968V103.008Z" fill="#E30613"/>
<path d="M193.682 11.5689H159.097V51.2449H193.682V11.5689Z" fill="#E30613"/>
<path d="M193.682 103.008H159.097V142.684H193.682V103.008Z" fill="#E30613"/>
<path d="M233.395 11.5689H198.81V51.2449H233.395V11.5689Z" fill="#E30613"/>
<path d="M233.395 103.008H198.81V142.684H233.395V103.008Z" fill="#E30613"/>
<path d="M273.108 11.5689H238.523V51.2449H273.108V11.5689Z" fill="#E30613"/>
<path d="M273.108 103.008H238.523V142.684H273.108V103.008Z" fill="#E30613"/>
<path d="M58.8937 180.52C58.8937 182.097 58.7622 183.673 58.4992 185.513C58.2362 187.221 57.8417 189.06 57.3157 190.768C56.7897 192.607 56.1322 194.315 55.3432 195.892C54.5542 197.599 53.6337 199.045 52.5817 200.49C51.0037 197.337 50.2147 193.79 50.2147 189.717C50.2147 187.746 50.3462 185.775 50.7407 183.936C51.1352 182.097 51.6612 180.52 52.1872 179.075C52.8447 177.63 53.3707 176.448 54.0282 175.659C54.6857 174.74 55.3432 174.346 55.8692 174.346C57.0527 174.346 57.7102 175.003 58.2362 176.185C58.7622 177.367 58.8937 178.812 58.8937 180.52ZM34.9606 139.268C35.0921 136.772 35.3552 134.407 36.0127 132.042C36.6702 129.677 37.4592 127.707 38.5112 125.867C39.5632 124.028 40.7467 122.583 42.1932 121.532C43.6397 120.481 45.2177 119.955 46.7957 119.955C47.9792 119.955 49.0312 120.218 49.8202 120.744C50.6092 121.269 51.2667 121.926 51.7927 122.714C52.1872 123.503 52.5817 124.291 52.7132 125.21C52.8447 126.13 52.9762 126.918 52.9762 127.838C52.9762 129.546 52.4502 131.122 51.6612 132.568C50.7407 134.013 49.5572 135.195 48.1107 136.246C46.6642 137.297 45.0862 138.085 43.2452 138.611C41.4042 139.136 39.5631 139.399 37.5906 139.399H36.2756C35.8811 139.399 35.4866 139.399 34.9606 139.268ZM61.3922 185.644C61.6552 183.673 61.9182 181.966 61.9182 180.258C61.9182 179.338 61.7868 178.418 61.6553 177.499C61.5238 176.579 61.1292 175.659 60.7347 174.871C60.3402 174.083 59.8142 173.295 59.0252 172.769C58.2362 172.244 57.4472 171.981 56.5267 171.981C55.0802 171.981 53.7652 172.638 52.7132 173.82C51.6612 175.003 50.6092 176.579 49.9517 178.418C49.1627 180.258 48.6367 182.228 48.1107 184.462C47.7162 186.564 47.4532 188.666 47.4532 190.636C47.4532 193.001 47.7162 195.235 48.2422 197.337C48.7682 199.439 49.4257 201.409 50.2147 203.117C47.7162 205.088 44.9547 206.008 41.9302 206.008C37.4592 206.008 34.3031 203.906 32.4621 199.833C30.4896 195.76 29.5691 189.717 29.5691 181.703C29.5691 176.973 30.2266 172.769 31.6731 168.828C33.1196 164.886 35.0921 161.865 37.7221 159.763C38.7742 160.288 39.8261 160.551 40.8782 160.814C41.9302 161.077 43.1137 161.208 44.4287 161.208C45.6122 161.208 46.6642 160.814 47.5847 160.157C48.5052 159.5 49.0312 158.712 49.2942 157.923C49.5572 157.135 49.2942 156.347 48.7682 155.69C48.1107 155.033 46.9272 154.639 45.0862 154.639C43.1137 154.639 41.1412 154.902 39.1687 155.427C37.7222 154.114 36.6702 152.274 36.0127 150.041C35.3552 147.676 35.0921 145.311 34.9606 142.684C35.3551 142.684 35.8812 142.684 36.1442 142.815C36.5387 142.815 36.9332 142.946 37.3277 142.946C39.6947 142.946 42.0617 142.552 44.4287 141.895C46.7957 141.239 49.0312 140.188 50.8722 139.005C52.8447 137.823 54.4227 136.246 55.6062 134.407C56.7897 132.568 57.4472 130.466 57.4472 128.232C57.4472 125.342 56.3952 122.846 54.2912 120.875C52.1872 118.904 49.5572 117.853 46.1382 117.853C40.4837 117.853 35.8811 119.561 32.3306 123.108C28.7801 126.524 26.5446 130.991 25.6241 136.509C22.9941 134.275 21.6791 130.991 21.6791 126.787C21.6791 124.291 21.9421 122.189 22.4681 120.481C22.9941 118.773 23.5201 117.328 24.1776 116.014C24.8351 114.7 25.7556 113.518 26.5446 112.598C27.0706 113.649 27.9911 113.912 29.1746 113.649C30.3581 113.386 31.2786 112.73 31.9361 111.679C32.0676 111.284 32.1991 110.89 32.3306 110.365C32.4621 109.839 32.4621 109.445 32.3306 108.92C32.1991 108.525 32.0676 108.131 31.6731 107.737C31.4101 107.474 30.8841 107.212 30.2266 107.212C29.1746 107.212 27.9911 107.737 26.6761 108.526C25.3611 109.445 24.1776 110.759 22.9941 112.335C21.8106 114.043 20.7586 116.014 19.9696 118.379C19.1806 120.744 18.7861 123.371 18.7861 126.261C18.7861 129.415 19.4436 132.173 20.6271 134.407C21.8106 136.64 23.3886 138.48 25.4926 139.662C25.4926 139.925 25.4926 140.187 25.3611 140.45C25.3611 140.713 25.2296 140.976 25.2296 141.239C25.2296 144.392 26.0186 147.545 27.4651 150.566C28.9116 153.588 31.0156 156.084 33.5142 157.792C31.5416 158.843 29.5691 160.157 27.7281 161.733C25.8871 163.31 24.3091 165.149 22.8626 167.251C21.5476 169.353 20.3641 171.718 19.5751 174.346C18.7861 176.973 18.3916 179.995 18.3916 183.148C18.3916 187.089 19.0491 190.636 20.2326 193.921C21.4161 197.205 23.1256 199.964 25.2296 202.329C27.3336 204.694 29.8321 206.533 32.7251 207.847C35.6182 209.161 38.6427 209.818 41.9302 209.818C43.7712 209.818 45.4807 209.423 47.0587 208.767C48.6367 208.11 50.0832 207.059 51.3982 205.745C53.6337 209.292 56.0007 211 58.3677 211C59.0252 211 59.4197 210.737 59.6827 210.343C59.9457 209.949 59.9457 209.555 59.9457 209.029C59.9457 208.504 59.6827 208.11 59.2882 207.716C58.8937 207.321 58.4992 207.059 58.2362 207.059C56.7897 207.059 55.2117 205.876 53.6337 203.38C54.9487 201.672 56.0007 199.964 57.0527 197.994C58.1047 196.023 58.8937 194.052 59.5512 191.95C60.4717 189.585 60.9977 187.615 61.3922 185.644ZM173.036 159.631C173.299 153.851 173.694 148.202 174.22 142.552C174.746 136.903 175.403 131.911 176.061 127.444C176.85 122.977 177.639 119.43 178.559 116.671C179.48 113.912 180.532 112.598 181.584 112.598C182.636 112.598 183.293 113.255 183.556 114.7C183.819 116.145 183.951 117.985 183.688 120.349C183.425 122.714 183.03 125.473 182.373 128.626C181.715 131.779 180.795 135.064 179.874 138.611C178.822 142.158 177.77 145.705 176.587 149.253C175.403 153.062 174.351 156.478 173.036 159.631ZM138.978 159.631C139.241 153.851 139.635 148.202 140.161 142.552C140.687 136.903 141.345 131.911 142.002 127.444C142.791 122.977 143.58 119.43 144.501 116.671C145.421 113.912 146.473 112.598 147.525 112.598C148.577 112.598 149.235 113.255 149.498 114.7C149.761 116.145 149.892 117.985 149.629 120.349C149.366 122.714 148.972 125.473 148.314 128.626C147.657 131.779 146.736 135.064 145.816 138.611C144.764 142.158 143.712 145.705 142.528 149.253C141.345 153.062 140.161 156.478 138.978 159.631ZM77.8298 178.55C77.9613 175.659 78.0928 172.9 78.4873 170.142C78.8818 167.383 79.2763 164.886 79.8023 162.653C80.3283 160.42 80.8543 158.712 81.5118 157.267C82.1693 155.953 82.8268 155.165 83.6158 155.165C84.0103 155.165 84.4048 155.69 84.5363 156.741C84.6678 157.792 84.6678 159.106 84.4048 160.682C84.2733 162.259 83.8788 163.967 83.6158 165.938C83.2213 167.777 82.8268 169.616 82.1693 171.324C81.5118 173.032 80.8543 174.608 80.1968 175.922C79.4078 177.236 78.6188 178.156 77.8298 178.55ZM312.953 148.596C312.821 147.676 312.69 147.019 312.558 146.888C310.191 145.18 307.693 144.129 305.063 143.472C302.433 142.815 299.934 142.552 297.173 142.684C294.543 142.815 291.913 143.078 289.151 143.603C286.521 144.129 283.891 144.786 281.393 145.705C281.656 142.552 281.919 139.399 282.313 136.509C282.576 133.619 282.971 130.991 283.102 128.758C283.365 126.524 283.497 124.554 283.628 123.24C283.76 121.795 283.891 120.875 283.891 120.612C283.891 119.824 283.365 119.43 282.445 119.298C281.524 119.167 280.341 119.167 279.157 119.298C277.974 119.43 276.79 119.824 275.738 120.349C274.686 120.875 274.16 121.4 274.029 122.057C273.24 124.948 272.582 128.889 271.925 133.75C271.267 138.611 270.61 143.866 270.215 149.515C268.9 149.909 267.717 150.172 266.664 150.435C265.612 150.698 264.561 150.829 263.64 150.829C260.352 150.96 257.722 150.566 255.75 149.647C253.777 148.727 252.331 147.807 251.279 146.625C250.227 145.443 249.569 144.392 249.175 143.341C248.78 142.29 248.517 141.764 248.517 141.501C248.386 141.107 248.123 141.107 247.597 141.37C247.071 141.633 246.808 142.158 246.939 142.946C246.939 143.341 247.202 144.129 247.597 145.18C248.123 146.362 248.912 147.545 250.095 148.727C251.279 149.909 252.857 151.092 254.961 152.011C257.065 152.931 259.695 153.325 262.851 153.194C265.087 153.194 267.453 152.931 269.82 152.406C269.426 157.792 269.295 163.31 269.295 168.696C269.295 170.273 269.295 171.718 269.426 173.163C269.295 173.426 269.294 173.82 269.163 174.083C268.505 176.316 267.585 178.812 266.664 181.309C265.612 183.805 264.561 186.038 263.508 188.14C262.456 190.111 261.404 191.162 260.352 191.162C259.826 191.162 259.563 190.374 259.432 188.666C259.3 186.958 259.3 185.119 259.3 182.885C259.432 180.652 259.563 178.418 259.695 176.316C259.826 174.083 260.089 172.506 260.221 171.324C260.352 170.273 259.958 169.616 259.037 169.222C258.117 168.828 256.933 168.696 255.75 168.828C254.566 168.959 253.383 169.222 252.331 169.616C251.279 170.01 250.753 170.404 250.753 170.798C250.753 171.061 250.621 171.981 250.227 173.557C249.964 175.134 249.438 176.973 248.912 179.207C248.386 181.44 247.728 183.805 247.071 186.17C246.413 188.666 245.756 190.899 245.098 193.001C244.441 195.103 243.783 196.811 243.257 198.256C242.6 199.57 242.205 200.358 241.811 200.358C241.285 200.358 241.022 199.702 240.759 198.256C240.496 196.943 240.364 195.103 240.233 192.87C240.233 190.636 240.233 188.14 240.364 185.381C240.496 182.622 240.627 179.995 240.759 177.367C240.89 174.74 241.153 172.244 241.416 169.879C241.679 167.645 241.942 165.806 242.205 164.492C242.337 163.704 241.811 163.179 240.89 162.784C239.97 162.39 238.786 162.259 237.471 162.128C236.156 162.128 234.973 162.259 233.921 162.522C232.869 162.784 232.211 163.179 232.08 163.441C231.817 165.412 231.554 167.645 231.291 170.404C231.291 170.798 231.291 171.193 231.159 171.587C231.028 172.112 230.765 172.638 230.502 173.163C229.976 174.346 229.45 175.659 228.924 176.973C228.266 178.287 227.609 179.601 226.82 180.652C226.031 181.834 225.11 182.754 224.058 183.411C224.584 181.703 224.847 179.864 224.979 178.156C224.979 176.448 224.847 174.871 224.453 173.426C224.058 171.981 223.401 170.798 222.612 170.01C221.823 169.091 220.639 168.696 219.324 168.696C218.272 168.696 217.483 169.222 216.957 170.404C216.3 171.455 215.905 172.901 215.642 174.477C215.379 176.054 215.248 177.761 215.379 179.601C215.511 181.44 215.905 183.017 216.431 184.33C216.037 186.17 215.642 187.746 215.116 189.191C214.59 190.636 213.933 191.293 213.144 191.293C212.355 191.293 211.697 190.636 211.171 189.191C210.645 187.746 210.382 186.038 210.119 183.936C209.988 181.834 209.856 179.469 209.988 177.105C210.119 174.608 210.251 172.375 210.645 170.273C210.908 168.171 211.434 166.463 212.092 165.018C212.749 163.573 213.538 162.916 214.459 162.916C214.985 162.916 215.379 163.179 215.642 163.704C215.905 164.23 216.037 164.886 216.168 165.543C216.3 166.2 216.3 166.857 216.3 167.514C216.3 168.171 216.3 168.565 216.431 168.565C216.563 168.696 216.826 168.696 217.22 168.565C217.615 168.434 218.009 168.171 218.404 167.777C218.798 167.514 219.193 166.989 219.587 166.463C219.982 165.938 220.113 165.281 220.113 164.624C220.113 163.573 219.456 162.522 218.272 161.471C217.089 160.42 215.511 159.894 213.67 159.894C210.908 159.894 208.673 160.682 206.832 162.39C204.991 164.098 203.544 166.069 202.624 168.696C201.703 171.193 201.177 173.952 201.046 176.842V176.973C200.783 177.893 200.52 178.944 200.125 179.995C199.336 182.622 198.547 185.381 197.627 188.272C196.706 191.293 195.786 193.921 194.865 196.417C193.945 198.913 193.024 201.015 192.235 202.592C191.446 204.3 190.789 205.088 190.263 205.088C189.868 205.088 189.868 203.906 190.131 201.672C190.394 199.439 190.789 196.548 191.052 193.133C191.446 189.717 191.709 186.038 191.972 182.097C192.235 178.156 192.104 174.477 191.841 171.061C191.578 167.645 190.789 164.755 189.605 162.522C188.422 160.288 186.581 159.106 183.951 159.106C182.767 159.106 181.584 159.894 180.4 161.339C179.217 162.784 178.165 164.755 177.113 166.989C176.061 169.353 175.14 171.849 174.351 174.74C173.562 177.499 172.773 180.258 172.247 182.885C172.116 180.258 172.116 177.63 172.116 175.003C172.116 172.244 172.247 169.485 172.379 166.594C173.694 163.441 175.272 159.763 176.85 155.69C178.428 151.617 179.874 147.545 181.189 143.341C182.504 139.136 183.688 135.064 184.608 130.991C185.529 126.918 186.055 123.371 186.318 120.218C186.449 117.065 186.186 114.569 185.397 112.598C184.608 110.628 183.162 109.708 181.058 109.708C177.902 109.708 175.272 111.416 173.036 114.963C170.801 118.51 168.96 122.977 167.645 128.626C166.198 134.144 165.146 140.319 164.489 146.888C163.831 153.588 163.437 160.026 163.305 166.332C163.305 168.828 163.305 171.324 163.305 173.689C163.305 173.952 163.174 174.083 163.174 174.346C162.516 176.842 161.727 179.469 160.938 182.36C160.018 185.25 159.229 187.746 158.308 189.98C157.388 192.213 156.599 193.395 155.81 193.395C154.1 193.395 152.654 192.082 151.339 189.323C150.024 186.564 148.84 183.411 147.657 179.863C150.681 177.236 152.917 174.74 154.232 172.244C155.547 169.747 156.336 167.514 156.467 165.543C156.599 163.573 156.073 161.996 154.889 160.814C153.706 159.631 152.128 158.974 149.892 158.974C148.709 158.974 147.525 159.763 146.342 161.208C145.158 162.653 144.106 164.624 143.054 166.857C142.002 169.222 141.082 171.718 140.293 174.608C139.504 177.367 138.715 180.126 138.189 182.754C138.057 180.126 138.057 177.499 138.057 174.871C138.057 172.112 138.189 169.353 138.32 166.463C139.635 163.31 141.213 159.631 142.791 155.559C144.369 151.486 145.816 147.413 147.131 143.209C148.446 139.005 149.629 134.932 150.55 130.86C151.47 126.787 151.996 123.24 152.259 120.087C152.391 116.934 152.128 114.437 151.339 112.467C150.55 110.496 149.103 109.577 146.999 109.577C143.843 109.577 141.213 111.284 138.978 114.832C136.742 118.379 134.901 122.846 133.586 128.495C132.139 134.013 131.087 140.188 130.43 146.756C129.772 153.457 129.378 159.894 129.246 166.2C129.246 168.565 129.246 170.798 129.246 172.901C128.72 174.346 128.194 175.922 127.405 177.893C126.616 179.995 125.564 182.36 124.512 184.724C123.46 187.089 122.277 189.323 121.093 191.293C119.91 193.264 118.595 194.972 117.411 196.286C116.096 197.599 114.781 198.256 113.598 198.256C112.151 198.256 110.968 197.205 110.31 194.972C109.521 192.87 109.127 190.111 108.995 186.958C108.864 183.805 108.864 180.258 109.127 176.448C109.39 172.638 109.916 169.222 110.442 165.938C111.099 162.784 111.888 160.026 112.809 157.923C113.729 155.821 114.781 154.639 115.965 154.639C116.359 154.639 116.754 154.77 117.148 155.165C117.543 155.559 117.937 156.216 118.2 157.004C118.463 157.923 118.463 158.974 118.332 160.42C118.2 161.865 117.674 163.573 116.885 165.675C116.228 167.251 116.096 168.565 116.491 169.616C116.885 170.667 117.543 171.455 118.332 171.849C119.121 172.244 120.041 172.112 120.962 171.455C121.882 170.798 122.671 169.616 123.197 167.777C123.723 165.806 123.986 163.967 123.855 162.128C123.723 160.288 123.329 158.58 122.803 157.004C122.145 155.427 121.225 154.245 119.778 153.325C118.463 152.406 116.754 151.88 114.913 151.88C111.362 151.88 108.469 153.062 105.971 155.559C103.472 158.055 101.631 161.077 100.316 164.755C99.3959 167.383 98.7384 170.273 98.3439 173.163C97.8179 174.477 97.2919 175.922 96.5029 177.499C95.5824 179.601 94.5304 181.966 93.3469 184.33C92.1634 186.695 90.9798 188.929 89.6648 190.899C88.3498 192.87 87.0348 194.578 85.7198 195.892C84.4048 197.205 83.0898 197.862 81.9063 197.862C81.1173 197.862 80.3283 197.337 79.8023 196.548C79.1448 195.629 78.7503 194.315 78.3558 192.739C77.9613 191.162 77.6983 189.323 77.5668 187.221C77.4353 185.119 77.3038 183.017 77.3038 180.652C79.2763 180.783 81.1173 180.126 82.8268 178.681C84.5363 177.236 85.9828 175.528 87.1663 173.426C88.3498 171.324 89.2703 168.959 89.7963 166.463C90.4538 163.967 90.5853 161.602 90.1908 159.5C89.9278 157.398 89.0073 155.559 87.8238 154.114C86.5088 152.668 84.6678 151.88 82.1693 151.88C78.7503 151.88 75.9888 153.062 73.6218 155.559C71.3863 158.055 69.5453 161.077 68.3618 164.755C67.1783 168.434 66.5208 172.375 66.3893 176.842C66.2578 181.177 66.7837 185.25 67.8358 188.929C68.8878 192.607 70.5973 195.629 72.8328 198.125C75.0683 200.621 77.9613 201.804 81.3803 201.804C83.0898 201.804 84.7993 201.147 86.5088 199.833C88.2183 198.519 89.6648 196.811 91.1114 194.841C92.5579 192.87 93.8729 190.636 95.0564 188.14C96.1084 186.038 97.0289 184.068 97.8179 182.228C97.9494 184.593 98.3439 186.827 99.0014 188.929C100.053 192.607 101.763 195.629 103.998 198.125C106.234 200.621 109.258 201.804 112.94 201.804C114.65 201.804 116.359 201.147 117.937 199.833C119.515 198.519 120.962 196.811 122.408 194.841C123.723 192.87 125.038 190.636 126.09 188.14C127.274 185.776 128.194 183.411 129.115 181.309C129.246 181.177 129.246 180.915 129.246 180.783C129.246 181.571 129.378 182.36 129.378 183.017C129.772 188.009 130.298 191.688 131.087 194.052C131.219 194.315 131.613 194.578 132.402 194.709C133.191 194.841 134.112 194.841 135.033 194.841C135.953 194.841 136.742 194.709 137.531 194.446C138.32 194.315 138.583 194.052 138.583 193.921L138.32 191.425C138.452 188.929 138.978 186.038 139.898 182.754C140.819 179.469 141.739 176.185 142.923 173.163C143.975 170.142 145.158 167.514 146.21 165.412C147.262 163.31 148.183 162.259 148.972 162.259C149.366 162.259 149.366 162.916 149.235 164.23C148.972 165.543 148.577 167.12 147.92 169.091C147.262 171.061 146.342 173.163 145.158 175.528C143.975 177.893 142.791 180.126 141.345 182.228C140.556 183.542 140.293 184.724 140.687 185.775C141.345 187.878 142.002 189.848 142.791 191.819C143.58 193.79 144.369 195.497 145.29 197.074C146.21 198.65 147.131 199.833 148.183 200.753C149.235 201.672 150.287 202.066 151.339 202.066C152.654 202.066 153.837 201.409 155.021 199.964C156.204 198.651 157.388 196.811 158.44 194.709C159.492 192.607 160.412 190.242 161.333 187.746C162.122 185.513 162.779 183.279 163.437 181.177C163.437 181.834 163.568 182.36 163.568 183.017C163.963 188.009 164.489 191.688 165.278 194.052C165.409 194.315 165.804 194.578 166.593 194.709C167.382 194.841 168.302 194.841 169.223 194.841C170.143 194.841 170.932 194.709 171.721 194.446C172.51 194.315 172.773 194.052 172.773 193.921L172.51 191.425C172.642 188.929 173.168 186.038 174.088 182.754C175.009 179.469 175.929 176.185 177.113 173.163C178.165 170.142 179.348 167.514 180.4 165.412C181.452 163.31 182.373 162.259 183.162 162.259C183.819 162.259 184.082 163.441 183.819 165.675C183.688 167.908 183.293 170.798 182.899 174.214C182.373 177.63 181.978 181.309 181.584 185.381C181.189 189.323 181.058 193.133 181.189 196.548C181.321 199.964 181.847 202.855 182.899 205.088C183.951 207.321 185.66 208.504 188.027 208.504C189.342 208.504 190.657 207.716 191.972 206.008C193.287 204.3 194.602 202.198 195.786 199.57C196.969 196.943 198.153 194.052 199.205 191.031C200.125 188.272 200.914 185.644 201.703 183.148C201.835 183.542 201.966 183.936 202.098 184.462C202.887 186.958 204.202 189.06 206.043 190.768C207.884 192.476 210.119 193.264 212.881 193.264C215.116 193.264 217.089 192.607 218.798 191.293C220.376 189.98 221.691 188.403 222.743 186.564C224.453 186.038 225.899 184.987 227.214 183.542C228.529 182.097 229.581 180.652 230.502 178.944C230.633 178.812 230.633 178.681 230.765 178.55C230.633 181.571 230.765 184.593 231.028 187.615C231.291 190.636 231.817 193.395 232.606 195.76C233.395 198.125 234.447 200.096 235.893 201.672C237.34 203.249 239.181 203.906 241.416 203.906C242.468 203.906 243.52 203.117 244.441 201.409C245.361 199.702 246.15 197.731 246.939 195.366C247.728 193.001 248.386 190.636 249.043 188.14C249.701 185.644 250.227 183.542 250.621 181.703C250.49 183.411 250.621 185.25 251.016 187.089C251.41 188.929 252.199 190.636 253.12 192.082C254.04 193.527 255.092 194.578 256.407 195.366C257.591 196.154 258.906 196.154 260.352 195.629C261.667 195.103 263.114 193.658 264.429 191.425C265.744 189.191 266.928 186.564 268.111 183.805C268.769 181.966 269.426 180.389 269.952 178.681C270.084 180.126 270.215 181.571 270.478 182.885C271.135 187.221 272.319 190.768 273.766 193.527C275.344 196.286 277.316 197.599 279.946 197.599C281.13 197.599 282.313 196.943 283.497 195.892C284.68 194.709 285.864 193.264 287.047 191.425C288.231 189.585 289.283 187.615 290.335 185.513C291.387 183.411 292.176 181.309 292.965 179.338C293.754 177.367 294.411 175.659 294.937 174.214C295.463 172.769 295.726 171.718 295.858 171.193C296.121 170.142 295.989 169.353 295.2 169.091C294.543 168.828 294.017 168.828 293.885 169.485C293.754 170.01 293.096 171.587 292.176 174.083C291.255 176.579 290.203 179.207 288.888 181.966C287.573 184.724 286.258 187.221 284.943 189.585C283.628 191.819 282.313 193.001 281.261 193.001C280.341 193.001 279.683 191.688 279.42 188.929C279.157 186.17 279.026 182.754 279.157 178.55C279.289 174.346 279.42 169.616 279.815 164.361C280.209 159.106 280.604 153.982 280.998 148.858C283.628 148.07 286.127 147.413 288.757 146.756C291.387 146.099 294.017 145.705 296.647 145.574C299.277 145.443 301.907 145.705 304.537 146.231C307.167 146.756 309.797 147.939 312.427 149.515C312.953 149.909 313.084 149.515 312.953 148.596Z" fill="#C6C6C6"/>
<path d="M53.5021 169.747C53.5021 171.324 53.3706 172.9 53.1076 174.74C52.8446 176.448 52.4501 178.287 51.9241 179.995C51.3981 181.703 50.7406 183.542 49.9516 185.119C49.1626 186.826 48.2421 188.272 47.1901 189.717C45.6121 186.564 44.8231 183.017 44.8231 178.944C44.8231 176.973 44.9546 175.003 45.3491 173.163C45.7436 171.324 46.2696 169.747 46.7956 168.302C47.4531 166.857 47.9791 165.675 48.6366 164.886C49.2941 163.967 49.9516 163.573 50.4776 163.573C51.6611 163.573 52.3186 164.23 52.8446 165.412C53.3706 166.594 53.5021 168.04 53.5021 169.747ZM29.5691 128.495C29.7006 125.999 29.9636 123.634 30.6211 121.269C31.2786 118.904 32.0676 116.934 33.1196 115.094C34.1716 113.255 35.3551 111.81 36.8016 110.759C38.2481 109.708 39.8261 109.182 41.4041 109.182C42.5876 109.182 43.6396 109.445 44.4286 109.971C45.2176 110.496 45.8751 111.153 46.4011 111.941C46.7956 112.73 47.1901 113.518 47.3216 114.437C47.4531 115.357 47.5846 116.145 47.5846 117.065C47.5846 118.773 47.0586 120.349 46.2696 121.795C45.3491 123.24 44.1656 124.422 42.7191 125.473C41.2726 126.524 39.6946 127.313 37.8536 127.838C36.0126 128.364 34.1716 128.626 32.1991 128.626H30.8841C30.4896 128.626 30.0951 128.626 29.5691 128.495ZM56.0006 174.871C56.2636 172.9 56.5267 171.193 56.5267 169.485C56.5267 168.565 56.3951 167.645 56.2636 166.726C56.1321 165.806 55.7376 164.886 55.3431 164.098C54.9486 163.31 54.4226 162.522 53.6336 161.996C52.9761 161.471 52.0556 161.208 51.1351 161.208C49.6886 161.208 48.3736 161.865 47.3216 163.047C46.2696 164.23 45.2176 165.806 44.5601 167.645C43.7711 169.485 43.2451 171.455 42.7191 173.689C42.3246 175.791 42.0616 177.893 42.0616 179.863C42.0616 182.228 42.3246 184.462 42.8506 186.564C43.3766 188.666 44.0341 190.636 44.8231 192.344C42.3246 194.315 39.5631 195.235 36.5386 195.235C32.0676 195.235 28.9115 193.133 27.0705 189.06C25.098 184.987 24.1775 178.944 24.1775 170.93C24.1775 166.2 24.835 161.996 26.2816 158.055C27.7281 154.114 29.7005 151.092 32.3305 148.99C33.3825 149.515 34.4346 149.778 35.4866 150.041C36.5386 150.304 37.7221 150.435 39.0371 150.435C40.2206 150.435 41.2726 150.041 42.1931 149.384C43.1136 148.727 43.6396 147.939 43.9026 147.15C44.1656 146.362 43.9026 145.574 43.3766 144.917C42.7191 144.26 41.5356 143.866 39.6946 143.866C37.7221 143.866 35.7496 144.129 33.7771 144.654C32.3306 143.341 31.2786 141.501 30.6211 139.268C29.9636 136.903 29.7006 134.538 29.5691 131.911C29.9636 131.911 30.4896 131.911 30.7526 132.042C31.1471 132.042 31.5416 132.173 31.9361 132.173C34.3031 132.173 36.6701 131.779 39.0371 131.122C41.4041 130.466 43.6396 129.415 45.4806 128.232C47.4531 127.05 49.0311 125.473 50.2146 123.634C51.3981 121.795 52.0556 119.693 52.0556 117.459C52.0556 114.569 51.0036 112.073 48.8996 110.102C46.7956 108.131 44.1656 107.08 40.7466 107.08C35.0921 107.08 30.4896 108.788 26.9391 112.335C23.3885 115.751 21.153 120.218 20.2325 125.736C17.6025 123.503 16.2875 120.218 16.2875 116.014C16.2875 113.518 16.5505 111.416 17.0765 109.708C17.6025 108 18.1285 106.555 18.786 105.241C19.4435 103.927 20.364 102.745 21.153 101.825C21.679 102.876 22.5995 103.139 23.783 102.876C24.9665 102.614 25.887 101.957 26.5445 100.906C26.676 100.511 26.8076 100.117 26.9391 99.5918C27.0706 99.0663 27.0706 98.6722 26.9391 98.1467C26.8076 97.7526 26.6761 97.3584 26.2816 96.9643C26.0186 96.7015 25.4925 96.4388 24.835 96.4388C23.783 96.4388 22.5995 96.9643 21.2845 97.7525C19.9695 98.6722 18.786 99.986 17.6025 101.563C16.419 103.27 15.367 105.241 14.578 107.606C13.789 109.971 13.3945 112.598 13.3945 115.488C13.3945 118.642 14.052 121.4 15.2355 123.634C16.419 125.867 17.997 127.707 20.101 128.889C20.101 129.152 20.101 129.415 19.9695 129.677C19.9695 129.94 19.838 130.203 19.838 130.466C19.838 133.619 20.627 136.772 22.0735 139.793C23.52 142.815 25.624 145.311 28.1226 147.019C26.15 148.07 24.1775 149.384 22.3365 150.96C20.4955 152.537 18.9175 154.376 17.471 156.478C16.156 158.58 14.9725 160.945 14.1835 163.573C13.3945 166.2 13 169.222 13 172.375C13 176.316 13.6575 179.863 14.841 183.148C16.0245 186.432 17.734 189.191 19.838 191.556C21.942 193.921 24.4405 195.76 27.3335 197.074C30.2266 198.388 33.2511 199.045 36.5386 199.045C38.3796 199.045 40.0891 198.651 41.6671 197.994C43.2451 197.337 44.6916 196.286 46.0066 194.972C48.2421 198.519 50.6091 200.227 52.9761 200.227C53.6336 200.227 54.0281 199.964 54.2911 199.57C54.5541 199.176 54.5542 198.782 54.5542 198.256C54.5542 197.731 54.2912 197.337 53.8967 196.943C53.5021 196.548 53.1076 196.286 52.8446 196.286C51.3981 196.286 49.8201 195.103 48.2421 192.607C49.5571 190.899 50.6091 189.191 51.6611 187.221C52.7131 185.25 53.5021 183.279 54.1596 181.177C55.0801 178.812 55.6061 176.842 56.0006 174.871ZM167.645 148.858C167.908 143.078 168.302 137.429 168.828 131.779C169.354 126.13 170.012 121.138 170.669 116.671C171.458 112.204 172.247 108.657 173.168 105.898C174.088 103.139 175.14 101.825 176.192 101.825C177.244 101.825 177.902 102.482 178.165 103.927C178.428 105.372 178.559 107.212 178.296 109.577C178.033 111.941 177.639 114.7 176.981 117.853C176.324 121.006 175.403 124.291 174.483 127.838C173.431 131.385 172.379 134.932 171.195 138.48C170.012 142.29 168.828 145.705 167.645 148.858ZM133.586 148.858C133.849 143.078 134.243 137.429 134.769 131.779C135.295 126.13 135.953 121.138 136.61 116.671C137.399 112.204 138.188 108.657 139.109 105.898C140.029 103.139 141.081 101.825 142.133 101.825C143.185 101.825 143.843 102.482 144.106 103.927C144.369 105.372 144.5 107.212 144.237 109.577C143.974 111.941 143.58 114.7 142.922 117.853C142.265 121.006 141.344 124.291 140.424 127.838C139.372 131.385 138.32 134.932 137.136 138.48C135.953 142.29 134.769 145.705 133.586 148.858ZM72.4382 167.645C72.5697 164.755 72.7012 161.996 73.0957 159.237C73.4902 156.478 73.8847 153.982 74.4107 151.749C74.9367 149.515 75.4627 147.807 76.1202 146.362C76.7777 145.048 77.4352 144.26 78.2242 144.26C78.6187 144.26 79.0132 144.786 79.1447 145.837C79.2762 146.888 79.2762 148.202 79.0132 149.778C78.8817 151.355 78.4872 153.062 78.2242 155.033C77.8297 156.872 77.4352 158.712 76.7777 160.42C76.1202 162.128 75.4627 163.704 74.8052 165.018C74.0162 166.463 73.2272 167.383 72.4382 167.645ZM307.561 137.823C307.429 136.903 307.298 136.246 307.167 136.115C304.799 134.407 302.301 133.356 299.671 132.699C297.041 132.042 294.542 131.779 291.781 131.911C289.151 132.042 286.521 132.305 283.759 132.83C281.129 133.356 278.499 134.013 276.001 134.932C276.264 131.779 276.527 128.626 276.921 125.736C277.184 122.846 277.579 120.218 277.71 117.985C277.973 115.751 278.105 113.781 278.236 112.467C278.368 111.022 278.499 110.102 278.499 109.839C278.499 109.051 277.973 108.657 277.053 108.526C276.132 108.394 274.949 108.394 273.765 108.526C272.582 108.657 271.398 109.051 270.346 109.577C269.294 110.102 268.768 110.628 268.637 111.284C267.848 114.175 267.19 118.116 266.533 122.977C265.875 127.838 265.218 133.093 264.823 138.742C263.508 139.136 262.325 139.399 261.273 139.662C260.221 139.925 259.169 140.056 258.248 140.056C254.961 140.187 252.331 139.793 250.358 138.874C248.386 137.954 246.939 137.034 245.887 135.852C244.835 134.67 244.178 133.619 243.783 132.568C243.389 131.517 243.126 130.991 243.126 130.728C242.994 130.334 242.731 130.334 242.205 130.597C241.679 130.86 241.416 131.385 241.548 132.173C241.548 132.568 241.811 133.356 242.205 134.407C242.731 135.589 243.52 136.772 244.704 137.954C245.887 139.136 247.465 140.319 249.569 141.239C251.673 142.158 254.303 142.552 257.459 142.421C259.695 142.421 262.062 142.158 264.429 141.633C264.034 147.019 263.903 152.537 263.903 157.923C263.903 159.5 263.903 160.945 264.034 162.39C263.903 162.653 263.903 163.047 263.771 163.31C263.114 165.543 262.193 168.04 261.273 170.536C260.221 173.032 259.169 175.265 258.117 177.367C257.065 179.338 256.013 180.389 254.961 180.389C254.435 180.389 254.172 179.601 254.04 177.893C253.909 176.185 253.909 174.346 253.909 172.112C254.04 169.879 254.172 167.645 254.303 165.543C254.435 163.31 254.698 161.733 254.829 160.551C254.961 159.5 254.566 158.843 253.646 158.449C252.725 158.055 251.542 157.923 250.358 158.055C249.175 158.186 247.991 158.449 246.939 158.843C245.887 159.237 245.361 159.631 245.361 160.026C245.361 160.288 245.23 161.208 244.835 162.784C244.572 164.361 244.046 166.2 243.52 168.434C242.994 170.667 242.337 173.032 241.679 175.397C241.022 177.893 240.364 180.126 239.707 182.228C239.049 184.33 238.392 186.038 237.866 187.483C237.208 188.797 236.814 189.585 236.419 189.585C235.893 189.585 235.63 188.929 235.367 187.483C235.104 186.17 234.973 184.33 234.841 182.097C234.841 179.864 234.841 177.367 234.973 174.608C235.104 171.849 235.236 169.222 235.367 166.594C235.499 163.967 235.762 161.471 236.025 159.106C236.288 156.872 236.551 155.033 236.814 153.719C236.945 152.931 236.419 152.406 235.499 152.011C234.578 151.617 233.395 151.486 232.08 151.355C230.765 151.355 229.581 151.486 228.529 151.749C227.477 152.011 226.82 152.406 226.688 152.668C226.425 154.639 226.162 156.872 225.899 159.631C225.899 160.025 225.899 160.42 225.768 160.814C225.636 161.339 225.373 161.865 225.11 162.39C224.584 163.573 224.058 164.886 223.532 166.2C222.875 167.514 222.217 168.828 221.428 169.879C220.639 171.061 219.719 171.981 218.667 172.638C219.193 170.93 219.456 169.091 219.587 167.383C219.587 165.675 219.456 164.098 219.061 162.653C218.667 161.208 218.009 160.026 217.22 159.237C216.431 158.318 215.248 157.923 213.933 157.923C212.881 157.923 212.092 158.449 211.566 159.631C210.908 160.682 210.514 162.128 210.251 163.704C209.988 165.281 209.856 166.989 209.988 168.828C210.119 170.667 210.514 172.244 211.04 173.557C210.645 175.397 210.251 176.973 209.725 178.418C209.199 179.864 208.541 180.52 207.752 180.52C206.963 180.52 206.306 179.864 205.78 178.418C205.254 176.973 204.991 175.265 204.728 173.163C204.596 171.061 204.465 168.696 204.596 166.332C204.728 163.835 204.859 161.602 205.254 159.5C205.517 157.398 206.043 155.69 206.7 154.245C207.358 152.8 208.147 152.143 209.067 152.143C209.593 152.143 209.988 152.406 210.251 152.931C210.514 153.457 210.645 154.114 210.777 154.77C210.908 155.427 210.908 156.084 210.908 156.741C210.908 157.398 210.908 157.792 211.04 157.792C211.171 157.923 211.434 157.923 211.829 157.792C212.223 157.661 212.618 157.398 213.012 157.004C213.407 156.741 213.801 156.216 214.196 155.69C214.59 155.165 214.722 154.508 214.722 153.851C214.722 152.8 214.064 151.749 212.881 150.698C211.697 149.647 210.119 149.121 208.278 149.121C205.517 149.121 203.281 149.909 201.44 151.617C199.599 153.325 198.153 155.296 197.232 157.923C196.312 160.42 195.786 163.179 195.654 166.069V166.2C195.391 167.12 195.128 168.171 194.734 169.222C193.945 171.849 193.156 174.608 192.235 177.499C191.315 180.52 190.394 183.148 189.474 185.644C188.553 188.14 187.633 190.242 186.844 191.819C186.055 193.527 185.397 194.315 184.871 194.315C184.477 194.315 184.477 193.133 184.74 190.899C185.003 188.666 185.397 185.776 185.66 182.36C186.055 178.944 186.318 175.265 186.581 171.324C186.844 167.383 186.712 163.704 186.449 160.288C186.186 156.872 185.397 153.982 184.214 151.749C183.03 149.515 181.189 148.333 178.559 148.333C177.376 148.333 176.192 149.121 175.009 150.566C173.825 152.011 172.773 153.982 171.721 156.216C170.669 158.58 169.749 161.077 168.96 163.967C168.171 166.726 167.382 169.485 166.856 172.112C166.724 169.485 166.724 166.857 166.724 164.23C166.724 161.471 166.856 158.712 166.987 155.821C168.302 152.668 169.88 148.99 171.458 144.917C173.036 140.844 174.483 136.772 175.798 132.568C177.113 128.363 178.296 124.291 179.217 120.218C180.137 116.145 180.663 112.598 180.926 109.445C181.058 106.292 180.795 103.796 180.006 101.825C179.217 99.8546 177.77 98.935 175.666 98.935C172.51 98.935 169.88 100.643 167.645 104.19C165.409 107.737 163.568 112.204 162.253 117.853C160.807 123.371 159.755 129.546 159.097 136.115C158.44 142.815 158.045 149.253 157.913 155.559C157.913 158.055 157.913 160.551 157.913 162.916C157.913 163.179 157.782 163.31 157.782 163.573C157.125 166.069 156.335 168.696 155.546 171.587C154.626 174.477 153.837 176.973 152.916 179.207C151.996 181.44 151.207 182.622 150.418 182.622C148.708 182.622 147.262 181.309 145.947 178.55C144.632 175.791 143.448 172.638 142.265 169.091C145.289 166.463 147.525 163.967 148.84 161.471C150.155 158.974 150.944 156.741 151.075 154.77C151.207 152.8 150.681 151.223 149.497 150.041C148.314 148.858 146.736 148.202 144.5 148.202C143.317 148.202 142.133 148.99 140.95 150.435C139.766 151.88 138.714 153.851 137.662 156.084C136.61 158.449 135.69 160.945 134.901 163.835C134.112 166.594 133.323 169.353 132.797 171.981C132.665 169.353 132.665 166.726 132.665 164.098C132.665 161.339 132.797 158.58 132.928 155.69C134.243 152.537 135.821 148.858 137.399 144.786C138.977 140.713 140.424 136.64 141.739 132.436C143.054 128.232 144.237 124.159 145.158 120.087C146.078 116.014 146.604 112.467 146.867 109.314C146.999 106.161 146.736 103.665 145.947 101.694C145.158 99.7232 143.711 98.8036 141.607 98.8036C138.451 98.8036 135.821 100.511 133.586 104.059C131.35 107.606 129.509 112.073 128.194 117.722C126.748 123.24 125.696 129.415 125.038 135.983C124.381 142.684 123.986 149.121 123.855 155.427C123.855 157.792 123.855 160.025 123.855 162.128C123.329 163.573 122.803 165.149 122.014 167.12C121.225 169.222 120.173 171.587 119.121 173.951C118.069 176.316 116.885 178.55 115.702 180.52C114.518 182.491 113.203 184.199 112.02 185.513C110.705 186.827 109.39 187.483 108.206 187.483C106.76 187.483 105.576 186.432 104.919 184.199C104.13 182.097 103.735 179.338 103.604 176.185C103.472 173.032 103.472 169.485 103.735 165.675C103.998 161.865 104.524 158.449 105.05 155.165C105.708 152.011 106.497 149.253 107.417 147.15C108.338 145.048 109.39 143.866 110.573 143.866C110.968 143.866 111.362 143.997 111.757 144.392C112.151 144.786 112.546 145.443 112.809 146.231C113.072 147.151 113.072 148.202 112.94 149.647C112.809 151.092 112.283 152.8 111.494 154.902C110.836 156.478 110.705 157.792 111.099 158.843C111.494 159.894 112.151 160.682 112.94 161.077C113.729 161.471 114.65 161.339 115.57 160.682C116.491 160.026 117.28 158.843 117.806 157.004C118.332 155.033 118.595 153.194 118.463 151.355C118.332 149.515 117.937 147.807 117.411 146.231C116.754 144.654 115.833 143.472 114.387 142.552C113.072 141.633 111.362 141.107 109.521 141.107C105.971 141.107 103.078 142.29 100.579 144.786C98.0808 147.282 96.2398 150.304 94.9248 153.982C94.0043 156.61 93.3468 159.5 92.9523 162.39C92.4263 163.704 91.9003 165.149 91.1113 166.726C90.1908 168.828 89.1388 171.193 87.9553 173.557C86.7718 175.922 85.5882 178.156 84.2732 180.126C82.9582 182.097 81.6432 183.805 80.3282 185.119C79.0132 186.432 77.6982 187.089 76.5147 187.089C75.7257 187.089 74.9367 186.564 74.4107 185.775C73.7532 184.856 73.3587 183.542 72.9642 181.966C72.5697 180.389 72.3067 178.55 72.1752 176.448C72.0437 174.346 71.9122 172.244 71.9122 169.879C73.8847 170.01 75.7257 169.353 77.4352 167.908C79.1447 166.463 80.5912 164.755 81.7747 162.653C82.9582 160.551 83.8787 158.186 84.4047 155.69C85.0622 153.194 85.1938 150.829 84.7993 148.727C84.5363 146.625 83.6157 144.786 82.4322 143.341C81.1172 141.895 79.2762 141.107 76.7777 141.107C73.3587 141.107 70.5972 142.29 68.2302 144.786C65.9947 147.282 64.1537 150.304 62.9702 153.982C61.7867 157.661 61.1292 161.602 60.9977 166.069C60.8662 170.404 61.3922 174.477 62.4442 178.156C63.4962 181.834 65.2057 184.856 67.4412 187.352C69.6767 189.848 72.5697 191.031 75.9887 191.031C77.6982 191.031 79.4077 190.374 81.1172 189.06C82.8267 187.746 84.2732 186.038 85.7197 184.068C87.1662 182.097 88.4812 179.863 89.6647 177.367C90.7168 175.265 91.6373 173.295 92.4263 171.455C92.5578 173.82 92.9523 176.054 93.6098 178.156C94.6618 181.834 96.3713 184.856 98.6068 187.352C100.842 189.848 103.867 191.031 107.549 191.031C109.258 191.031 110.968 190.374 112.546 189.06C114.124 187.746 115.57 186.038 117.017 184.068C118.332 182.097 119.647 179.863 120.699 177.367C121.882 175.003 122.803 172.638 123.723 170.536C123.855 170.404 123.855 170.142 123.855 170.01C123.855 170.798 123.986 171.587 123.986 172.244C124.381 177.236 124.907 180.915 125.696 183.279C125.827 183.542 126.222 183.805 127.011 183.936C127.8 184.068 128.72 184.068 129.641 184.068C130.561 184.068 131.35 183.936 132.139 183.673C132.928 183.542 133.191 183.279 133.191 183.148L132.928 180.652C133.06 178.156 133.586 175.265 134.506 171.981C135.427 168.696 136.347 165.412 137.531 162.39C138.714 159.369 139.766 156.741 140.818 154.639C141.87 152.537 142.791 151.486 143.58 151.486C143.974 151.486 143.974 152.143 143.843 153.457C143.58 154.77 143.185 156.347 142.528 158.318C141.87 160.288 140.95 162.39 139.766 164.755C138.583 167.12 137.399 169.353 135.953 171.455C135.164 172.769 134.901 173.952 135.295 175.003C135.953 177.105 136.61 179.075 137.399 181.046C138.188 183.017 138.977 184.724 139.898 186.301C140.818 187.878 141.739 189.06 142.791 189.98C143.843 190.899 144.895 191.293 145.947 191.293C147.262 191.293 148.445 190.636 149.629 189.191C150.812 187.878 151.996 186.038 153.048 183.936C154.1 181.834 155.02 179.469 155.941 176.973C156.73 174.74 157.387 172.506 158.045 170.404C158.045 171.061 158.176 171.587 158.176 172.244C158.571 177.236 159.097 180.915 159.886 183.279C160.017 183.542 160.412 183.805 161.201 183.936C161.99 184.068 162.91 184.068 163.831 184.068C164.752 184.068 165.541 183.936 166.33 183.673C167.119 183.542 167.382 183.279 167.382 183.148L167.119 180.652C167.25 178.156 167.776 175.265 168.697 171.981C169.617 168.696 170.538 165.412 171.721 162.39C172.905 159.369 173.957 156.741 175.009 154.639C176.061 152.537 176.981 151.486 177.77 151.486C178.428 151.486 178.691 152.668 178.428 154.902C178.296 157.135 177.902 160.025 177.507 163.441C176.981 166.857 176.587 170.536 176.192 174.608C175.798 178.55 175.666 182.36 175.798 185.775C175.929 189.191 176.455 192.082 177.507 194.315C178.559 196.548 180.269 197.731 182.636 197.731C183.951 197.731 185.266 196.943 186.581 195.235C187.896 193.527 189.211 191.425 190.394 188.797C191.578 186.17 192.761 183.279 193.813 180.258C194.734 177.499 195.523 174.871 196.312 172.375C196.443 172.769 196.575 173.163 196.706 173.689C197.495 176.185 198.81 178.287 200.651 179.995C202.492 181.703 204.728 182.491 207.489 182.491C209.725 182.491 211.697 181.834 213.407 180.52C214.985 179.207 216.3 177.63 217.352 175.791C219.061 175.265 220.508 174.214 221.823 172.769C223.138 171.324 224.19 169.879 225.11 168.171C225.242 168.04 225.242 167.908 225.373 167.777C225.242 170.798 225.373 173.82 225.636 176.842C225.899 179.864 226.425 182.622 227.214 184.987C228.003 187.352 229.055 189.323 230.502 190.899C231.948 192.476 233.789 193.133 236.025 193.133C237.077 193.133 238.129 192.344 239.049 190.636C239.97 188.929 240.759 186.958 241.548 184.593C242.337 182.228 242.994 179.863 243.652 177.367C244.309 174.871 244.835 172.769 245.23 170.93C245.098 172.638 245.23 174.477 245.624 176.316C246.019 178.156 246.808 179.863 247.728 181.309C248.649 182.754 249.701 183.805 251.016 184.593C252.199 185.381 253.514 185.381 254.961 184.856C256.276 184.33 257.722 182.885 259.037 180.652C260.352 178.418 261.536 175.791 262.719 173.032C263.377 171.193 264.034 169.616 264.56 167.908C264.692 169.353 264.823 170.798 265.086 172.112C265.744 176.448 266.927 179.995 268.374 182.754C269.952 185.513 271.924 186.827 274.554 186.827C275.738 186.827 276.921 186.17 278.105 185.119C279.288 183.936 280.472 182.491 281.655 180.652C282.839 178.812 283.891 176.842 284.943 174.74C285.995 172.638 286.784 170.536 287.573 168.565C288.362 166.594 289.02 164.886 289.546 163.441C290.072 161.996 290.334 160.945 290.466 160.42C290.729 159.369 290.597 158.58 289.808 158.318C289.151 158.055 288.625 158.055 288.493 158.712C288.362 159.237 287.704 160.814 286.784 163.31C285.863 165.806 284.811 168.434 283.496 171.193C282.181 173.952 280.866 176.448 279.551 178.812C278.236 181.046 276.921 182.228 275.869 182.228C274.949 182.228 274.291 180.915 274.028 178.156C273.765 175.397 273.634 171.981 273.765 167.777C273.897 163.573 274.028 158.843 274.423 153.588C274.817 148.333 275.212 143.209 275.606 138.085C278.236 137.297 280.735 136.64 283.365 135.983C285.995 135.327 288.625 134.932 291.255 134.801C293.885 134.67 296.515 134.932 299.145 135.458C301.775 135.983 304.405 137.166 307.035 138.742C307.561 139.136 307.692 138.742 307.561 137.823Z" fill="white"/>
<path d="M54.9486 171.061C54.9486 172.638 54.8171 174.214 54.5541 176.054C54.2911 177.761 53.8966 179.601 53.3706 181.309C52.8446 183.148 52.187 184.856 51.398 186.432C50.609 188.14 49.6886 189.585 48.6366 191.031C47.0586 187.878 46.2695 184.33 46.2695 180.258C46.2695 178.287 46.401 176.316 46.7955 174.477C47.19 172.638 47.716 171.061 48.242 169.616C48.8995 168.171 49.4255 166.989 50.083 166.2C50.7405 165.281 51.3981 164.886 51.9241 164.886C53.1076 164.886 53.7651 165.543 54.2911 166.726C54.6856 167.908 54.9486 169.353 54.9486 171.061ZM30.884 129.809C31.0155 127.313 31.2785 124.948 31.936 122.583C32.5935 120.218 33.3825 118.247 34.4345 116.408C35.4865 114.569 36.67 113.124 38.1165 112.073C39.563 111.022 41.141 110.496 42.719 110.496C43.9026 110.496 44.9545 110.759 45.7435 111.284C46.5325 111.81 47.19 112.467 47.716 113.255C48.1105 114.043 48.5051 114.832 48.6366 115.751C48.7681 116.671 48.8995 117.459 48.8995 118.379C48.8995 120.087 48.3735 121.663 47.5845 123.108C46.664 124.554 45.4806 125.736 44.0341 126.787C42.5875 127.838 41.0095 128.626 39.1685 129.152C37.3275 129.677 35.4865 129.94 33.514 129.94H32.199C31.8045 129.94 31.41 129.94 30.884 129.809ZM57.3156 176.185C57.5786 174.214 57.8416 172.506 57.8416 170.798C57.8416 169.879 57.7101 168.959 57.5786 168.04C57.4471 167.12 57.0526 166.2 56.6581 165.412C56.2636 164.624 55.7376 163.835 54.9486 163.31C54.2911 162.784 53.3706 162.522 52.4501 162.522C51.0036 162.522 49.6886 163.179 48.6366 164.361C47.5846 165.543 46.5326 167.12 45.8751 168.959C45.086 170.798 44.5601 172.769 44.0341 175.003C43.6396 177.105 43.3766 179.207 43.3766 181.177C43.3766 183.542 43.6395 185.776 44.1655 187.878C44.6915 189.98 45.349 191.95 46.138 193.658C43.6395 195.629 40.878 196.548 37.8535 196.548C33.3825 196.548 30.2265 194.446 28.3855 190.374C26.413 186.301 25.4925 180.258 25.4925 172.244C25.4925 167.514 26.15 163.31 27.5965 159.369C29.043 155.427 31.0155 152.406 33.6455 150.304C34.6975 150.829 35.7495 151.092 36.8015 151.355C37.8535 151.617 39.037 151.749 40.352 151.749C41.5355 151.749 42.5875 151.355 43.508 150.698C44.4285 150.041 44.9545 149.253 45.2175 148.464C45.4806 147.676 45.2176 146.888 44.6916 146.231C44.0341 145.574 42.8505 145.18 41.0095 145.18C39.037 145.18 37.0645 145.443 35.092 145.968C33.6455 144.654 32.5935 142.815 31.936 140.582C31.2785 138.217 31.0155 135.852 30.884 133.224C31.2785 133.224 31.8045 133.224 32.0675 133.356C32.462 133.356 32.8565 133.487 33.251 133.487C35.618 133.487 37.985 133.093 40.352 132.436C42.719 131.779 44.9545 130.728 46.7955 129.546C48.768 128.364 50.3461 126.787 51.5296 124.948C52.7131 123.108 53.3706 121.006 53.3706 118.773C53.3706 115.883 52.3186 113.386 50.2146 111.416C48.1105 109.445 45.4806 108.394 42.0615 108.394C36.407 108.394 31.8045 110.102 28.254 113.649C24.7035 117.065 22.468 121.532 21.5475 127.05C18.9175 124.816 17.6025 121.532 17.6025 117.328C17.6025 114.832 17.8655 112.73 18.3915 111.022C18.9175 109.314 19.4435 107.869 20.101 106.555C20.7585 105.241 21.6789 104.059 22.4679 103.139C22.9939 104.19 23.9145 104.453 25.098 104.19C26.2815 103.927 27.202 103.27 27.8595 102.219C27.991 101.825 28.1225 101.431 28.254 100.906C28.3855 100.38 28.3855 99.986 28.254 99.4605C28.1225 99.0663 27.991 98.6722 27.5965 98.2781C27.3335 98.0153 26.8075 97.7525 26.15 97.7525C25.098 97.7525 23.9145 98.278 22.5995 99.0663C21.2844 99.986 20.101 101.3 18.9175 102.876C17.734 104.584 16.6819 106.555 15.8929 108.92C15.1039 111.284 14.7094 113.912 14.7094 116.802C14.7094 119.955 15.3669 122.714 16.5504 124.948C17.7339 127.181 19.312 129.02 21.416 130.203C21.416 130.466 21.416 130.728 21.2844 130.991C21.2844 131.254 21.1529 131.517 21.1529 131.779C21.1529 134.932 21.942 138.085 23.3885 141.107C24.835 144.129 26.939 146.625 29.4375 148.333C27.465 149.384 25.4925 150.698 23.6515 152.274C21.8105 153.851 20.2325 155.69 18.7859 157.792C17.4709 159.894 16.2874 162.259 15.4984 164.886C14.7094 167.514 14.3149 170.536 14.3149 173.689C14.3149 177.63 14.9724 181.177 16.1559 184.462C17.3394 187.746 19.0489 190.505 21.1529 192.87C23.2569 195.235 25.7555 197.074 28.6485 198.388C31.5415 199.702 34.566 200.358 37.8535 200.358C39.6945 200.358 41.404 199.964 42.982 199.307C44.56 198.651 46.0066 197.599 47.3216 196.286C49.5571 199.833 51.9241 201.541 54.2911 201.541C54.9486 201.541 55.3431 201.278 55.6061 200.884C55.8691 200.49 55.8691 200.096 55.8691 199.57C55.8691 199.045 55.6061 198.65 55.2116 198.256C54.8171 197.862 54.4226 197.599 54.1596 197.599C52.7131 197.599 51.1351 196.417 49.557 193.921C50.8721 192.213 51.9241 190.505 52.9761 188.534C54.0281 186.564 54.8171 184.593 55.4746 182.491C56.1321 180.389 56.9211 178.156 57.3156 176.185ZM169.091 150.172C169.354 144.392 169.748 138.742 170.274 133.093C170.8 127.444 171.458 122.452 172.115 117.985C172.904 113.518 173.693 109.971 174.614 107.212C175.535 104.453 176.586 103.139 177.638 103.139C178.69 103.139 179.348 103.796 179.611 105.241C179.874 106.686 180.006 108.525 179.743 110.89C179.48 113.255 179.085 116.014 178.427 119.167C177.77 122.32 176.85 125.605 175.929 129.152C174.877 132.699 173.825 136.246 172.641 139.793C171.458 143.603 170.274 147.019 169.091 150.172ZM134.901 150.172C135.164 144.392 135.558 138.742 136.084 133.093C136.61 127.444 137.268 122.452 137.925 117.985C138.714 113.518 139.503 109.971 140.424 107.212C141.344 104.453 142.396 103.139 143.448 103.139C144.5 103.139 145.158 103.796 145.421 105.241C145.684 106.686 145.815 108.525 145.552 110.89C145.289 113.255 144.895 116.014 144.237 119.167C143.58 122.32 142.659 125.605 141.739 129.152C140.687 132.699 139.635 136.246 138.451 139.793C137.268 143.603 136.084 147.019 134.901 150.172ZM73.7531 169.091C73.8846 166.2 74.0161 163.441 74.4106 160.682C74.8051 157.923 75.1996 155.427 75.7256 153.194C76.2516 150.96 76.7777 149.253 77.4352 147.807C78.0927 146.494 78.7502 145.705 79.5392 145.705C79.9337 145.705 80.3282 146.231 80.4597 147.282C80.5912 148.333 80.5911 149.647 80.3281 151.223C80.1966 152.8 79.8022 154.508 79.5392 156.478C79.1447 158.318 78.7502 160.157 78.0927 161.865C77.4352 163.573 76.7777 165.149 76.1202 166.463C75.3312 167.777 74.5421 168.696 73.7531 169.091ZM308.876 139.136C308.744 138.217 308.613 137.56 308.481 137.429C306.114 135.721 303.616 134.67 300.986 134.013C298.356 133.356 295.857 133.093 293.096 133.224C290.466 133.356 287.836 133.619 285.074 134.144C282.444 134.67 279.814 135.327 277.316 136.246C277.579 133.093 277.842 129.94 278.236 127.05C278.499 124.159 278.894 121.532 279.025 119.298C279.288 117.065 279.42 115.094 279.551 113.781C279.683 112.335 279.814 111.416 279.814 111.153C279.814 110.365 279.288 109.971 278.368 109.839C277.447 109.708 276.264 109.708 275.08 109.839C273.897 109.971 272.713 110.365 271.661 110.89C270.609 111.416 270.083 111.941 269.952 112.598C269.163 115.489 268.505 119.43 267.848 124.291C267.19 129.152 266.533 134.407 266.138 140.056C264.823 140.45 263.64 140.713 262.588 140.976C261.536 141.239 260.484 141.37 259.563 141.37C256.276 141.501 253.646 141.107 251.673 140.188C249.701 139.268 248.254 138.348 247.202 137.166C246.15 135.983 245.493 134.932 245.098 133.881C244.704 132.83 244.441 132.305 244.441 132.042C244.309 131.648 244.046 131.648 243.52 131.911C242.994 132.173 242.731 132.699 242.863 133.487C242.863 133.881 243.126 134.67 243.52 135.721C244.046 136.903 244.835 138.085 246.019 139.268C247.202 140.45 248.78 141.633 250.884 142.552C252.988 143.472 255.618 143.866 258.774 143.735C261.01 143.735 263.377 143.472 265.744 142.946C265.349 148.333 265.218 153.851 265.218 159.237C265.218 160.814 265.218 162.259 265.349 163.704C265.218 163.967 265.218 164.361 265.086 164.624C264.429 166.857 263.508 169.353 262.588 171.85C261.536 174.346 260.484 176.579 259.432 178.681C258.38 180.652 257.328 181.703 256.276 181.703C255.75 181.703 255.487 180.915 255.355 179.207C255.224 177.499 255.224 175.659 255.224 173.426C255.355 171.193 255.487 168.959 255.618 166.857C255.75 164.624 256.013 163.047 256.144 161.865C256.276 160.814 255.881 160.157 254.961 159.763C254.04 159.369 252.857 159.237 251.673 159.369C250.49 159.5 249.306 159.763 248.254 160.157C247.202 160.551 246.676 160.945 246.676 161.339C246.676 161.602 246.545 162.522 246.15 164.098C245.887 165.675 245.361 167.514 244.835 169.747C244.309 171.981 243.652 174.346 242.994 176.71C242.337 179.207 241.679 181.44 241.022 183.542C240.364 185.644 239.707 187.352 239.181 188.797C238.523 190.111 238.129 190.899 237.734 190.899C237.208 190.899 236.945 190.242 236.682 188.797C236.419 187.483 236.288 185.644 236.156 183.411C236.156 181.177 236.156 178.681 236.288 175.922C236.419 173.163 236.551 170.536 236.682 167.908C236.814 165.281 237.077 162.784 237.34 160.42C237.603 158.186 237.866 156.347 238.129 155.033C238.26 154.245 237.734 153.719 236.814 153.325C235.893 152.931 234.71 152.8 233.395 152.668C232.08 152.668 230.896 152.8 229.844 153.062C228.792 153.325 228.135 153.719 228.003 153.982C227.74 155.953 227.477 158.186 227.214 160.945C227.214 161.339 227.214 161.733 227.083 162.128C226.951 162.653 226.688 163.179 226.425 163.704C225.899 164.886 225.373 166.2 224.847 167.514C224.19 168.828 223.532 170.142 222.743 171.193C221.954 172.375 221.034 173.295 219.982 173.952C220.508 172.244 220.771 170.404 220.902 168.696C220.902 166.989 220.771 165.412 220.376 163.967C219.982 162.522 219.324 161.339 218.535 160.551C217.746 159.631 216.563 159.237 215.248 159.237C214.196 159.237 213.407 159.763 212.881 160.945C212.223 161.996 211.829 163.441 211.566 165.018C211.303 166.594 211.171 168.302 211.303 170.142C211.434 171.981 211.829 173.557 212.355 174.871C211.96 176.71 211.566 178.287 211.04 179.732C210.514 181.177 209.856 181.834 209.067 181.834C208.278 181.834 207.621 181.177 207.095 179.732C206.569 178.287 206.306 176.579 206.043 174.477C205.911 172.375 205.78 170.01 205.911 167.645C206.043 165.149 206.174 162.916 206.569 160.814C206.832 158.712 207.358 157.004 208.015 155.559C208.673 154.114 209.462 153.457 210.382 153.457C210.908 153.457 211.303 153.719 211.566 154.245C211.829 154.77 211.96 155.427 212.092 156.084C212.223 156.741 212.223 157.398 212.223 158.055C212.223 158.712 212.223 159.106 212.355 159.106C212.486 159.237 212.749 159.237 213.144 159.106C213.538 158.974 213.933 158.712 214.327 158.318C214.722 158.055 215.116 157.529 215.511 157.004C215.905 156.478 216.037 155.821 216.037 155.165C216.037 154.114 215.379 153.063 214.196 152.011C213.012 150.96 211.434 150.435 209.593 150.435C206.832 150.435 204.596 151.223 202.755 152.931C200.914 154.639 199.468 156.61 198.547 159.237C197.627 161.733 197.101 164.492 196.969 167.383V167.514C196.706 168.434 196.443 169.485 196.049 170.536C195.26 173.163 194.471 175.922 193.55 178.812C192.63 181.834 191.709 184.462 190.789 186.958C189.868 189.454 188.948 191.556 188.159 193.133C187.37 194.841 186.712 195.629 186.186 195.629C185.792 195.629 185.792 194.446 186.055 192.213C186.318 189.98 186.712 187.089 186.975 183.673C187.238 180.258 187.633 176.579 187.896 172.638C188.159 168.696 188.027 165.018 187.764 161.602C187.501 158.186 186.712 155.296 185.529 153.062C184.345 150.829 182.504 149.647 179.874 149.647C178.691 149.647 177.507 150.435 176.323 151.88C175.14 153.325 174.088 155.296 173.036 157.529C171.984 159.894 171.063 162.39 170.274 165.281C169.485 168.04 168.696 170.798 168.17 173.426C168.039 170.798 168.039 168.171 168.039 165.543C168.039 162.784 168.17 160.026 168.302 157.135C169.617 153.982 171.195 150.304 172.773 146.231C174.351 142.158 175.797 138.085 177.112 133.881C178.427 129.677 179.611 125.605 180.532 121.532C181.452 117.459 181.978 113.912 182.241 110.759C182.372 107.606 182.11 105.11 181.321 103.139C180.532 101.168 179.085 100.249 176.981 100.249C173.825 100.249 171.195 101.957 168.959 105.504C166.724 109.051 164.883 113.518 163.568 119.167C162.121 124.685 161.069 130.86 160.412 137.429C159.754 144.129 159.36 150.566 159.228 156.872C159.228 159.369 159.228 161.865 159.228 164.23C159.228 164.492 159.097 164.624 159.097 164.886C158.439 167.383 157.65 170.01 156.861 172.901C155.941 175.791 155.152 178.287 154.231 180.52C153.311 182.754 152.522 183.936 151.733 183.936C150.023 183.936 148.577 182.622 147.262 179.864C145.947 177.105 144.763 173.952 143.58 170.404C146.604 167.777 148.84 165.281 150.155 162.784C151.47 160.288 152.259 158.055 152.39 156.084C152.522 154.114 151.996 152.537 150.812 151.355C149.629 150.172 148.051 149.515 145.815 149.515C144.632 149.515 143.448 150.304 142.265 151.749C141.081 153.194 140.029 155.165 138.977 157.398C137.925 159.763 137.005 162.259 136.216 165.149C135.427 167.908 134.638 170.667 134.112 173.295C133.98 170.667 133.98 168.04 133.98 165.412C133.98 162.653 134.112 159.894 134.243 157.004C135.558 153.851 137.136 150.172 138.714 146.099C140.292 142.027 141.739 137.954 143.054 133.75C144.369 129.546 145.552 125.473 146.473 121.4C147.393 117.328 147.919 113.781 148.182 110.628C148.314 107.474 148.051 104.978 147.262 103.008C146.473 101.037 145.026 100.117 142.922 100.117C139.766 100.117 137.136 101.825 134.901 105.372C132.665 108.92 130.824 113.386 129.509 119.036C128.063 124.554 127.011 130.728 126.353 137.297C125.696 143.997 125.301 150.435 125.17 156.741C125.17 159.106 125.17 161.339 125.17 163.441C124.644 164.886 124.118 166.463 123.329 168.434C122.54 170.536 121.488 172.9 120.436 175.265C119.384 177.63 118.2 179.864 117.017 181.834C115.833 183.805 114.518 185.513 113.335 186.827C112.02 188.14 110.705 188.797 109.521 188.797C108.075 188.797 106.891 187.746 106.234 185.513C105.445 183.411 105.05 180.652 104.919 177.499C104.787 174.346 104.787 170.798 105.05 166.989C105.313 163.179 105.839 159.763 106.365 156.478C107.023 153.325 107.812 150.566 108.732 148.464C109.653 146.362 110.705 145.18 111.888 145.18C112.283 145.18 112.677 145.311 113.072 145.705C113.466 146.099 113.861 146.756 114.124 147.545C114.387 148.464 114.387 149.515 114.255 150.96C114.124 152.406 113.598 154.114 112.809 156.216C112.151 157.792 112.02 159.106 112.414 160.157C112.809 161.208 113.466 161.996 114.255 162.39C115.044 162.784 115.965 162.653 116.885 161.996C117.806 161.339 118.595 160.157 119.121 158.318C119.647 156.347 119.91 154.508 119.778 152.668C119.647 150.829 119.252 149.121 118.726 147.545C118.069 145.968 117.148 144.786 115.702 143.866C114.387 142.946 112.677 142.421 110.836 142.421C107.286 142.421 104.393 143.603 101.894 146.099C99.3957 148.596 97.5547 151.617 96.2397 155.296C95.3192 157.923 94.6617 160.814 94.2672 163.704C93.7412 165.018 93.2152 166.463 92.4262 168.04C91.5057 170.142 90.4537 172.506 89.2702 174.871C88.0867 177.236 86.9032 179.469 85.5882 181.44C84.2732 183.411 82.9582 185.119 81.6432 186.432C80.3281 187.746 79.0132 188.403 77.8296 188.403C77.0406 188.403 76.2516 187.878 75.7256 187.089C75.0681 186.17 74.6737 184.856 74.2792 183.279C73.8847 181.703 73.6216 179.864 73.4901 177.761C73.3586 175.659 73.2271 173.557 73.2271 171.193C75.1996 171.324 77.0407 170.667 78.7502 169.222C80.4597 167.777 81.9062 166.069 83.0897 163.967C84.2732 161.865 85.1937 159.5 85.7197 157.004C86.3772 154.508 86.5087 152.143 86.1142 150.041C85.8512 147.939 84.9307 146.099 83.7472 144.654C82.4322 143.209 80.5912 142.421 78.0927 142.421C74.6737 142.421 71.9121 143.603 69.5451 146.099C67.3096 148.596 65.4686 151.617 64.2851 155.296C63.1016 158.974 62.4441 162.916 62.3126 167.383C62.1811 171.718 62.7071 175.791 63.7591 179.469C64.8111 183.148 66.5206 186.17 68.7561 188.666C70.9916 191.162 73.8846 192.344 77.3037 192.344C79.0132 192.344 80.7227 191.687 82.4322 190.374C84.1417 189.06 85.5882 187.352 87.0347 185.381C88.4812 183.411 89.7962 181.177 90.9797 178.681C92.0317 176.579 92.9522 174.608 93.7412 172.769C93.8727 175.134 94.2672 177.367 94.9247 179.469C95.9767 183.148 97.6862 186.17 99.9217 188.666C102.157 191.162 105.182 192.344 108.864 192.344C110.573 192.344 112.283 191.687 113.861 190.374C115.439 189.06 116.885 187.352 118.332 185.381C119.647 183.411 120.962 181.177 122.014 178.681C123.197 176.316 124.118 173.952 125.038 171.85C125.17 171.718 125.17 171.455 125.17 171.324C125.17 172.112 125.301 172.901 125.301 173.557C125.696 178.55 126.222 182.228 127.011 184.593C127.142 184.856 127.537 185.119 128.326 185.25C129.115 185.381 130.035 185.381 130.956 185.381C131.876 185.381 132.665 185.25 133.454 184.987C134.243 184.856 134.506 184.593 134.506 184.462L134.243 181.966C134.375 179.469 134.901 176.579 135.821 173.295C136.742 170.01 137.662 166.726 138.846 163.704C139.898 160.682 141.081 158.055 142.133 155.953C143.185 153.851 144.106 152.8 144.895 152.8C145.289 152.8 145.289 153.457 145.158 154.77C144.895 156.084 144.5 157.661 143.843 159.631C143.185 161.602 142.265 163.704 141.081 166.069C139.898 168.434 138.714 170.667 137.268 172.769C136.479 174.083 136.216 175.265 136.61 176.316C137.268 178.418 137.925 180.389 138.714 182.36C139.503 184.33 140.292 186.038 141.213 187.615C142.133 189.191 143.054 190.374 144.106 191.293C145.158 192.213 146.21 192.607 147.262 192.607C148.577 192.607 149.76 191.95 150.944 190.505C152.127 189.191 153.311 187.352 154.363 185.25C155.415 183.148 156.335 180.783 157.256 178.287C158.045 176.054 158.702 173.82 159.36 171.718C159.36 172.375 159.491 172.901 159.491 173.557C159.886 178.55 160.412 182.228 161.201 184.593C161.332 184.856 161.727 185.119 162.516 185.25C163.305 185.381 164.225 185.381 165.146 185.381C166.066 185.381 166.855 185.25 167.644 184.987C168.433 184.856 168.696 184.593 168.696 184.462L168.433 181.966C168.565 179.469 169.091 176.579 170.011 173.295C170.932 170.01 171.852 166.726 173.036 163.704C174.088 160.682 175.271 158.055 176.323 155.953C177.375 153.851 178.296 152.8 179.085 152.8C179.743 152.8 180.006 153.982 179.743 156.216C179.611 158.449 179.217 161.339 178.822 164.755C178.296 168.171 177.902 171.849 177.507 175.922C177.113 179.864 176.981 183.673 177.112 187.089C177.244 190.505 177.77 193.395 178.822 195.629C179.874 197.862 181.584 199.045 183.951 199.045C185.266 199.045 186.581 198.256 187.896 196.548C189.211 194.841 190.526 192.739 191.709 190.111C192.893 187.483 194.076 184.593 195.128 181.571C196.049 178.813 196.838 176.185 197.627 173.689C197.758 174.083 197.89 174.477 198.021 175.003C198.81 177.499 200.125 179.601 201.966 181.309C203.807 183.017 206.043 183.805 208.804 183.805C211.04 183.805 213.012 183.148 214.722 181.834C216.3 180.52 217.615 178.944 218.667 177.105C220.376 176.579 221.823 175.528 223.138 174.083C224.453 172.638 225.505 171.193 226.425 169.485C226.557 169.353 226.557 169.222 226.688 169.091C226.557 172.112 226.688 175.134 226.951 178.156C227.214 181.177 227.74 183.936 228.529 186.301C229.318 188.666 230.37 190.636 231.817 192.213C233.263 193.79 235.104 194.446 237.34 194.446C238.392 194.446 239.444 193.658 240.364 191.95C241.285 190.242 242.074 188.272 242.863 185.907C243.652 183.542 244.309 181.177 244.967 178.681C245.624 176.185 246.15 174.083 246.545 172.244C246.413 173.952 246.545 175.791 246.939 177.63C247.334 179.469 248.123 181.177 249.043 182.622C249.964 184.068 251.016 185.119 252.331 185.907C253.514 186.695 254.829 186.695 256.276 186.17C257.722 185.644 259.037 184.199 260.352 181.966C261.667 179.732 262.851 177.105 264.034 174.346C264.692 172.506 265.349 170.93 265.875 169.222C266.007 170.667 266.138 172.112 266.401 173.426C267.059 177.761 268.242 181.309 269.689 184.068C271.267 186.827 273.239 188.14 275.869 188.14C277.053 188.14 278.236 187.483 279.42 186.432C280.603 185.25 281.787 183.805 282.97 181.966C284.154 180.126 285.206 178.156 286.258 176.054C287.31 173.952 288.099 171.85 288.888 169.879C289.677 167.908 290.334 166.2 290.86 164.755C291.386 163.31 291.649 162.259 291.781 161.733C292.044 160.682 291.912 159.894 291.123 159.631C290.466 159.369 289.94 159.369 289.808 160.026C289.677 160.551 289.019 162.128 288.099 164.624C287.178 167.12 286.126 169.747 284.811 172.506C283.496 175.265 282.181 177.761 280.866 180.126C279.551 182.36 278.236 183.542 277.184 183.542C276.264 183.542 275.606 182.228 275.343 179.469C275.08 176.71 274.949 173.295 275.08 169.091C275.212 164.886 275.343 160.157 275.738 154.902C276.132 149.647 276.527 144.523 276.921 139.399C279.551 138.611 282.05 137.954 284.68 137.297C287.31 136.64 289.94 136.246 292.57 136.115C295.2 135.983 297.83 136.246 300.46 136.772C303.09 137.297 305.72 138.48 308.35 140.056C308.876 140.45 309.007 140.056 308.876 139.136Z" fill="#3C3C3B"/>
</g>
<defs>
<filter id="filter0_d" x="0.18335" y="0" width="322.817" height="226" filterUnits="userSpaceOnUse" color-interpolation-filters="sRGB">
<feFlood flood-opacity="0" result="BackgroundImageFix"/>
<feColorMatrix in="SourceAlpha" type="matrix" values="0 0 0 0 0 0 0 0 0 0 0 0 0 0 0 0 0 0 127 0"/>
<feOffset dy="5"/>
<feGaussianBlur stdDeviation="5"/>
<feColorMatrix type="matrix" values="0 0 0 0 0 0 0 0 0 0 0 0 0 0 0 0 0 0 0.25 0"/>
<feBlend mode="normal" in2="BackgroundImageFix" result="effect1_dropShadow"/>
<feBlend mode="normal" in="SourceGraphic" in2="effect1_dropShadow" result="shape"/>
</filter>
</defs>
</svg>
