<svg width="495" height="346" viewBox="0 0 495 346" fill="none" xmlns="http://www.w3.org/2000/svg">
<path fill-rule="evenodd" clip-rule="evenodd" d="M261.979 265.678C266.097 277.162 282.338 277.162 286.454 265.678L309.969 200.083C313.004 191.614 306.727 182.696 297.731 182.696H250.703C241.706 182.696 235.43 191.614 238.465 200.083L261.979 265.678ZM257.118 202.344L273.707 245.211L290.037 202.344H257.118Z" fill="url(#paint0_linear)"/>
<path d="M422.354 0.0922923C417.046 0.0922923 412.987 4.15738 412.987 9.47327C412.987 48.8734 396.438 84.5211 370.209 109.85L343.043 6.97168C341.794 1.96849 336.486 -1.15851 331.49 0.404991C326.494 1.65579 323.372 6.97168 324.933 11.9749L353.66 121.42C353.66 122.045 353.972 122.67 354.284 122.983C331.49 139.243 303.7 148.624 273.724 148.624C240.626 148.624 210.337 137.055 186.294 117.667L214.085 11.9749C215.333 6.97168 212.523 1.96849 207.527 0.404991C202.531 -0.845806 197.535 1.96849 195.974 6.97168L171.306 102.97C148.824 78.2671 135.086 45.4337 135.086 9.47327C135.086 4.15738 131.026 0.0922923 125.718 0.0922923C120.41 0.0922923 116.351 4.15738 116.351 9.47327C116.351 96.7164 186.919 167.386 274.036 167.386C361.154 167.386 431.722 96.7164 431.722 9.47327C431.722 4.15738 427.663 0.0922923 422.354 0.0922923Z" fill="url(#paint1_radial)"/>
<path d="M198.136 286.498H195.616V255.938H200.026C202.861 255.938 204.751 256.883 205.696 258.774C206.641 260.664 207.271 263.499 207.271 267.28V277.361C207.586 283.347 204.436 286.498 198.136 286.498ZM195.616 232.94V203.64H200.656C204.121 203.64 206.011 205.531 206.011 209.626V223.803C206.011 226.639 205.696 228.844 204.751 230.419C204.121 231.995 202.546 232.94 200.341 232.94H195.616ZM171.36 308.236H204.751C215.146 308.236 222.076 304.771 226.171 298.155C229.951 291.539 232.156 287.758 232.156 274.526C232.156 266.335 231.211 260.034 229.006 254.993C226.801 249.952 223.336 247.117 217.981 245.542C226.486 243.336 230.581 236.09 230.581 224.434V212.777C230.581 202.695 228.691 195.764 224.596 191.354C220.501 186.943 213.886 184.738 205.066 184.738H171.36V308.236ZM159.39 308.236V284.292H133.56V255.938H156.87V232.625H133.56V208.681H157.815V184.738H108.36V308.236H159.39V308.236ZM43.4701 308.236L49.4551 248.692L55.7552 308.236H85.3652L98.9103 184.738H74.0252L67.4102 262.554L60.7952 184.738H37.8001L31.1851 262.554L24.2551 184.738H0L13.23 308.236H43.4701Z" fill="white"/>
<path d="M329.713 184.738H320.635V308.236H329.713V248.844H342.235V308.236H351.626V184.738H342.235V241.93H329.713V184.738Z" fill="white"/>
<path d="M404.218 308.236L391.696 184.738H377.922L365.4 308.236H374.479L384.809 200.136L395.14 308.236H404.218Z" fill="white"/>
<path d="M439.906 237.531C439.906 238.788 439.593 239.416 439.28 240.045C438.654 240.673 438.028 240.988 437.089 241.302C435.836 241.616 433.958 241.616 432.393 241.616H427.384V191.337C428.949 191.337 432.393 191.337 433.332 191.337C434.584 191.337 437.089 191.651 438.028 191.965C438.654 192.279 439.28 192.594 439.593 193.222C439.906 193.851 439.906 194.793 439.906 195.736V237.531V237.531ZM441.471 245.387C444.915 245.387 448.671 241.93 448.671 235.331V196.365C448.671 193.536 448.045 191.337 447.106 189.765C446.167 188.194 444.602 186.937 443.037 186.309C441.471 185.68 439.28 185.052 437.089 185.052C434.897 185.052 429.262 184.738 426.758 184.738H417.68V308.236H426.758V248.844H431.767C433.332 248.844 435.523 248.844 436.462 249.158C437.402 249.472 438.028 249.786 438.654 250.415C439.28 251.043 439.28 251.986 439.28 252.929V308.236H448.358V255.443C448.984 247.587 444.915 245.387 441.471 245.387Z" fill="white"/>
<path d="M460.565 184.738V191.651H473.713V308.236H482.792V191.651H495.001V184.738H460.565Z" fill="white"/>
<path d="M455.196 333.196C455.196 332.281 454.277 331.671 453.052 331.061C451.827 330.452 450.602 330.147 449.377 330.147C445.395 330.147 443.251 331.976 443.251 334.415C443.251 336.854 444.476 338.378 448.764 339.598C450.602 340.208 451.52 340.512 451.52 341.122C451.52 342.037 450.602 342.342 449.377 342.342C447.845 342.342 446.926 341.732 446.008 341.427C445.395 341.122 445.089 340.817 444.476 340.817C443.557 340.817 442.945 341.427 442.945 342.037C442.945 342.646 443.251 343.256 443.864 343.866C445.089 344.781 447.233 345.39 449.07 345.39C452.746 345.39 455.196 343.561 455.196 340.817C455.196 337.769 453.052 336.854 449.683 335.939C447.539 335.33 446.926 335.025 446.926 334.11C446.926 333.196 447.845 332.891 449.07 332.891C449.989 332.891 450.602 333.196 451.52 333.5C452.133 333.805 452.746 334.11 453.358 334.11C454.889 334.72 455.196 334.11 455.196 333.196ZM433.144 336.549H426.712C427.019 334.72 428.244 333.5 430.081 333.5C431.613 333.5 432.838 335.025 433.144 336.549ZM436.819 338.073C436.819 333.805 434.063 330.452 429.775 330.452C425.487 330.452 422.118 333.805 422.118 338.073C422.118 342.342 424.875 345.695 429.775 345.695C432.225 345.695 433.45 345.085 434.675 344.476C435.288 344.171 436.207 343.256 436.207 342.342C436.207 341.427 435.594 340.817 434.675 340.817C434.063 340.817 433.757 341.122 433.144 341.427C432.225 342.037 431.306 342.342 430.081 342.342C427.631 342.342 426.712 340.817 426.406 339.293H435.288C436.513 339.293 436.819 338.683 436.819 338.073ZM409.561 343.561C409.561 344.781 410.48 345.695 411.705 345.695C412.93 345.695 413.849 344.781 413.849 343.561V334.11H416.605C417.524 334.11 418.443 333.5 418.443 332.586C418.443 331.671 417.831 330.757 416.605 330.757H413.849V326.488C413.849 325.269 412.93 324.354 411.705 324.354C410.48 324.354 409.561 325.269 409.561 326.488V330.757H407.417C406.498 330.757 405.886 331.366 405.886 332.586C405.886 333.5 406.498 334.11 407.417 334.11H409.561V343.561ZM395.779 343.561C395.779 344.781 396.698 345.695 397.923 345.695C399.148 345.695 400.067 344.781 400.067 343.561V332.586C400.067 331.366 399.148 330.452 397.923 330.452C396.698 330.452 395.779 331.366 395.779 332.586V343.561ZM395.473 326.184C395.473 327.403 396.391 328.318 397.617 328.318C398.842 328.318 399.76 327.403 399.76 326.184C399.76 324.964 398.842 324.049 397.617 324.049C396.698 323.745 395.473 324.964 395.473 326.184ZM388.735 333.196C388.735 332.281 387.816 331.671 386.591 331.061C385.366 330.452 384.141 330.147 382.916 330.147C378.934 330.147 376.79 331.976 376.79 334.415C376.79 336.854 378.015 338.378 382.303 339.598C384.141 340.208 385.059 340.512 385.059 341.122C385.059 342.037 384.141 342.342 382.916 342.342C381.384 342.342 380.465 341.732 379.547 341.427C378.934 341.122 378.628 340.817 378.015 340.817C377.096 340.817 376.484 341.427 376.484 342.037C376.484 342.646 376.79 343.256 377.403 343.866C378.628 344.781 380.772 345.39 382.609 345.39C386.285 345.39 388.735 343.561 388.735 340.817C388.735 337.769 386.591 336.854 383.222 335.939C381.078 335.33 380.465 335.025 380.465 334.11C380.465 333.196 381.384 332.891 382.609 332.891C383.528 332.891 384.141 333.196 385.059 333.5C385.672 333.805 386.284 334.11 386.897 334.11C388.122 334.72 388.735 334.11 388.735 333.196ZM366.377 338.073C366.377 340.512 365.152 342.342 362.702 342.342C360.251 342.342 359.026 340.208 359.026 338.073C359.026 335.939 360.251 333.805 362.702 333.805C365.152 333.805 366.377 335.635 366.377 338.073ZM355.045 343.561C355.045 344.781 355.964 345.695 356.882 345.695C358.107 345.695 358.72 344.781 358.72 343.561V343.256C359.639 344.781 361.476 345.695 363.314 345.695C367.908 345.695 370.052 342.037 370.052 338.073C370.052 334.11 367.602 330.452 363.314 330.452C361.476 330.452 359.945 331.061 358.72 332.891V324.964C358.72 323.745 357.801 322.83 356.576 322.83C355.351 322.83 354.432 323.745 354.432 324.964V343.561H355.045ZM344.019 336.549H337.587C337.894 334.72 339.119 333.5 340.956 333.5C342.794 333.5 343.713 335.025 344.019 336.549ZM348.001 338.073C348.001 333.805 345.244 330.452 340.956 330.452C336.668 330.452 333.299 333.805 333.299 338.073C333.299 342.342 336.056 345.695 340.956 345.695C343.406 345.695 344.632 345.085 345.857 344.476C346.469 344.171 347.388 343.256 347.388 342.342C347.388 341.427 346.775 340.817 345.857 340.817C345.244 340.817 344.938 341.122 344.325 341.427C343.406 342.037 342.488 342.342 341.263 342.342C338.812 342.342 337.894 340.817 337.587 339.293H346.469C347.694 339.293 348.001 338.683 348.001 338.073ZM319.517 331.671C319.211 331.061 318.598 330.452 317.986 330.452C317.373 330.452 316.455 331.061 316.455 331.671L313.698 339.293L311.248 331.366C310.942 330.757 310.635 330.147 309.717 330.147C308.798 330.147 307.879 330.757 307.879 331.976C307.879 332.281 307.879 332.586 307.879 332.586L311.86 344.171C312.167 344.781 312.779 345.39 313.698 345.39C314.617 345.39 315.229 344.781 315.536 344.171L318.292 335.939L321.049 344.171C321.355 344.781 321.967 345.39 322.58 345.39C323.499 345.39 324.111 345.085 324.418 344.171L328.399 332.586C328.399 332.281 328.399 331.976 328.399 331.976C328.399 331.061 327.48 330.147 326.561 330.147C325.643 330.147 325.336 330.452 325.03 331.366L322.58 339.293L319.517 331.671ZM284.296 336.549H277.864C278.171 334.72 279.396 333.5 281.233 333.5C282.765 333.5 283.99 335.025 284.296 336.549ZM287.971 338.073C287.971 333.805 285.215 330.452 280.927 330.452C276.639 330.452 273.27 333.805 273.27 338.073C273.27 342.342 276.027 345.695 280.927 345.695C283.377 345.695 284.602 345.085 285.827 344.476C286.44 344.171 287.359 343.256 287.359 342.342C287.359 341.427 286.746 340.817 285.827 340.817C285.215 340.817 284.908 341.122 284.296 341.427C283.377 342.037 282.458 342.342 281.233 342.342C278.783 342.342 277.864 340.817 277.558 339.293H286.44C287.665 339.293 287.971 338.683 287.971 338.073ZM255.2 338.073C255.2 335.635 256.425 333.805 258.875 333.805C261.019 333.805 262.551 335.939 262.551 338.073C262.551 340.208 261.326 342.342 258.875 342.342C256.425 342.342 255.2 340.512 255.2 338.073ZM266.532 324.659C266.532 323.44 265.613 322.525 264.388 322.525C263.163 322.525 262.244 323.44 262.244 324.659V332.586C261.326 331.061 259.488 330.147 257.65 330.147C253.056 330.147 250.912 333.805 250.912 337.769C250.912 341.732 253.362 345.39 257.65 345.39C259.794 345.39 261.326 344.476 262.244 342.951V343.256C262.244 344.476 263.163 345.39 264.082 345.39C265.307 345.39 265.92 344.476 265.92 343.256V324.659H266.532ZM240.499 341.122C240.499 342.342 239.274 342.951 237.743 342.951C236.211 342.951 234.986 342.342 234.986 341.122C234.986 339.903 235.905 339.293 237.743 339.293C239.274 339.293 240.499 340.208 240.499 341.122ZM240.499 343.561C240.499 344.781 241.418 345.695 242.337 345.695C243.562 345.695 244.174 344.781 244.174 343.561V336.854C244.174 332.586 241.724 330.452 237.13 330.452C235.599 330.452 231.005 330.757 231.005 332.891C231.005 333.805 231.617 334.415 232.842 334.415C233.761 334.415 234.986 333.805 236.824 333.805C239.58 333.805 240.193 334.72 240.193 337.159V338.378C239.274 337.464 237.743 336.854 236.211 336.854C233.149 336.854 230.698 338.378 230.698 341.427C230.698 344.171 232.842 346 235.905 346C238.049 345.695 239.58 345.085 240.499 343.561ZM223.654 343.561V337.159C223.654 333.196 221.816 330.452 217.835 330.452C215.691 330.452 213.547 331.366 212.628 332.891C211.709 331.366 210.178 330.452 208.034 330.452C206.197 330.452 204.665 331.366 203.746 332.891V332.586C203.746 331.366 202.828 330.452 201.603 330.452C200.377 330.452 199.459 331.366 199.459 332.586V343.561C199.459 344.781 200.377 345.695 201.603 345.695C202.828 345.695 203.746 344.781 203.746 343.561V337.464C203.746 335.635 204.665 334.11 206.809 334.11C208.953 334.11 209.872 335.635 209.872 337.464V343.561C209.872 344.781 210.791 345.695 212.016 345.695C213.241 345.695 214.16 344.781 214.16 343.561V337.464C214.16 335.635 215.078 334.11 217.222 334.11C219.366 334.11 220.285 335.635 220.285 337.464V343.561C220.285 344.781 221.204 345.695 222.429 345.695C222.735 345.695 223.654 344.781 223.654 343.561ZM186.289 332.281C186.289 331.366 185.676 330.452 184.451 330.452C182.614 330.452 181.082 331.366 180.47 332.891V332.586C180.47 331.366 179.551 330.452 178.326 330.452C177.101 330.452 176.182 331.366 176.182 332.586V343.561C176.182 344.781 177.101 345.695 178.326 345.695C179.551 345.695 180.47 344.781 180.47 343.561V338.378C180.47 335.635 182.001 334.11 184.451 334.11C185.676 334.11 186.289 333.196 186.289 332.281ZM165.462 338.073C165.462 340.208 163.931 342.342 161.787 342.342C159.337 342.342 158.112 340.512 158.112 338.073C158.112 335.939 159.643 333.805 161.787 333.805C164.237 333.805 165.462 335.939 165.462 338.073ZM169.444 338.073C169.444 333.805 166.381 330.452 161.787 330.452C157.193 330.452 154.13 333.805 154.13 338.073C154.13 342.342 157.193 345.695 161.787 345.695C166.381 345.695 169.444 342.342 169.444 338.073ZM143.105 343.561C143.105 344.781 144.023 345.695 145.248 345.695C146.474 345.695 147.392 344.781 147.392 343.561V324.659C147.392 323.44 146.474 322.525 145.248 322.525C144.023 322.525 143.105 323.44 143.105 324.659V343.561ZM131.16 343.561C131.16 344.781 132.079 345.695 133.304 345.695C134.529 345.695 135.448 344.781 135.448 343.561V332.586C135.448 331.366 134.529 330.452 133.304 330.452C132.079 330.452 131.16 331.366 131.16 332.586V343.561ZM130.854 326.184C130.854 327.403 131.773 328.318 132.998 328.318C134.223 328.318 135.142 327.403 135.142 326.184C135.142 324.964 134.223 324.049 132.998 324.049C132.079 323.745 130.854 324.964 130.854 326.184ZM119.522 341.122C119.522 342.342 118.297 342.951 116.765 342.951C115.234 342.951 114.009 342.342 114.009 341.122C114.009 339.903 114.928 339.293 116.765 339.293C118.297 339.293 119.522 340.208 119.522 341.122ZM119.522 343.561C119.522 344.781 120.44 345.695 121.359 345.695C122.584 345.695 123.197 344.781 123.197 343.561V336.854C123.197 332.586 120.747 330.452 116.153 330.452C114.621 330.452 110.027 330.757 110.027 332.891C110.027 333.805 110.64 334.415 111.865 334.415C112.784 334.415 114.009 333.805 115.846 333.805C118.603 333.805 119.215 334.72 119.215 337.159V338.378C118.297 337.464 116.765 336.854 115.234 336.854C112.171 336.854 109.721 338.378 109.721 341.427C109.721 344.171 111.865 346 114.928 346C117.071 345.695 118.603 345.085 119.522 343.561ZM96.5512 343.561C96.5512 344.781 97.47 345.695 98.6951 345.695C99.9202 345.695 100.839 344.781 100.839 343.561V334.11H103.595C104.514 334.11 105.127 333.5 105.127 332.586C105.127 331.671 104.514 330.757 103.595 330.757H100.839V326.488C100.839 325.269 99.9202 324.354 98.6951 324.354C97.47 324.354 96.5512 325.269 96.5512 326.488V330.757H94.4073C93.4885 330.757 92.876 331.366 92.876 332.586C92.876 333.5 93.4885 334.11 94.4073 334.11H96.5512V343.561V343.561Z" fill="#009EE2"/>
<defs>
<linearGradient id="paint0_linear" x1="274.217" y1="182.696" x2="274.217" y2="274.291" gradientUnits="userSpaceOnUse">
<stop stop-color="#FF8C01"/>
<stop offset="1" stop-color="#C06800"/>
</linearGradient>
<radialGradient id="paint1_radial" cx="0" cy="0" r="1" gradientUnits="userSpaceOnUse" gradientTransform="translate(274.081 83.6756) scale(159.351 159.581)">
<stop stop-color="#FF8C00"/>
<stop offset="0.00291209" stop-color="#FF8C00"/>
<stop offset="0.2732" stop-color="#FC8A00"/>
<stop offset="0.4533" stop-color="#F38500"/>
<stop offset="0.6072" stop-color="#E47D00"/>
<stop offset="0.7464" stop-color="#CF7100"/>
<stop offset="0.8743" stop-color="#B46100"/>
<stop offset="0.9924" stop-color="#934F00"/>
<stop offset="1" stop-color="#934F00"/>
</radialGradient>
</defs>
</svg>
