<?xml version="1.0" encoding="UTF-8"?>
<svg width="233px" height="149px" viewBox="0 0 233 149" version="1.1" xmlns="http://www.w3.org/2000/svg" xmlns:xlink="http://www.w3.org/1999/xlink">
    <!-- Generator: Sketch 51.1 (57501) - http://www.bohemiancoding.com/sketch -->
    <title>Untitled</title>
    <desc>Created with Sketch.</desc>
    <defs></defs>
    <g id="Page-1" stroke="none" stroke-width="1" fill="none" fill-rule="evenodd">
        <g id="logo" transform="translate(3.000000, 0.000000)">
            <rect id="Rectangle-path" fill="#FFFFFF" fill-rule="nonzero" x="16.15" y="0.14" width="187.38" height="131.66"></rect>
            <path d="M32.47,121.59 C32.4636125,122.850918 32.3767694,124.110143 32.21,125.36 C32.0219783,126.715205 31.7243356,128.052925 31.32,129.36 C30.9064144,130.700878 30.3984796,132.010815 29.8,133.28 C29.2231714,134.514563 28.5014266,135.676069 27.65,136.74 C26.4288873,134.19232 25.8193807,131.394753 25.87,128.57 C25.8630277,127.092513 26.0071099,125.618183 26.3,124.17 C26.5420588,122.897445 26.9174625,121.65392 27.42,120.46 C27.7921926,119.533573 28.2721629,118.654186 28.85,117.84 C29.35,117.17 29.85,116.84 30.23,116.84 C31.0782398,116.825237 31.8190161,117.411161 32,118.24 C32.3456065,119.322106 32.5078434,120.454385 32.48,121.59 M14.25,90.18 C14.3126081,88.3265707 14.5945731,86.4870848 15.09,84.7 C15.5313559,83.0608807 16.1728485,81.4823386 17,80 C17.6847614,78.7255119 18.6323205,77.610937 19.78,76.73 C20.7823874,75.9537249 22.0122026,75.5285602 23.28,75.52 C24.0886782,75.4972953 24.8879623,75.6979813 25.59,76.1 C26.1741868,76.4703259 26.6583915,76.9785691 27,77.58 C27.3480401,78.1690276 27.5979692,78.8107372 27.74,79.48 C27.8814682,80.137215 27.9518727,80.8077342 27.95,81.48 C27.9791265,82.7617934 27.6314248,84.0239508 26.95,85.11 C26.2475648,86.2057394 25.341133,87.1563046 24.28,87.91 C23.1469363,88.7072849 21.8900432,89.3120803 20.56,89.7 C19.1704136,90.1282624 17.724078,90.3440327 16.27,90.34 L15.27,90.34 C14.9338481,90.3365112 14.5988726,90.2996639 14.27,90.23 M34.27,125.52 C34.5074418,124.172771 34.6312109,122.807965 34.64,121.44 C34.6380326,120.718311 34.5677187,119.99843 34.43,119.29 C34.2927351,118.596206 34.0640754,117.923678 33.75,117.29 C33.4502305,116.680589 33.020064,116.144588 32.49,115.72 C31.9367634,115.28986 31.2504002,115.066969 30.55,115.09 C29.4220814,115.095901 28.3525603,115.592334 27.62,116.45 C26.7171464,117.471039 25.9935971,118.637509 25.48,119.9 C24.8619371,121.36593 24.4058977,122.895003 24.12,124.46 C23.8105415,125.994287 23.6497971,127.554847 23.64,129.12 C23.6294776,132.412571 24.3465687,135.666799 25.74,138.65 C23.9591858,140.078726 21.7430967,140.855063 19.46,140.85 C16.2943768,140.974467 13.3954079,139.085927 12.23,136.14 C10.76,132.99 10.03,128.39 10.03,122.31 C9.99491982,118.960845 10.5431021,115.631146 11.65,112.47 C12.5171925,109.796701 14.0931221,107.408615 16.21,105.56 C16.9810325,105.910866 17.7896011,106.172561 18.62,106.34 C19.5145805,106.52585 20.4263403,106.616355 21.34,106.61 C22.2084471,106.619484 23.0556935,106.341756 23.75,105.82 C24.3951777,105.388096 24.8691604,104.744329 25.09,104 C25.2652933,103.392761 25.105436,102.738107 24.67,102.28 C23.8920591,101.644312 22.8859798,101.358412 21.89,101.49 C20.3686274,101.498526 18.8552226,101.710403 17.39,102.12 C16.1935019,101.021181 15.3598788,99.5841399 15,98 C14.5426788,96.1661726 14.2812153,94.2889993 14.22,92.4 C14.5340035,92.3997881 14.8477908,92.4164789 15.16,92.45 C15.4729526,92.4718438 15.7870474,92.4718438 16.1,92.45 C17.9442021,92.44612 19.7787432,92.1835618 21.55,91.67 C23.2895655,91.1741075 24.9471471,90.4261743 26.47,89.45 C27.8999519,88.5703975 29.1242423,87.393851 30.06,86 C30.969019,84.5878581 31.4420293,82.9392781 31.42,81.26 C31.4749129,79.1341675 30.6199703,77.0859434 29.07,75.63 C27.3790592,74.0729457 25.1362645,73.2557476 22.84,73.36 C18.9322897,73.2070976 15.1306497,74.6512154 12.31,77.36 C9.56059829,80.1148703 7.77819727,83.6866897 7.23,87.54 C5.15802858,85.6401143 4.05545751,82.9057381 4.23,80.1 C4.19478862,78.4785529 4.38322841,76.8599896 4.79,75.29 C5.06732986,74.106046 5.47306607,72.9559012 6,71.86 C6.4772056,70.9010499 7.09390606,70.0181235 7.83,69.24 C8.18335046,69.990289 9.06198399,70.332956 9.83,70.02 C10.7242438,69.8227206 11.5042509,69.2799507 12,68.51 C12.1490974,68.1926129 12.2534259,67.8560693 12.31,67.51 C12.3799315,67.1466677 12.3799315,66.7733323 12.31,66.41 C12.2438651,66.07371 12.0804382,65.7642421 11.84,65.52 C11.5367029,65.2560316 11.1411719,65.1229893 10.74,65.15 C9.75130206,65.1918618 8.80036452,65.5414712 8.02,66.15 C6.92653632,66.9695949 5.97114489,67.9587457 5.19,69.08 C4.2120385,70.4764785 3.45327654,72.0142361 2.94,73.64 C2.32069403,75.578682 2.02012025,77.6050221 2.05,79.64 C1.9840944,81.7969096 2.45122432,83.9367768 3.41,85.87 C4.223779,87.5376712 5.46185872,88.9619802 7,90 C7.02106105,90.1927598 7.02106105,90.3872402 7,90.58 C6.9667102,90.768174 6.94997949,90.958904 6.95,91.15 C6.9551644,93.6209298 7.53005909,96.0573883 8.63,98.27 C9.66310193,100.483179 11.2469694,102.394149 13.23,103.82 C11.6433906,104.631629 10.1651296,105.639534 8.83,106.82 C7.41546054,108.038868 6.17399159,109.445194 5.14,111 C4.05203678,112.686474 3.20706835,114.5178 2.63,116.44 C1.95975048,118.613338 1.62259236,120.875669 1.63,123.15 C1.59834488,125.953648 2.07959167,128.739457 3.05,131.37 C3.91330398,133.716767 5.20902948,135.880832 6.87,137.75 C8.46127344,139.539483 10.4007988,140.98562 12.57,142 C14.7631427,143.015332 17.153273,143.534332 19.57,143.52 C20.9205775,143.531713 22.258858,143.262694 23.5,142.73 C24.7347939,142.199808 25.8553758,141.435775 26.8,140.48 C28.54,143.14 30.32,144.48 32.14,144.48 C32.5374819,144.538434 32.9313426,144.35332 33.14,144.01 C33.3090892,143.705414 33.3822826,143.356874 33.35,143.01 C33.3013944,142.635826 33.1370685,142.286196 32.88,142.01 C32.6795295,141.741063 32.3740753,141.570154 32.04,141.54 C30.92,141.54 29.77,140.596667 28.59,138.71 C29.5792046,137.430044 30.4526437,136.064668 31.2,134.63 C31.9783094,133.143902 32.630596,131.59514 33.15,130 C33.6525494,128.515982 34.0370789,126.994583 34.3,125.45 M119.3,105.66 C119.506667,101.26 119.803333,96.9266667 120.19,92.66 C120.576667,88.3933333 121.05,84.5533333 121.61,81.14 C122.007532,78.3814741 122.626192,75.6593722 123.46,73 C124.126667,70.94 124.896667,69.91 125.77,69.91 C126.53,69.91 127.04,70.45 127.28,71.53 C127.539142,72.9658184 127.576242,74.432919 127.39,75.88 C127.174476,78.0069332 126.840625,80.1202076 126.39,82.21 C125.87,84.6166667 125.223333,87.1466667 124.45,89.8 C123.69,92.46 122.86,95.16 121.99,97.92 C121.12,100.68 120.23,103.28 119.32,105.72 M93.32,105.72 C93.52,101.32 93.8166667,96.9866667 94.21,92.72 C94.6033333,88.4533333 95.0733333,84.6133333 95.62,81.2 C96.0305131,78.422453 96.6557192,75.6809073 97.49,73 C98.1566667,70.94 98.9266667,69.91 99.8,69.91 C100.57,69.91 101.07,70.45 101.32,71.53 C101.569977,72.9669094 101.603683,74.4331215 101.42,75.88 C101.214291,78.0081932 100.880351,80.1220346 100.42,82.21 C99.9,84.62 99.25,87.15 98.49,89.8 C97.73,92.45 96.9,95.16 96.03,97.92 C95.16,100.68 94.26,103.28 93.36,105.72 M46.82,120 C46.8827192,117.845833 47.0562822,115.696322 47.34,113.56 C47.62,111.44 47.95,109.56 48.34,107.86 C48.63736,106.455908 49.0762697,105.085572 49.65,103.77 C50.14,102.77 50.65,102.2 51.22,102.2 C51.57,102.2 51.8,102.61 51.9,103.41 C52.0204351,104.406374 52.0204351,105.413626 51.9,106.41 C51.76,107.64 51.55,108.96 51.27,110.41 C51.0002708,111.813951 50.6327078,113.197324 50.17,114.55 C49.768108,115.761082 49.2629173,116.935399 48.66,118.06 C48.2725553,118.888601 47.6269568,119.569287 46.82,120 M225.66,97.23 C225.666733,96.7731962 225.556579,96.3222542 225.34,95.92 C223.631786,94.7101358 221.717072,93.8222504 219.69,93.3 C217.728909,92.8126791 215.709541,92.6006454 213.69,92.67 C211.649318,92.7437782 209.618637,92.9913406 207.62,93.41 C205.634155,93.8174139 203.674081,94.3416584 201.75,94.98 C201.963333,92.5266667 202.193333,90.1933333 202.44,87.98 C202.68,85.79 202.89,83.81 203.06,82.07 C203.23,80.33 203.38,78.91 203.48,77.83 C203.58,76.75 203.64,76.06 203.64,75.83 C203.64,75.27 203.27,74.92 202.54,74.83 C201.726004,74.6896706 200.893996,74.6896706 200.08,74.83 C199.19023,74.9648299 198.324616,75.2275454 197.51,75.61 C196.71,76 196.27,76.43 196.2,76.92 C195.65,79.16 195.11,82.12 194.58,85.82 C194.05,89.52 193.58,93.54 193.27,97.82 C192.303333,98.1 191.413333,98.33 190.6,98.51 C189.861088,98.6747098 189.107003,98.7618486 188.35,98.77 C186.308819,98.9199772 184.259756,98.6160328 182.35,97.88 C181.074013,97.3443424 179.918018,96.5589455 178.95,95.57 C178.255346,94.8630043 177.705095,94.0274375 177.33,93.11 C177.05,92.34 176.87,91.89 176.8,91.75 C176.73,91.61 176.49,91.45 176.07,91.75 C175.649298,91.9900347 175.437459,92.4788934 175.55,92.95 C175.636657,93.5492464 175.811906,94.1322838 176.07,94.68 C176.520227,95.6967207 177.158023,96.6194894 177.95,97.4 C179.017103,98.4554952 180.28099,99.2912916 181.67,99.86 C183.57137,100.633185 185.620644,100.974731 187.67,100.86 C189.468204,100.854388 191.25986,100.643013 193.01,100.23 C192.73,104.35 192.59,108.486667 192.59,112.64 C192.59,113.81 192.59,114.93 192.66,116.03 L192.44,116.77 C191.91,118.52 191.27,120.35 190.5,122.27 C189.800929,124.043287 188.996152,125.773058 188.09,127.45 C187.25,128.99 186.45,129.76 185.68,129.76 C185.33,129.76 185.11,129.13 185,127.87 C184.895528,126.408985 184.878831,124.943016 184.95,123.48 C185.02,121.8 185.12,120.12 185.27,118.48 C185.42,116.84 185.54,115.55 185.68,114.71 C185.771887,114.383739 185.72954,114.034283 185.562384,113.739413 C185.395228,113.444543 185.117135,113.228727 184.79,113.14 C183.986173,112.853687 183.129951,112.744527 182.28,112.82 C181.382993,112.884101 180.500251,113.079517 179.66,113.4 C178.86,113.71 178.46,114.01 178.46,114.29 C178.38014,114.993667 178.256568,115.691683 178.09,116.38 C177.85,117.57 177.52,119 177.09,120.68 C176.66,122.36 176.2,124.13 175.67,126.02 C175.14,127.91 174.67,129.65 174.16,131.25 C173.760892,132.608532 173.286833,133.943911 172.74,135.25 C172.29,136.3 171.92,136.82 171.64,136.82 C171.36,136.82 171.01,136.3 170.8,135.25 C170.565269,133.885752 170.44485,132.504287 170.44,131.12 C170.44,129.41 170.44,127.52 170.49,125.46 C170.54,123.4 170.66,121.36 170.8,119.34 C170.94,117.32 171.1,115.43 171.28,113.68 C171.396821,112.310776 171.587095,110.948815 171.85,109.6 C171.916667,109.04 171.583333,108.62 170.85,108.34 C170.024047,108.046656 169.156315,107.887965 168.28,107.87 C167.365674,107.830529 166.450291,107.918029 165.56,108.13 C164.72,108.34 164.27,108.59 164.2,108.87 C163.993333,110.33 163.783333,112.09 163.57,114.15 C163.57,114.44 163.57,114.74 163.5,115.02 C163.43,115.3 163.21,115.82 163.05,116.25 C162.7,117.19 162.3,118.17 161.84,119.18 C161.39723,120.17576 160.854443,121.123961 160.22,122.01 C159.638423,122.827315 158.93334,123.549266 158.13,124.15 C158.537994,122.85391 158.766782,121.508102 158.81,120.15 C158.852545,118.932384 158.710949,117.715326 158.39,116.54 C158.129421,115.567098 157.642899,114.669431 156.97,113.92 C156.315854,113.241545 155.401478,112.877252 154.46,112.92 C153.651356,112.93138 152.929148,113.428638 152.63,114.18 C152.127831,115.143965 151.789866,116.184898 151.63,117.26 C151.417877,118.541965 151.367483,119.845484 151.48,121.14 C151.553108,122.376244 151.816192,123.593852 152.26,124.75 C152.017598,126.017881 151.666297,127.262493 151.21,128.47 C150.8,129.55 150.31,130.09 149.75,130.09 C149.19,130.09 148.61,129.55 148.23,128.47 C147.804279,127.173938 147.538969,125.830595 147.44,124.47 C147.298899,122.727054 147.265503,120.977061 147.34,119.23 C147.399599,117.479302 147.556508,115.733273 147.81,114 C147.995058,112.623254 148.365064,111.277779 148.91,110 C149.4,108.92 149.99,108.38 150.69,108.38 C151.103445,108.375475 151.477041,108.625863 151.63,109.01 C151.842884,109.437534 151.984739,109.896876 152.05,110.37 C152.121424,110.856778 152.158183,111.348014 152.16,111.84 C152.16,112.33 152.16,112.61 152.26,112.67 C152.36,112.73 152.52,112.82 152.84,112.67 C153.176481,112.521098 153.492408,112.329526 153.78,112.1 C154.125717,111.813787 154.425825,111.476587 154.67,111.1 C154.94604,110.700409 155.092654,110.225659 155.09,109.74 C154.99359,108.798223 154.498537,107.942801 153.73,107.39 C152.771421,106.563215 151.534921,106.130797 150.27,106.18 C148.348885,106.116529 146.47673,106.793083 145.04,108.07 C143.606361,109.376498 142.508705,111.009261 141.84,112.83 C141.09913,114.808939 140.693564,116.897603 140.64,119.01 L140.64,119.11 C140.42,119.83 140.2,120.56 139.96,121.37 C139.36,123.32 138.72,125.43 138.02,127.7 C137.32,129.97 136.62,132.05 135.93,133.93 C135.349616,135.535255 134.681954,137.107598 133.93,138.64 C133.303333,139.9 132.813333,140.53 132.46,140.53 C132.18,140.53 132.15,139.67 132.36,137.96 C132.57,136.25 132.81,134.09 133.09,131.47 C133.37,128.85 133.6,126.04 133.77,123.04 C133.944183,120.231368 133.910759,117.413709 133.67,114.61 C133.518038,112.355215 132.930541,110.15125 131.94,108.12 C131.153206,106.481972 129.465468,105.470903 127.65,105.55 C126.544304,105.663593 125.554091,106.284323 124.97,107.23 C123.97276,108.572361 123.146412,110.033585 122.51,111.58 C121.696349,113.489615 120.99842,115.446489 120.42,117.44 C119.793333,119.566667 119.27,121.643333 118.85,123.67 C118.783333,121.723333 118.783333,119.723333 118.85,117.67 C118.916667,115.616667 118.966667,113.47 119,111.23 C120.053333,108.79 121.17,106.033333 122.35,102.96 C123.53,99.8866667 124.63,96.76 125.65,93.58 C126.656667,90.4133333 127.513333,87.29 128.22,84.21 C128.856204,81.5278105 129.277539,78.7991646 129.48,76.05 C129.67173,74.1026669 129.436253,72.1369497 128.79,70.29 C128.314871,68.898702 126.967282,67.9975789 125.5,68.09 C123.12,68.09 121.1,69.43 119.42,72.09 C117.530133,75.31597 116.137797,78.8086099 115.29,82.45 C114.140869,87.0268338 113.335294,91.6831269 112.88,96.38 C112.346667,101.44 112.05,106.363333 111.99,111.15 C111.99,113.08 111.99,114.92 111.99,116.7 C111.99,116.86 111.91,117 111.86,117.17 C111.38,119.05 110.8,121.08 110.14,123.24 C109.48,125.4 108.79,127.34 108.14,129.05 C107.49,130.76 106.82,131.62 106.26,131.62 C105,131.62 103.89,130.62 102.91,128.53 C101.824064,126.198773 100.879031,123.804468 100.08,121.36 C102.072942,119.749509 103.765632,117.799531 105.08,115.6 C106.017101,114.056325 106.588361,112.318601 106.75,110.52 C106.883047,109.200607 106.44645,107.887177 105.55,106.91 C104.524245,105.939283 103.138881,105.442437 101.73,105.54 C100.626404,105.652094 99.6386436,106.273607 99.06,107.22 C98.0554186,108.557571 97.2285242,110.019762 96.6,111.57 C95.7828884,113.479363 95.0816166,115.436245 94.5,117.43 C93.8733333,119.556667 93.35,121.633333 92.93,123.66 C92.8633333,121.713333 92.8633333,119.713333 92.93,117.66 C92.9966667,115.606667 93.05,113.46 93.09,111.22 C94.13,108.78 95.2466667,106.023333 96.44,102.95 C97.6333333,99.8766667 98.7333333,96.75 99.74,93.57 C100.753333,90.4033333 101.606667,87.28 102.3,84.2 C102.941108,81.5187713 103.362504,78.7897276 103.56,76.04 C103.75429,74.0934008 103.522245,72.1278416 102.88,70.28 C102.398156,68.8893518 101.049,67.9899145 99.58,68.08 C97.2,68.08 95.18,69.42 93.5,72.08 C91.6101328,75.30597 90.2177966,78.7986099 89.37,82.44 C88.2473309,86.9631181 87.4552399,91.5619249 87,96.2 C86.48,101.26 86.1833333,106.183333 86.11,110.97 C86.11,112.75 86.11,114.45 86.11,116.1 C85.75,117.17 85.3,118.41 84.74,119.87 C84.1133333,121.51 83.38,123.236667 82.54,125.05 C81.7618846,126.764853 80.8871469,128.4342 79.92,130.05 C79.1258527,131.409438 78.1797823,132.67422 77.1,133.82 C76.3724046,134.711481 75.3080471,135.261761 74.16,135.34 C73.05,135.34 72.16,134.52 71.65,132.88 C71.0458258,130.893586 70.7095224,128.835409 70.65,126.76 C70.5125032,124.093782 70.5492481,121.42143 70.76,118.76 C70.9264422,116.075114 71.2604258,113.403245 71.76,110.76 C72.1420666,108.655431 72.7557999,106.599592 73.59,104.63 C74.32,102.99 75.11,102.17 75.94,102.17 C76.3120663,102.189303 76.6657325,102.337843 76.94,102.59 C77.3468705,102.96641 77.6205827,103.464707 77.72,104.01 C77.9070333,104.86713 77.9442496,105.750172 77.83,106.62 C77.6418798,107.99612 77.2719848,109.341193 76.73,110.62 C76.2659525,111.550823 76.1730114,112.62322 76.47,113.62 C76.686683,114.351304 77.197358,114.959768 77.88,115.3 C78.5476115,115.558183 79.3005909,115.460296 79.88,115.04 C80.767927,114.347662 81.3810458,113.362419 81.61,112.26 C82.0021575,110.875748 82.1676314,109.437138 82.1,108 C82.0504899,106.671549 81.769613,105.361918 81.27,104.13 C80.7820037,103.007625 79.9971857,102.039568 79,101.33 C77.9132849,100.574987 76.6126271,100.189347 75.29,100.23 C72.7269988,100.194545 70.2630026,101.218497 68.48,103.06 C66.5373613,105.048571 65.0527318,107.43763 64.13,110.06 C63.3862344,112.143702 62.8764364,114.303636 62.61,116.5 C62.23,117.5 61.8,118.57 61.26,119.85 C60.5933333,121.49 59.8066667,123.216667 58.9,125.03 C58.0850438,126.754446 57.1597928,128.424574 56.13,130.03 C55.264263,131.387887 54.258786,132.651436 53.13,133.8 C52.4113138,134.670704 51.3743779,135.217975 50.25,135.32 C49.5723246,135.292758 48.9580761,134.913593 48.63,134.32 C48.0991417,133.431031 47.7269294,132.456511 47.53,131.44 C47.2443846,130.042428 47.0671905,128.624875 47,127.2 C46.9,125.633333 46.85,123.966667 46.85,122.2 C48.4070976,122.263187 49.9276917,121.718068 51.09,120.68 C52.4214737,119.558508 53.5365016,118.202851 54.38,116.68 C55.3094931,115.025756 55.9996979,113.248058 56.43,111.4 C56.8690742,109.652063 56.9742488,107.836952 56.74,106.05 C56.5427374,104.525188 55.9070049,103.090447 54.91,101.92 C53.8034407,100.74626 52.2293482,100.129832 50.62,100.24 C48.1451052,100.194322 45.7726947,101.227233 44.12,103.07 C42.3092344,105.096073 40.9462282,107.481334 40.12,110.07 C38.2368276,116.01183 38.091105,122.368112 39.7,128.39 C40.4012804,130.982346 41.6914313,133.377851 43.47,135.39 C45.120998,137.254943 47.5099216,138.297582 50,138.24 C51.4262604,138.201599 52.7946246,137.667689 53.87,136.73 C55.2129534,135.62334 56.394413,134.334169 57.38,132.9 C58.5154502,131.293902 59.5187405,129.598341 60.38,127.83 C61.17,126.23 61.86,124.72 62.48,123.28 C62.6004871,125.012649 62.8987205,126.728329 63.37,128.4 C64.0724511,131.002349 65.3815456,133.401213 67.19,135.4 C68.9419349,137.285545 71.4279323,138.314989 74,138.22 C75.4113323,138.181782 76.7639832,137.647096 77.82,136.71 C79.1164948,135.602548 80.2449792,134.31237 81.17,132.88 C82.2299337,131.257774 83.1755566,129.563673 84,127.81 C84.8733333,125.956667 85.6233333,124.21 86.25,122.57 L86.39,122.17 C86.39,122.74 86.46,123.33 86.51,123.88 C86.6547052,126.711222 87.0937377,129.51969 87.82,132.26 C87.88,132.47 88.23,132.62 88.82,132.73 C89.4810836,132.83561 90.1516789,132.86914 90.82,132.83 C91.45714,132.807107 92.0903456,132.72 92.71,132.57 C93.27,132.43 93.54,132.29 93.54,132.15 L93.34,130.27 C93.5388428,128.021708 93.9404765,125.795988 94.54,123.62 C95.2066667,121.073333 95.9566667,118.646667 96.79,116.34 C97.5026657,114.335851 98.3409957,112.378635 99.3,110.48 C100.14,108.87 100.84,108.07 101.4,108.07 C101.68,108.07 101.73,108.56 101.56,109.53 C101.320352,110.776954 100.986051,112.003837 100.56,113.2 C99.9502838,114.860794 99.249214,116.486608 98.46,118.07 C97.6054992,119.82101 96.6436682,121.517573 95.58,123.15 C94.9917489,123.925862 94.7994252,124.931863 95.06,125.87 C95.5466667,127.47 96.0866667,129.006667 96.68,130.48 C97.2287963,131.858621 97.8771747,133.195483 98.62,134.48 C99.2075106,135.528158 99.9491158,136.482132 100.82,137.31 C101.467267,137.937175 102.328852,138.294679 103.23,138.31 C104.358966,138.230503 105.394967,137.65576 106.06,136.74 C107.07271,135.515651 107.932385,134.17241 108.62,132.74 C109.467298,131.026251 110.202184,129.259185 110.82,127.45 C111.42,125.71 111.94,124.05 112.4,122.45 C112.4,122.91 112.46,123.39 112.49,123.84 C112.639739,126.670699 113.078691,129.478651 113.8,132.22 C113.87,132.43 114.22,132.58 114.8,132.69 C116.088613,132.879953 117.401465,132.825675 118.67,132.53 C119.23,132.39 119.51,132.25 119.51,132.11 L119.3,130.23 C119.502764,127.981488 119.907735,125.755821 120.51,123.58 C121.176667,121.033333 121.926667,118.606667 122.76,116.3 C123.468369,114.294172 124.306815,112.336683 125.27,110.44 C126.11,108.83 126.81,108.03 127.37,108.03 C127.93,108.03 128.03,108.9 127.89,110.64 C127.75,112.38 127.5,114.57 127.16,117.19 C126.82,119.81 126.48,122.63 126.16,125.67 C125.854603,128.485659 125.751005,131.319558 125.85,134.15 C125.874182,136.395943 126.318497,138.617521 127.16,140.7 C127.752624,142.314479 129.310901,143.369437 131.03,143.32 C132.03,143.32 133.03,142.67 134.03,141.38 C135.17758,139.857257 136.144079,138.206154 136.91,136.46 C137.81,134.46 138.67,132.3 139.47,129.96 C140.18,127.88 140.8,125.9 141.35,123.96 C141.44,124.28 141.51,124.6 141.62,124.96 C142.185339,126.782264 143.219935,128.423823 144.62,129.72 C146.034862,131.000188 147.893154,131.678213 149.8,131.61 C151.409781,131.656729 152.984815,131.136436 154.25,130.14 C155.475744,129.163565 156.495452,127.95351 157.25,126.58 C158.555265,126.129379 159.725021,125.355276 160.65,124.33 C161.633415,123.290596 162.477186,122.12747 163.16,120.87 C163.219301,120.769858 163.272725,120.666349 163.32,120.56 C163.255064,122.848807 163.325186,125.139451 163.53,127.42 C163.700229,129.518038 164.102691,131.590715 164.73,133.6 C165.231884,135.25088 166.092403,136.770445 167.25,138.05 C168.348464,139.210043 169.893546,139.840465 171.49,139.78 C172.33,139.78 173.09,139.13 173.79,137.84 C174.570236,136.363023 175.219391,134.820443 175.73,133.23 C176.32,131.45 176.85,129.6 177.3,127.68 C177.75,125.76 178.15,124.14 178.5,122.81 C178.365282,124.19811 178.47357,125.59908 178.82,126.95 C179.128157,128.285836 179.6589,129.560296 180.39,130.72 C181.008477,131.719403 181.850597,132.561523 182.85,133.18 C183.753328,133.743078 184.877035,133.821737 185.85,133.39 C187.204062,132.668941 188.288159,131.52871 188.94,130.14 C190.004981,128.289882 190.934095,126.364811 191.72,124.38 C192.26,123.02 192.72,121.74 193.15,120.48 C193.26,121.57 193.39,122.64 193.55,123.65 C193.921246,126.460071 194.770139,129.185999 196.06,131.71 C197.21,133.81 198.77,134.85 200.72,134.85 C201.770929,134.780173 202.751909,134.298667 203.45,133.51 C204.458193,132.471046 205.353211,131.327971 206.12,130.1 C207.028407,128.663839 207.849882,127.1745 208.58,125.64 C209.34,124.026667 210.006667,122.473333 210.58,120.98 C211.17,119.48 211.66,118.17 212.04,117.05 C212.322806,116.301061 212.550087,115.532316 212.72,114.75 C212.93,113.91 212.78,113.37 212.25,113.13 C211.72,112.89 211.4,112.97 211.25,113.39 C211.1,113.81 210.69,114.96 209.99,116.84 C209.29,118.72 208.46,120.73 207.48,122.84 C206.594793,124.81764 205.593033,126.741019 204.48,128.6 C203.48,130.31 202.48,131.17 201.65,131.17 C200.96,131.17 200.5,130.17 200.29,128.08 C200.063079,125.449838 199.992955,122.808498 200.08,120.17 C200.146667,116.963333 200.323333,113.37 200.61,109.39 C200.896667,105.41 201.21,101.466667 201.55,97.56 C203.5,97 205.48,96.47 207.47,95.98 C209.438706,95.5011464 211.447061,95.2032405 213.47,95.09 C215.482372,94.9878594 217.499462,95.1492266 219.47,95.57 C221.602788,96.044975 223.634311,96.894829 225.47,98.08 C225.75,98.22 225.86,97.92 225.79,97.19" id="Shape" stroke="#FFFFFF" stroke-width="8"></path>
            <g id="Group" transform="translate(20.000000, 39.000000)" fill="#3C3C3B" fill-rule="nonzero">
                <polygon id="Shape" points="0.7 1 8.27 1 8.27 25.44 20.91 25.44 20.91 31.93 0.7 31.93"></polygon>
                <path d="M39,0.47 C48.34,0.47 55.18,7.39 55.18,16.26 C55.276519,20.5809765 53.603191,24.7537475 50.5479813,27.8108454 C47.4927716,30.8679434 43.3210353,32.5438492 39,32.45 C34.6712287,32.5548355 30.488023,30.8841292 27.4224466,27.8261082 C24.3568702,24.7680871 22.6758466,20.5890168 22.77,16.26 C22.77,7.39 29.61,0.47 39,0.47 Z M39,25.47 C43.63,25.47 47.35,21.47 47.35,16.21 C47.35,11.15 43.63,7.34 39,7.34 C34.37,7.34 30.6,11.2 30.6,16.26 C30.6,21.54 34.33,25.52 39,25.52 L39,25.47 Z" id="Shape"></path>
                <path d="M60.29,1 L71.29,1 C81.02,1 87.29,6.67 87.29,16.41 C87.29,26.15 81.05,31.95 71.29,31.95 L60.29,31.95 L60.29,1 Z M71,25.44 C76.24,25.44 79.44,22.32 79.44,16.44 C79.44,10.56 76.11,7.53 71,7.53 L67.87,7.53 L67.87,25.53 L71,25.44 Z" id="Shape"></path>
                <polygon id="Shape" points="92.58 1 112 1 112 7.5 100.15 7.5 100.15 13.1 109.59 13.1 109.59 19.59 100.15 19.59 100.15 25.44 112.57 25.44 112.57 31.93 92.57 31.93"></polygon>
                <path d="M132.14,0.47 C139.8,0.47 143.74,4.84 143.74,4.84 L140.23,10.55 C140.23,10.55 136.77,7.39 132.48,7.39 C126.55,7.39 123.74,11.76 123.74,16.22 C123.74,20.68 126.74,25.52 132.48,25.52 C137.16,25.52 140.71,21.71 140.71,21.71 L144.6,27.25 C141.342571,30.6290364 136.833081,32.5110065 132.14,32.45 C122.44,32.45 115.91,25.57 115.91,16.39 C115.91,7.39 122.83,0.47 132.14,0.47 Z" id="Shape"></path>
                <path d="M163.13,0.47 C172.47,0.47 179.31,7.39 179.31,16.26 C179.456125,22.1382583 176.40364,27.6336219 171.335878,30.6157448 C166.268115,33.5978676 159.981885,33.5978676 154.914122,30.6157448 C149.84636,27.6336219 146.793875,22.1382583 146.94,16.26 C146.94,7.39 153.78,0.47 163.13,0.47 Z M163.13,25.47 C167.76,25.47 171.48,21.47 171.48,16.21 C171.48,11.15 167.76,7.34 163.13,7.34 C158.5,7.34 154.77,11.15 154.77,16.21 C154.77,21.54 158.49,25.52 163.13,25.52 L163.13,25.47 Z" id="Shape"></path>
            </g>
            <rect id="Rectangle-path" fill="#E30613" fill-rule="nonzero" x="21.15" y="5.14" width="26.28" height="30.16"></rect>
            <rect id="Rectangle-path" fill="#E30613" fill-rule="nonzero" x="21.15" y="74.76" width="26.28" height="30.16"></rect>
            <rect id="Rectangle-path" fill="#E30613" fill-rule="nonzero" x="51.37" y="5.14" width="26.28" height="30.16"></rect>
            <rect id="Rectangle-path" fill="#E30613" fill-rule="nonzero" x="51.37" y="74.76" width="26.28" height="30.16"></rect>
            <rect id="Rectangle-path" fill="#E30613" fill-rule="nonzero" x="81.59" y="5.14" width="26.28" height="30.16"></rect>
            <rect id="Rectangle-path" fill="#E30613" fill-rule="nonzero" x="81.59" y="74.76" width="26.28" height="30.16"></rect>
            <rect id="Rectangle-path" fill="#E30613" fill-rule="nonzero" x="111.81" y="5.14" width="26.28" height="30.16"></rect>
            <rect id="Rectangle-path" fill="#E30613" fill-rule="nonzero" x="111.81" y="74.76" width="26.28" height="30.16"></rect>
            <rect id="Rectangle-path" fill="#E30613" fill-rule="nonzero" x="142.03" y="5.14" width="26.28" height="30.16"></rect>
            <rect id="Rectangle-path" fill="#E30613" fill-rule="nonzero" x="142.03" y="74.76" width="26.28" height="30.16"></rect>
            <rect id="Rectangle-path" fill="#E30613" fill-rule="nonzero" x="172.25" y="5.14" width="26.28" height="30.16"></rect>
            <rect id="Rectangle-path" fill="#E30613" fill-rule="nonzero" x="172.25" y="74.76" width="26.28" height="30.16"></rect>
            <path d="M31.55,120.57 C31.5447435,121.831303 31.4545393,123.09082 31.28,124.34 C31.0971946,125.69614 30.7994564,127.03429 30.39,128.34 C29.9825474,129.684854 29.4778845,130.998314 28.88,132.27 C28.2969706,133.498078 27.5756327,134.655574 26.73,135.72 C25.5254216,133.179049 24.9329217,130.391217 25,127.58 C24.9942113,126.106366 25.1349028,124.635805 25.42,123.19 C25.6700456,121.916174 26.0451971,120.670135 26.54,119.47 C26.913457,118.542204 27.396914,117.662581 27.98,116.85 C28.47,116.19 28.98,115.85 29.36,115.85 C30.1938081,115.832075 30.927006,116.398637 31.12,117.21 C31.4670871,118.291766 31.6293601,119.424296 31.6,120.56 M13.33,89.15 C13.3957074,87.2975581 13.6742031,85.4588152 14.16,83.67 C14.6008675,82.0433156 15.2354065,80.4754334 16.05,79 C16.7318546,77.7264842 17.6759411,76.611985 18.82,75.73 C19.8238182,74.9480684 21.0576075,74.51923 22.33,74.51 C23.1386782,74.4872953 23.9379623,74.6879813 24.64,75.09 C25.2403934,75.4564911 25.7417111,75.9646761 26.1,76.57 C26.4448709,77.1595015 26.6914316,77.8012349 26.83,78.47 C26.97034,79.1273946 27.0407319,79.7977928 27.04,80.47 C27.0317521,81.7209901 26.6713246,82.944364 26,84 C25.297337,85.0927622 24.3908357,86.0400052 23.33,86.79 C22.1963175,87.5886121 20.9397636,88.1966221 19.61,88.59 C18.2185259,89.0087643 16.7731217,89.2210265 15.32,89.22 L14.32,89.22 C13.9838481,89.2165112 13.6488726,89.1796639 13.32,89.11 M33.37,124.4 C33.6029012,123.052169 33.7266363,121.68774 33.74,120.32 C33.7380326,119.598311 33.6677187,118.87843 33.53,118.17 C33.3927351,117.476206 33.1640754,116.803678 32.85,116.17 C32.5469935,115.562656 32.117346,115.027301 31.59,114.6 C31.0367634,114.16986 30.3504002,113.946969 29.65,113.97 C28.5226736,113.978544 27.4541961,114.474492 26.72,115.33 C25.8113817,116.352374 25.0842403,117.522564 24.57,118.79 C23.959591,120.255216 23.503788,121.780145 23.21,123.34 C22.9090671,124.875383 22.7517215,126.435447 22.74,128 C22.7276432,129.727033 22.9223658,131.449321 23.32,133.13 C23.6702099,134.646129 24.1797075,136.12099 24.84,137.53 C23.0565131,138.960883 20.836525,139.737349 18.55,139.73 C15.3856963,139.84575 12.4939457,137.948665 11.34,135 C9.87333333,131.86 9.14,127.253333 9.14,121.18 C9.10660124,117.82771 9.65471975,114.495014 10.76,111.33 C11.6235358,108.654943 13.2000677,106.265944 15.32,104.42 C16.0889647,104.769638 16.8937046,105.034531 17.72,105.21 C18.6190622,105.387424 19.5336095,105.474524 20.45,105.47 C21.3190296,105.483291 22.1674778,105.205169 22.86,104.68 C23.4720816,104.266693 23.9293952,103.661632 24.16,102.96 C24.3438806,102.351547 24.1873859,101.691216 23.75,101.23 C22.9720591,100.594312 21.9659798,100.308412 20.97,100.44 C19.4485666,100.447685 17.9350501,100.659577 16.47,101.07 C15.2931759,99.980544 14.4709456,98.5625452 14.11,97 C13.6520106,95.1663022 13.3905372,93.2890573 13.33,91.4 C13.6440035,91.3997881 13.9577908,91.4164789 14.27,91.45 C14.5815213,91.4921932 14.8956423,91.5122435 15.21,91.51 C17.0550197,91.5075709 18.890229,91.2415497 20.66,90.72 C22.3967473,90.2210404 24.0534354,89.4768777 25.58,88.51 C27.0019698,87.5971088 28.2151082,86.3941936 29.14,84.98 C30.0457752,83.5663894 30.5185003,81.9188036 30.5,80.24 C30.5472289,78.1135935 29.6893872,76.0671322 28.14,74.61 C26.4502411,73.0510051 24.206608,72.2335015 21.91,72.34 C18.005331,72.1875177 14.206946,73.6317706 11.39,76.34 C8.64059829,79.0948703 6.85819727,82.6666897 6.31,86.52 C4.23719659,84.6249019 3.13415358,81.8930321 3.31,79.09 C3.27984306,77.4654986 3.46819633,75.8443151 3.87,74.27 C4.18129028,73.1125987 4.6101905,71.9900864 5.15,70.92 C5.6272056,69.9610499 6.24390606,69.0781235 6.98,68.3 C7.33340023,69.0502117 8.20931755,69.396199 8.98,69.09 C9.83592589,68.8342248 10.5597544,68.257312 11,67.48 C11.1540436,67.1637265 11.2618128,66.8269475 11.32,66.48 C11.3899315,66.1166677 11.3899315,65.7433323 11.32,65.38 C11.2538651,65.04371 11.0904382,64.7342421 10.85,64.49 C10.5446187,64.2305915 10.1496607,64.1013325 9.75,64.13 C8.75915035,64.1763178 7.80632766,64.5253371 7.02,65.13 C5.92733686,65.9512107 4.9749903,66.9440827 4.2,68.07 C3.2339496,69.4771602 2.49180928,71.0255347 2,72.66 C1.38069403,74.598682 1.08012025,76.6250221 1.11,78.66 C1.04285115,80.8170244 1.51004635,82.9571906 2.47,84.89 C3.31606016,86.5226581 4.57872194,87.9026163 6.13,88.89 C6.14656921,89.0829783 6.14656921,89.2770217 6.13,89.47 C6.09175686,89.6608639 6.0749859,89.855407 6.08,90.05 C6.08879591,92.5193527 6.65990627,94.9542663 7.75,97.17 C8.79192203,99.3805127 10.3781699,101.290204 12.36,102.72 C10.7695364,103.525119 9.29047777,104.533568 7.96,105.72 C6.51765513,106.963077 5.25850198,108.404033 4.22,110 C3.13093764,111.6908 2.28278272,113.525104 1.7,115.45 C1.05432958,117.623967 0.737490371,119.882289 0.76,122.15 C0.725144646,124.953031 1.20299913,127.738821 2.17,130.37 C3.03929313,132.716104 4.33812525,134.879694 6,136.75 C7.58072592,138.511689 9.50295086,139.933795 11.65,140.93 C13.8409002,141.952001 16.2325481,142.47133 18.65,142.45 C19.9961071,142.459212 21.3299523,142.193804 22.57,141.67 C23.8008931,141.132726 24.9202087,140.369556 25.87,139.42 C27.6233333,142.086667 29.4033333,143.42 31.21,143.42 C31.6074819,143.478434 32.0013426,143.29332 32.21,142.95 C32.3802834,142.64586 32.4535555,142.296946 32.42,141.95 C32.3670375,141.577113 32.2032972,141.22873 31.95,140.95 C31.7495295,140.681063 31.4440753,140.510154 31.11,140.48 C29.99,140.48 28.8366667,139.54 27.65,137.66 C28.6437324,136.377652 29.5205712,135.008846 30.27,133.57 C31.044652,132.101608 31.7000934,130.573359 32.23,129 C32.7279453,127.511224 33.1123789,125.986862 33.38,124.44 M118.38,104.65 C118.593333,100.25 118.89,95.9166667 119.27,91.65 C119.65,87.3833333 120.12,83.5466667 120.68,80.14 C121.093803,77.3711323 121.72577,74.6392953 122.57,71.97 C123.27,69.91 124.03,68.88 124.87,68.88 C125.71,68.88 126.15,69.42 126.39,70.5 C126.644054,71.9363343 126.681134,73.4026609 126.5,74.85 C126.26797,76.977882 125.917425,79.0911646 125.45,81.18 C124.92,83.59 124.28,86.12 123.51,88.77 C122.74,91.42 121.92,94.13 121.05,96.89 C120.18,99.65 119.29,102.25 118.38,104.69 M92.38,104.69 C92.5933333,100.29 92.89,95.9566667 93.27,91.69 C93.65,87.4233333 94.1233333,83.5866667 94.69,80.18 C95.0963129,77.4106112 95.7250121,74.6784452 96.57,72.01 C97.27,69.95 98.04,68.92 98.87,68.92 C99.7,68.92 100.15,69.46 100.39,70.54 C100.649142,71.9758184 100.686242,73.442919 100.5,74.89 C100.284476,77.0169332 99.9506253,79.1302076 99.5,81.22 C98.98,83.6266667 98.3333333,86.1566667 97.56,88.81 C96.79,91.47 95.98,94.17 95.1,96.93 C94.22,99.69 93.34,102.29 92.43,104.73 M45.89,119 C45.96,116.83 46.14,114.69 46.42,112.56 C46.7,110.43 47.03,108.56 47.42,106.85 C47.7109904,105.447457 48.15012,104.079787 48.73,102.77 C49.22,101.77 49.73,101.2 50.3,101.2 C50.65,101.2 50.88,101.6 50.98,102.4 C51.099568,103.396426 51.099568,104.403574 50.98,105.4 C50.84,106.62 50.63,107.95 50.35,109.4 C50.0768101,110.799879 49.7093057,112.179691 49.25,113.53 C48.8492707,114.743083 48.3405668,115.917787 47.73,117.04 C47.3442957,117.874808 46.6988086,118.562392 45.89,119 M224.74,96.22 C224.746733,95.7631962 224.636579,95.3122542 224.42,94.91 C222.709449,93.7041739 220.795499,92.8166432 218.77,92.29 C216.80837,91.8064279 214.789063,91.5977661 212.77,91.67 C210.729553,91.7398049 208.698816,91.9840286 206.7,92.4 C204.714155,92.8074139 202.754081,93.3316584 200.83,93.97 C201.036667,91.53 201.263333,89.1966667 201.51,86.97 C201.76,84.77 201.96,82.8 202.14,81.05 C202.32,79.3 202.45,77.89 202.56,76.81 C202.67,75.73 202.72,75.05 202.72,74.81 C202.72,74.25 202.35,73.9 201.62,73.81 C200.806004,73.6696706 199.973996,73.6696706 199.16,73.81 C198.268373,73.9421208 197.401887,74.2084724 196.59,74.6 C195.79,74.98 195.35,75.42 195.28,75.9 C194.590407,78.8408464 194.049719,81.8146311 193.66,84.81 C193.126667,88.51 192.69,92.51 192.35,96.81 C191.35,97.09 190.48,97.31 189.68,97.49 C188.941088,97.6547098 188.187003,97.7418486 187.43,97.75 C185.388782,97.9009783 183.339501,97.5970015 181.43,96.86 C180.153306,96.3301904 178.996831,95.547869 178.03,94.56 C177.333538,93.8524409 176.780096,93.0171837 176.4,92.1 C176.12,91.33 175.95,90.87 175.88,90.73 C175.81,90.59 175.57,90.44 175.15,90.73 C174.728965,90.9751298 174.51469,91.4643224 174.62,91.94 C174.712483,92.5359645 174.891012,93.1153423 175.15,93.66 C175.596136,94.6819529 176.234358,95.6087324 177.03,96.39 C178.102359,97.4390052 179.364904,98.2739145 180.75,98.85 C182.656088,99.6024058 184.705132,99.9234226 186.75,99.79 C188.548204,99.7843884 190.33986,99.5730133 192.09,99.16 C191.81,103.28 191.67,107.416667 191.67,111.57 C191.67,112.74 191.67,113.87 191.74,114.97 C191.67,115.21 191.6,115.43 191.52,115.71 C190.993333,117.45 190.346667,119.28 189.58,121.2 C188.878896,122.97566 188.074179,124.708639 187.17,126.39 C186.33,127.92 185.53,128.69 184.76,128.69 C184.41,128.69 184.19,128.06 184.08,126.81 C183.992264,125.344645 183.992264,123.875355 184.08,122.41 C184.15,120.73 184.25,119.06 184.39,117.41 C184.53,115.76 184.67,114.48 184.81,113.64 C184.926757,113.315343 184.906403,112.957156 184.753619,112.647816 C184.600835,112.338476 184.328772,112.104609 184,112 C183.196553,111.712321 182.339297,111.606444 181.49,111.69 C180.593333,111.749735 179.710439,111.941815 178.87,112.26 C178.07,112.58 177.67,112.87 177.67,113.15 C177.584097,113.856081 177.460588,114.557077 177.3,115.25 C177.05,116.43 176.72,117.86 176.3,119.54 C175.88,121.22 175.41,123 174.89,124.88 C174.37,126.76 173.89,128.51 173.37,130.12 C172.970395,131.477113 172.499746,132.812287 171.96,134.12 C171.5,135.12 171.14,135.69 170.86,135.69 C170.58,135.69 170.23,135.16 170.02,134.12 C169.780825,132.752965 169.660376,131.3678 169.66,129.98 C169.66,128.27 169.66,126.38 169.66,124.32 C169.66,122.26 169.83,120.22 169.97,118.2 C170.11,116.18 170.27,114.29 170.44,112.54 C170.564279,111.171074 170.75786,109.809328 171.02,108.46 C171.09,107.9 170.76,107.46 170.02,107.2 C169.196523,106.910322 168.332672,106.751724 167.46,106.73 C166.545796,106.695009 165.63102,106.782451 164.74,106.99 C163.9,107.2 163.44,107.45 163.37,107.73 C163.17,109.19 162.96,110.96 162.75,113.02 C162.75,113.3 162.7,113.6 162.67,113.89 C162.64,114.18 162.38,114.68 162.22,115.11 C161.87,116.05 161.47,117.03 161.02,118.04 C160.575535,119.0349 160.032843,119.982935 159.4,120.87 C158.817733,121.692903 158.108977,122.418535 157.3,123.02 C157.716031,121.725861 157.945011,120.378916 157.98,119.02 C158.032616,117.798704 157.890849,116.576805 157.56,115.4 C157.309253,114.428278 156.825265,113.532385 156.15,112.79 C155.495854,112.111545 154.581478,111.747252 153.64,111.79 C152.831356,111.80138 152.109148,112.298638 151.81,113.05 C151.309344,114.018139 150.971493,115.062099 150.81,116.14 C150.599154,117.418659 150.545422,118.7183 150.65,120.01 C150.730034,121.246251 150.996372,122.463317 151.44,123.62 C151.197598,124.887881 150.846297,126.132493 150.39,127.34 C149.97,128.42 149.48,128.96 148.93,128.96 C148.38,128.96 147.79,128.42 147.41,127.34 C146.978531,126.04545 146.713078,124.701382 146.62,123.34 C146.478899,121.597054 146.445503,119.847061 146.52,118.1 C146.575093,116.349026 146.732025,114.602742 146.99,112.87 C147.172753,111.492786 147.542844,110.147003 148.09,108.87 C148.58,107.79 149.17,107.24 149.87,107.24 C150.283445,107.235475 150.657041,107.485863 150.81,107.87 C151.021422,108.298118 151.163203,108.757219 151.23,109.23 C151.298145,109.717009 151.331563,110.208249 151.33,110.7 C151.295629,110.984794 151.333457,111.273659 151.44,111.54 C151.506667,111.68 151.696667,111.68 152.01,111.54 C152.367339,111.391383 152.70356,111.196375 153.01,110.96 C153.358829,110.677027 153.659405,110.339301 153.9,109.96 C154.173168,109.55902 154.319499,109.085186 154.32,108.6 C154.223937,107.652932 153.724779,106.793068 152.95,106.24 C151.992493,105.419217 150.760184,104.990588 149.5,105.04 C147.577147,104.973258 145.70185,105.646075 144.26,106.92 C142.831489,108.228886 141.737586,109.861167 141.07,111.68 C140.32913,113.658939 139.923564,115.747603 139.87,117.86 C139.86492,117.89314 139.86492,117.92686 139.87,117.96 C139.65,118.68 139.43,119.41 139.19,120.22 C138.59,122.17 137.95,124.29 137.25,126.55 C136.55,128.81 135.85,130.9 135.15,132.78 C134.571896,134.389407 133.904186,135.965204 133.15,137.5 C132.53,138.75 132.04,139.38 131.69,139.38 C131.34,139.38 131.37,138.52 131.58,136.82 C131.79,135.12 132.04,132.94 132.32,130.32 C132.6,127.7 132.82,124.9 133,121.89 C133.176083,119.08125 133.139311,116.2632 132.89,113.46 C132.744454,111.205352 132.160196,109.000796 131.17,106.97 C130.37881,105.332418 128.68671,104.325028 126.87,104.41 C125.768785,104.521338 124.782,105.13854 124.2,106.08 C123.20276,107.422361 122.376412,108.883585 121.74,110.43 C120.926349,112.339615 120.22842,114.296489 119.65,116.29 C119.02,118.42 118.49,120.5 118.08,122.52 C118.006667,120.573333 117.986667,118.573333 118.02,116.52 C118.02,114.46 118.11,112.32 118.18,110.08 C119.18,107.64 120.34,104.88 121.53,101.81 C122.72,98.74 123.82,95.61 124.83,92.44 C125.84,89.27 126.7,86.14 127.4,83.07 C128.032778,80.384146 128.450764,77.6521854 128.65,74.9 C128.843647,72.9534067 128.611618,70.9879857 127.97,69.14 C127.491013,67.7471455 126.139938,66.8464287 124.67,66.94 C122.296667,66.94 120.273333,68.2733333 118.6,70.94 C116.70071,74.1660351 115.304652,77.6629234 114.46,81.31 C113.318334,85.884574 112.516151,90.5372338 112.06,95.23 C111.526667,100.296667 111.226667,105.22 111.16,110 C111.16,111.93 111.16,113.77 111.16,115.55 C111.16,115.71 111.09,115.85 111.04,116.02 C110.55,117.9 109.98,119.93 109.31,122.09 C108.64,124.25 107.97,126.19 107.31,127.9 C106.65,129.61 105.99,130.47 105.43,130.47 C104.17,130.47 103.053333,129.44 102.08,127.38 C100.994064,125.048773 100.049031,122.654468 99.25,120.21 C101.243822,118.600421 102.936658,116.650274 104.25,114.45 C105.189646,112.906743 105.764268,111.169197 105.93,109.37 C106.060462,108.050895 105.624207,106.738495 104.73,105.76 C103.698849,104.792401 102.31046,104.299396 100.9,104.4 C99.8003036,104.51576 98.815312,105.131841 98.23,106.07 C97.2327597,107.412361 96.4064125,108.873585 95.77,110.42 C94.9563494,112.329615 94.2584199,114.286489 93.68,116.28 C93.0533333,118.406667 92.53,120.483333 92.11,122.51 C92.0433333,120.563333 92.0433333,118.563333 92.11,116.51 C92.11,114.45 92.19,112.31 92.26,110.07 C93.3133333,107.63 94.43,104.873333 95.61,101.8 C96.79,98.7266667 97.89,95.6033333 98.91,92.43 C99.9233333,89.25 100.78,86.1266667 101.48,83.06 C102.112778,80.374146 102.530764,77.6421854 102.73,74.89 C102.928519,72.943365 102.696366,70.9768916 102.05,69.13 C101.574871,67.738702 100.227282,66.8375789 98.76,66.93 C96.38,66.93 94.36,68.27 92.68,70.93 C90.7885139,74.1587392 89.3961085,77.6549243 88.55,81.3 C87.399969,85.8732616 86.5943786,90.5262986 86.14,95.22 C85.6066667,100.286667 85.31,105.21 85.25,109.99 C85.25,111.77 85.25,113.47 85.25,115.12 C84.88,116.19 84.44,117.43 83.88,118.89 C83.2533333,120.53 82.52,122.256667 81.68,124.07 C80.879657,125.762205 79.984915,127.40813 79,129 C78.2000274,130.35815 77.2508052,131.622661 76.17,132.77 C75.4429134,133.655303 74.3829201,134.201579 73.24,134.28 C72.12,134.28 71.24,133.46 70.73,131.82 C70.1258258,129.833586 69.7895224,127.775409 69.73,125.7 C69.5925032,123.033782 69.6292481,120.36143 69.84,117.7 C70.0072937,115.015193 70.3412707,112.343377 70.84,109.7 C71.2250423,107.598213 71.8421528,105.54565 72.68,103.58 C73.41,101.94 74.19,101.12 75.03,101.12 C75.3796472,101.150553 75.7097327,101.294527 75.97,101.53 C76.3766233,101.908076 76.6531604,102.405143 76.76,102.95 C76.9432644,103.811145 76.9770906,104.697391 76.86,105.57 C76.674107,106.946575 76.3041317,108.29194 75.76,109.57 C75.3026947,110.50271 75.2099776,111.572522 75.5,112.57 C75.7232815,113.300838 76.236564,113.908102 76.92,114.25 C77.5876115,114.508183 78.3405909,114.410296 78.92,113.99 C79.807927,113.297662 80.4210458,112.312419 80.65,111.21 C81.0620404,109.802022 81.237757,108.335465 81.17,106.87 C81.1220014,105.537125 80.8375819,104.223378 80.33,102.99 C79.855532,101.859827 79.0766062,100.883573 78.08,100.17 C76.9920897,99.4096432 75.686475,99.0235744 74.36,99.07 C71.8012583,99.031116 69.3402644,100.051705 67.56,101.89 C65.610636,103.87329 64.1250192,106.263938 63.21,108.89 C62.467576,110.974715 61.9545476,113.134128 61.68,115.33 C61.31,116.33 60.88,117.4 60.33,118.68 C59.6366667,120.426667 58.86,122.2 58,124 C57.1813641,125.72448 56.2527851,127.394587 55.22,129 C54.3518023,130.356129 53.3465203,131.619433 52.22,132.77 C51.4953543,133.631771 50.4609588,134.174111 49.34,134.28 C48.6623246,134.252758 48.0480761,133.873593 47.72,133.28 C47.1850018,132.393044 46.8125013,131.41777 46.62,130.4 C46.3145245,129.021164 46.1205645,127.61997 46.04,126.21 C45.93,124.64 45.88,122.98 45.88,121.21 C47.4370976,121.273187 48.9576917,120.728068 50.12,119.69 C51.4497143,118.564108 52.5673144,117.209441 53.42,115.69 C54.3349843,114.030816 55.0084433,112.249516 55.42,110.4 C55.8666966,108.656767 55.9753207,106.844103 55.74,105.06 C55.5746137,103.528183 54.9704119,102.07671 54,100.88 C52.886106,99.7119168 51.3102981,99.099917 49.7,99.21 C47.2202595,99.1413388 44.8345311,100.160662 43.17,102 C41.3557818,104.023584 39.9923309,106.409623 39.17,109 C37.2868276,114.94183 37.141105,121.298112 38.75,127.32 C39.4492526,129.913153 40.7396412,132.3091 42.52,134.32 C44.1502981,136.190043 46.5192705,137.250231 49,137.22 C50.4306399,137.179458 51.8025169,136.642021 52.88,135.7 C54.2177694,134.591681 55.3985903,133.306571 56.39,131.88 C57.519697,130.266687 58.5226985,128.568271 59.39,126.8 C60.17,125.2 60.86,123.7 61.49,122.26 C61.612327,123.988401 61.907126,125.700245 62.37,127.37 C63.0732339,129.974146 64.3860608,132.373569 66.2,134.37 C67.9478114,136.256541 70.4298108,137.289491 73,137.2 C74.4140293,137.16595 75.7691375,136.626745 76.82,135.68 C78.1195932,134.576621 79.2514829,133.28977 80.18,131.86 C81.2373863,130.241484 82.1797081,128.550651 83,126.8 C83.87,124.95 84.63,123.2 85.25,121.56 C85.31,121.42 85.35,121.3 85.4,121.16 C85.4,121.73 85.47,122.32 85.51,122.87 C85.6597393,125.700699 86.0986913,128.508651 86.82,131.25 C86.89,131.46 87.24,131.61 87.82,131.72 C88.4810836,131.82561 89.1516789,131.85914 89.82,131.82 C90.4538513,131.797186 91.0837483,131.710073 91.7,131.56 C92.26,131.42 92.54,131.28 92.54,131.14 L92.33,129.26 C92.5327636,127.011488 92.9377345,124.785821 93.54,122.61 C94.2,120.06 94.95,117.61 95.79,115.33 C96.4983687,113.324172 97.3368152,111.366683 98.3,109.47 C99.14,107.86 99.84,107.06 100.4,107.06 C100.67,107.06 100.73,107.55 100.55,108.53 C100.314391,109.77462 99.9799996,110.998492 99.55,112.19 C98.9377962,113.8498 98.2367842,115.475481 97.45,117.06 C96.5954992,118.81101 95.6336682,120.507573 94.57,122.14 C93.9773499,122.913897 93.7846117,123.922066 94.05,124.86 C94.54,126.47 95.05,128 95.67,129.47 C96.2171845,130.849331 96.8656193,132.18631 97.61,133.47 C98.198344,134.514622 98.9399123,135.465178 99.81,136.29 C100.456137,136.918892 101.318434,137.276692 102.22,137.29 C103.347,137.213073 104.380944,136.637438 105.04,135.72 C106.061798,134.50029 106.92531,133.156302 107.61,131.72 C108.454953,130.005187 109.189776,128.238273 109.81,126.43 C110.41,124.69 110.93,123.03 111.39,121.43 C111.39,121.89 111.39,122.37 111.48,122.82 C111.629739,125.650699 112.068691,128.458651 112.79,131.2 C112.86,131.41 113.21,131.56 113.79,131.67 C114.451084,131.77561 115.121679,131.80914 115.79,131.77 C116.423786,131.746439 117.053608,131.659336 117.67,131.51 C118.23,131.37 118.51,131.23 118.51,131.09 L118.3,129.21 C118.503754,126.96237 118.90531,124.737085 119.5,122.56 C120.17,120.01 120.92,117.56 121.76,115.28 C122.464075,113.272499 123.302641,111.314729 124.27,109.42 C125.11,107.81 125.8,107.01 126.36,107.01 C126.92,107.01 127.03,107.88 126.89,109.63 C126.75,111.38 126.5,113.55 126.15,116.17 C125.8,118.79 125.47,121.62 125.15,124.65 C124.841367,127.468774 124.734428,130.305991 124.83,133.14 C124.860295,135.38206 125.30441,137.599245 126.14,139.68 C126.733791,141.298055 128.297271,142.353807 130.02,142.3 C131.02,142.3 132.02,141.65 133.02,140.36 C134.16758,138.837257 135.134079,137.186154 135.9,135.44 C136.81,133.44 137.66,131.29 138.47,128.95 C139.18,126.87 139.8,124.88 140.35,122.95 C140.43,123.28 140.51,123.6 140.61,123.95 C141.180438,125.769912 142.214257,127.410239 143.61,128.71 C145.024862,129.990188 146.883154,130.668213 148.79,130.6 C150.399781,130.646729 151.974815,130.126436 153.24,129.13 C154.468188,128.15608 155.488345,126.945493 156.24,125.57 C157.54585,125.120564 158.715883,124.346278 159.64,123.32 C160.620984,122.282255 161.464558,121.122761 162.15,119.87 C162.21,119.76 162.25,119.66 162.31,119.56 C162.240087,121.845479 162.310219,124.133095 162.52,126.41 C162.690229,128.508038 163.092691,130.580715 163.72,132.59 C164.21863,134.240126 165.075729,135.759684 166.23,137.04 C167.333048,138.199422 168.880801,138.829448 170.48,138.77 C171.31,138.77 172.08,138.12 172.78,136.83 C173.556046,135.351043 174.205046,133.808831 174.72,132.22 C175.306667,130.44 175.83,128.59 176.29,126.67 C176.75,124.75 177.15,123.126667 177.49,121.8 C177.257827,124.570943 177.920253,127.343321 179.38,129.71 C179.99316,130.713602 180.836398,131.55684 181.84,132.17 C182.742766,132.734807 183.86735,132.813528 184.84,132.38 C186.194062,131.658941 187.278159,130.51871 187.93,129.13 C188.994981,127.279882 189.924095,125.354811 190.71,123.37 C191.25,122.02 191.71,120.73 192.14,119.47 C192.25,120.57 192.38,121.63 192.54,122.64 C192.911246,125.450071 193.760139,128.175999 195.05,130.7 C196.196667,132.8 197.75,133.85 199.71,133.85 C200.76092,133.782599 201.740825,133.296249 202.43,132.5 C203.444205,131.469956 204.339793,130.329507 205.1,129.1 C206.008387,127.660379 206.829854,126.167713 207.56,124.63 C208.33,123.03 209.01,121.47 209.61,119.97 C210.21,118.47 210.69,117.16 211.07,116.04 C211.347975,115.289446 211.575155,114.521045 211.75,113.74 C211.96,112.9 211.8,112.36 211.28,112.12 C210.76,111.88 210.42,111.96 210.28,112.38 C210.14,112.8 209.72,113.95 209.02,115.84 C208.32,117.73 207.48,119.73 206.51,121.84 C205.624793,123.81764 204.623033,125.741019 203.51,127.6 C202.51,129.31 201.51,130.16 200.68,130.16 C199.85,130.16 199.53,129.16 199.32,127.07 C199.09305,124.443181 199.022926,121.805167 199.11,119.17 C199.176667,115.956667 199.35,112.36 199.63,108.38 C199.91,104.4 200.243333,100.456667 200.63,96.55 C202.576667,95.99 204.546667,95.4666667 206.54,94.98 C208.506774,94.4913205 210.516058,94.1932768 212.54,94.09 C214.551993,93.979908 216.569691,94.137961 218.54,94.56 C220.671386,95.0393791 222.70216,95.8889196 224.54,97.07 C224.82,97.21 224.92,96.91 224.86,96.18" id="Shape" fill="#FFFFFF" fill-rule="nonzero"></path>
            <path d="M32.57,121.59 C32.5686056,122.851097 32.4817398,124.11065 32.31,125.36 C32.1266741,126.716047 31.8289456,128.054153 31.42,129.36 C31.0108132,130.702403 30.5027567,132.012654 29.9,133.28 C29.3265581,134.514201 28.6081656,135.675715 27.76,136.74 C26.5466064,134.204589 25.9438459,131.420246 26,128.61 C25.9947321,127.13308 26.1354155,125.659253 26.42,124.21 C26.6713696,122.939747 27.046492,121.697154 27.54,120.5 C27.9175108,119.57016 28.4078519,118.690233 29,117.88 C29.49,117.21 29.95,116.88 30.38,116.88 C31.2113644,116.863005 31.9411878,117.430182 32.13,118.24 C32.4756065,119.322106 32.6378434,120.454385 32.61,121.59 M14.35,90.18 C14.4126081,88.3265707 14.6945731,86.4870848 15.19,84.7 C15.6294258,83.0632711 16.2639762,81.4852885 17.08,80 C17.7613495,78.7261407 18.7055193,77.6115432 19.85,76.73 C20.8554606,75.9523134 22.0888994,75.5271109 23.36,75.52 C24.165535,75.497063 24.9616667,75.6978266 25.66,76.1 C26.2653398,76.4635554 26.7705569,76.9722093 27.13,77.58 C27.4748709,78.1695015 27.7214316,78.8112349 27.86,79.48 C28.0014682,80.137215 28.0718727,80.8077342 28.07,81.48 C28.0991265,82.7617934 27.7514248,84.0239508 27.07,85.11 C26.3734367,86.2103384 25.4660058,87.1619513 24.4,87.91 C23.269439,88.7053607 22.0161599,89.3100425 20.69,89.7 C19.2968388,90.1276174 17.8473069,90.3433617 16.39,90.34 L15.39,90.34 C15.053856,90.3363801 14.7188934,90.2995343 14.39,90.23 M34.45,125.52 C34.6794632,124.171886 34.7998533,122.807465 34.81,121.44 C34.8080326,120.718311 34.7377187,119.99843 34.6,119.29 C34.4669122,118.595095 34.2380642,117.922013 33.92,117.29 C33.6239598,116.681048 33.197137,116.144958 32.67,115.72 C32.1167634,115.28986 31.4304002,115.066969 30.73,115.09 C29.6014851,115.093226 28.5309018,115.590152 27.8,116.45 C26.8904414,117.467934 26.1631293,118.635016 25.65,119.9 C25.0364028,121.367528 24.5805092,122.896112 24.29,124.46 C23.9885492,125.995306 23.8311987,127.555419 23.82,129.12 C23.8100692,130.846337 24.0013595,132.567949 24.39,134.25 C24.7448153,135.764802 25.2541501,137.239192 25.91,138.65 C24.1291858,140.078726 21.9130967,140.855063 19.63,140.85 C16.4652158,140.971427 13.5678496,139.083931 12.4,136.14 C10.94,132.99 10.21,128.39 10.21,122.31 C10.1749198,118.960845 10.7231021,115.631146 11.83,112.47 C12.6939355,109.797613 14.2664067,107.40953 16.38,105.56 C17.1510325,105.910866 17.9596011,106.172561 18.79,106.34 C19.6846596,106.525332 20.5963645,106.615832 21.51,106.61 C22.3786791,106.620993 23.2264003,106.34311 23.92,105.82 C24.5419484,105.37933 24.9910017,104.735805 25.19,104 C25.3762159,103.393034 25.2150037,102.732831 24.77,102.28 C23.9956966,101.644838 22.99286,101.358831 22,101.49 C20.4785666,101.497685 18.9650501,101.709577 17.5,102.12 C16.3094805,101.02115 15.4855929,99.5828374 15.14,98 C14.6744535,96.1674883 14.4095631,94.2897844 14.35,92.4 C14.6673267,92.3999072 14.9844362,92.4165972 15.3,92.45 C15.6129434,92.4721064 15.9270566,92.4721064 16.24,92.45 C18.0809182,92.4461085 19.9121566,92.1835412 21.68,91.67 C23.4227393,91.1742077 25.083635,90.4262993 26.61,89.45 C28.0268223,88.5640975 29.2400794,87.3883287 30.17,86 C31.0747044,84.5859055 31.5473358,82.9386461 31.53,81.26 C31.5810547,79.13287 30.7225854,77.0849115 29.17,75.63 C27.4790592,74.0729457 25.2362645,73.2557476 22.94,73.36 C19.0349493,73.2051826 15.2356797,74.6497718 12.42,77.36 C9.67059829,80.1148703 7.88819727,83.6866897 7.34,87.54 C5.26559303,85.641803 4.16253181,82.9062112 4.34,80.1 C4.30977033,78.4787915 4.4981317,76.8609019 4.9,75.29 C5.20652998,74.1324785 5.63213438,73.0098212 6.17,71.94 C6.64422486,70.9550886 7.26083267,70.0453393 8,69.24 C8.36056999,69.982605 9.23725666,70.3157459 10,70 C10.864752,69.7837883 11.613136,69.2430898 12.09,68.49 C12.2390974,68.1726129 12.3434259,67.8360693 12.4,67.49 C12.4699315,67.1266677 12.4699315,66.7533323 12.4,66.39 C12.3379688,66.0522728 12.1739391,65.7416635 11.93,65.5 C11.6278302,65.2340705 11.2314589,65.1007456 10.83,65.13 C9.84195932,65.1751354 8.8919842,65.524391 8.11,66.13 C7.01653632,66.9495949 6.06114489,67.9387457 5.28,69.06 C4.29303666,70.4808062 3.52450671,72.0414613 3,73.69 C2.38545905,75.6297858 2.0850005,77.655349 2.11,79.69 C2.0490077,81.8464526 2.51588112,83.9851447 3.47,85.92 C4.32232996,87.5514401 5.5877958,88.9306945 7.14,89.92 C7.13956183,90.1143905 7.12283666,90.3084025 7.09,90.5 C7.04812664,90.6870571 7.0279933,90.8783239 7.03,91.07 C7.0351644,93.5409298 7.61005909,95.9773883 8.71,98.19 C9.74666007,100.403857 11.3339169,102.314763 13.32,103.74 C11.7319669,104.549228 10.2534146,105.557332 8.92,106.74 C7.50107033,107.981832 6.26244998,109.415669 5.24,111 C4.16006374,112.690875 3.31562553,114.521052 2.73,116.44 C2.08021513,118.616495 1.76329892,120.878737 1.79,123.15 C1.75514465,125.953031 2.23299913,128.738821 3.2,131.37 C4.05888101,133.720496 5.34746164,135.890738 7,137.77 C8.58602299,139.55154 10.5187461,140.990874 12.68,142 C14.872403,143.017536 17.2630324,143.536644 19.68,143.52 C21.0305775,143.531713 22.368858,143.262694 23.61,142.73 C24.8447939,142.199808 25.9653758,141.435775 26.91,140.48 C28.65,143.14 30.43,144.48 32.25,144.48 C32.6474819,144.538434 33.0413426,144.35332 33.25,144.01 C33.4288291,143.709128 33.5026935,143.357392 33.46,143.01 C33.416143,142.634455 33.2511541,142.283415 32.99,142.01 C32.791802,141.743512 32.4904798,141.572884 32.16,141.54 C31.04,141.54 29.8866667,140.596667 28.7,138.71 C29.6958614,137.432697 30.5728455,136.067012 31.32,134.63 C32.0914581,133.143251 32.7370476,131.594506 33.25,130 C33.7556207,128.516169 34.1434887,126.994791 34.41,125.45 M119.41,105.66 C119.616667,101.26 119.913333,96.9266667 120.3,92.66 C120.686667,88.3933333 121.156667,84.5533333 121.71,81.14 C122.114969,78.3819744 122.736898,75.6601967 123.57,73 C124.26,70.94 125.03,69.91 125.87,69.91 C126.71,69.91 127.14,70.45 127.39,71.53 C127.64503,72.9664101 127.678754,74.433388 127.49,75.88 C127.279981,78.0076428 126.946081,80.1212297 126.49,82.21 C125.96,84.62 125.32,87.15 124.55,89.8 C123.78,92.45 122.96,95.16 122.09,97.92 C121.22,100.68 120.32,103.28 119.42,105.72 M93.42,105.72 C93.6333333,101.32 93.93,96.9866667 94.31,92.72 C94.69,88.4533333 95.16,84.6133333 95.72,81.2 C96.1284014,78.4211702 96.757048,75.6792011 97.6,73 C98.3,70.94 99.06,69.91 99.9,69.91 C100.74,69.91 101.18,70.45 101.42,71.53 C101.674054,72.9663343 101.711134,74.4326609 101.53,75.88 C101.314476,78.0069332 100.980625,80.1202076 100.53,82.21 C100,84.62 99.36,87.15 98.59,89.8 C97.82,92.45 97,95.16 96.13,97.92 C95.26,100.68 94.37,103.28 93.46,105.72 M46.92,120 C46.9933333,117.84 47.1666667,115.693333 47.44,113.56 C47.72,111.44 48.05,109.56 48.44,107.86 C48.7326891,106.454673 49.1717505,105.083863 49.75,103.77 C50.23,102.77 50.75,102.2 51.32,102.2 C51.67,102.2 51.89,102.61 52,103.41 C52.1104682,104.406949 52.1104682,105.413051 52,106.41 C51.86,107.64 51.65,108.96 51.37,110.41 C51.0955474,111.812867 50.7280693,113.19592 50.27,114.55 C49.8649798,115.761444 49.3564362,116.935779 48.75,118.06 C48.3681906,118.889136 47.7254639,119.570497 46.92,120 M225.76,97.23 C225.768063,96.7742564 225.661465,96.3237941 225.45,95.92 C223.740666,94.712071 221.826319,93.8243561 219.8,93.3 C217.83882,92.8131905 215.819523,92.6011644 213.8,92.67 C211.756015,92.743792 209.722013,92.9913514 207.72,93.41 C205.737432,93.8173883 203.780685,94.3416363 201.86,94.98 C202.07,92.53 202.29,90.21 202.54,87.98 C202.79,85.75 202.99,83.81 203.17,82.07 C203.35,80.33 203.48,78.91 203.59,77.83 C203.7,76.75 203.74,76.06 203.74,75.83 C203.74,75.27 203.38,74.92 202.64,74.83 C201.826004,74.6896706 200.993996,74.6896706 200.18,74.83 C199.293462,74.9649448 198.431165,75.2276761 197.62,75.61 C196.82,76 196.38,76.43 196.31,76.92 C195.620271,79.8574518 195.07958,82.8279143 194.69,85.82 C194.163333,89.52 193.726667,93.52 193.38,97.82 C192.4,98.1 191.51,98.33 190.71,98.51 C189.970944,98.6738565 189.216948,98.7609849 188.46,98.77 C186.418758,98.9216483 184.36933,98.6176497 182.46,97.88 C181.181087,97.3443182 180.021821,96.5590088 179.05,95.57 C178.355346,94.8630043 177.805095,94.0274375 177.43,93.11 C177.15,92.34 176.98,91.89 176.91,91.75 C176.84,91.61 176.59,91.45 176.17,91.75 C175.754408,91.9945825 175.544272,92.4795121 175.65,92.95 C175.741837,93.5480881 175.916866,94.1303943 176.17,94.68 C176.62044,95.6990875 177.262012,96.6224071 178.06,97.4 C179.127103,98.4554952 180.39099,99.2912916 181.78,99.86 C183.68137,100.633185 185.730644,100.974731 187.78,100.86 C189.578131,100.85317 191.369648,100.641811 193.12,100.23 C192.84,104.35 192.7,108.486667 192.7,112.64 C192.7,113.81 192.7,114.93 192.77,116.03 C192.69,116.27 192.62,116.5 192.54,116.77 C192.02,118.52 191.37,120.35 190.61,122.27 C189.906758,124.041493 189.102093,125.771022 188.2,127.45 C187.36,128.99 186.56,129.76 185.79,129.76 C185.44,129.76 185.21,129.13 185.11,127.87 C185.000498,126.409197 184.983798,124.942918 185.06,123.48 C185.12,121.8 185.23,120.12 185.37,118.48 C185.51,116.84 185.65,115.55 185.79,114.71 C185.93065,114.379797 185.925016,114.005499 185.774491,113.67968 C185.623966,113.35386 185.342606,113.106944 185,113 C184.196173,112.713687 183.339951,112.604527 182.49,112.68 C181.59259,112.741319 180.709442,112.936825 179.87,113.26 C179.06,113.57 178.66,113.87 178.66,114.15 C178.580525,114.853043 178.460323,115.550883 178.3,116.24 C178.05,117.43 177.72,118.86 177.3,120.54 C176.88,122.22 176.41,123.99 175.89,125.88 C175.37,127.77 174.89,129.51 174.37,131.11 C173.973681,132.468172 173.50297,133.803522 172.96,135.11 C172.5,136.16 172.14,136.68 171.86,136.68 C171.58,136.68 171.23,136.16 171.02,135.11 C170.781173,133.746131 170.657404,132.364602 170.65,130.98 C170.65,129.27 170.65,127.38 170.71,125.32 C170.77,123.26 170.88,121.22 171.02,119.2 C171.16,117.18 171.32,115.29 171.49,113.54 C171.609275,112.170497 171.802894,110.808488 172.07,109.46 C172.14,108.9 171.8,108.46 171.07,108.2 C170.247536,107.90653 169.383072,107.747819 168.51,107.73 C167.592378,107.690886 166.673742,107.778375 165.78,107.99 C164.95,108.2 164.49,108.45 164.42,108.73 C164.206667,110.19 163.996667,111.95 163.79,114.01 C163.79,114.3 163.79,114.6 163.72,114.88 C163.65,115.16 163.43,115.68 163.27,116.11 C162.92,117.05 162.52,118.03 162.07,119.04 C161.61992,120.03406 161.074005,120.981876 160.44,121.87 C159.863913,122.691886 159.158039,123.414647 158.35,124.01 C158.762886,122.715095 158.99179,121.3686 159.03,120.01 C159.077586,118.792185 158.9359,117.574362 158.61,116.4 C158.357021,115.426186 157.873406,114.527553 157.2,113.78 C156.543659,113.104821 155.630819,112.74114 154.69,112.78 C153.882702,112.803 153.163313,113.295626 152.85,114.04 C152.351545,115.005519 152.013784,116.045822 151.85,117.12 C151.639332,118.40204 151.585603,119.704967 151.69,121 C151.771091,122.236101 152.037396,123.453011 152.48,124.61 C152.237598,125.877881 151.886297,127.122493 151.43,128.33 C151.003333,129.443333 150.526667,130 150,130 C149.37,130 148.87,129.46 148.48,128.38 C148.058065,127.083409 147.796125,125.740124 147.7,124.38 C147.555311,122.637273 147.518574,120.887264 147.59,119.14 C147.647725,117.388789 147.807999,115.642463 148.07,113.91 C148.255058,112.533254 148.625064,111.187779 149.17,109.91 C149.65,108.83 150.25,108.29 150.95,108.29 C151.363445,108.285475 151.737041,108.535863 151.89,108.92 C152.102884,109.347534 152.244739,109.806876 152.31,110.28 C152.378145,110.767009 152.411563,111.258249 152.41,111.75 C152.41,112.24 152.41,112.52 152.52,112.58 C152.63,112.64 152.78,112.73 153.09,112.58 C153.427669,112.433385 153.743886,112.241636 154.03,112.01 C154.378343,111.726519 154.678844,111.388877 154.92,111.01 C155.19604,110.610409 155.342654,110.135659 155.34,109.65 C155.24867,108.706585 154.752489,107.849212 153.98,107.3 C153.023982,106.475609 151.791513,106.043352 150.53,106.09 C148.605955,106.027025 146.730858,106.703348 145.29,107.98 C143.856061,109.284213 142.761201,110.917922 142.1,112.74 C141.3504,114.716841 140.941273,116.806432 140.89,118.92 L140.89,119.02 C140.68,119.74 140.46,120.47 140.21,121.28 C139.62,123.23 138.97,125.34 138.28,127.61 C137.59,129.88 136.88,131.96 136.18,133.84 C135.599616,135.445255 134.931954,137.017598 134.18,138.55 C133.55,139.81 133.06,140.44 132.72,140.44 C132.38,140.44 132.4,139.58 132.61,137.87 C132.82,136.16 133.06,134 133.34,131.38 C133.62,128.76 133.85,125.95 134.03,122.95 C134.20104,120.141127 134.164273,117.323454 133.92,114.52 C133.772854,112.264422 133.185112,110.059541 132.19,108.03 C131.403206,106.391972 129.715468,105.380903 127.9,105.46 C126.796404,105.572094 125.808644,106.193607 125.23,107.14 C124.229119,108.479989 123.402503,109.941687 122.77,111.49 C121.952888,113.399363 121.251617,115.356245 120.67,117.35 C120.05,119.48 119.52,121.56 119.1,123.58 C119.026667,121.633333 119.01,119.633333 119.05,117.58 C119.09,115.526667 119.143333,113.38 119.21,111.14 C120.26,108.7 121.37,105.94 122.56,102.87 C123.75,99.8 124.84,96.67 125.86,93.49 C126.88,90.31 127.72,87.2 128.42,84.12 C129.061108,81.4387713 129.482504,78.7097276 129.68,75.96 C129.87429,74.0134008 129.642245,72.0478416 129,70.2 C128.521013,68.8071455 127.169938,67.9064287 125.7,68 C123.33,68 121.3,69.34 119.63,72 C117.732348,75.2232758 116.336362,78.7166143 115.49,82.36 C114.327827,86.9073577 113.495661,91.5327279 113,96.2 C112.48,101.26 112.183333,106.183333 112.11,110.97 C112.11,112.9 112.11,114.74 112.11,116.52 C112.11,116.68 112.03,116.82 111.99,116.99 C111.5,118.87 110.92,120.9 110.26,123.06 C109.6,125.22 108.92,127.16 108.26,128.87 C107.6,130.58 106.93,131.44 106.37,131.44 C105.123333,131.44 104.006667,130.41 103.02,128.35 C101.93766,126.018459 100.995973,123.62417 100.2,121.18 C102.193822,119.570421 103.886658,117.620274 105.2,115.42 C106.139646,113.876743 106.714268,112.139197 106.88,110.34 C107.014305,109.018683 106.573473,107.703475 105.67,106.73 C104.647572,105.753883 103.259744,105.256154 101.85,105.36 C100.746404,105.472094 99.7586436,106.093607 99.18,107.04 C98.1827597,108.382361 97.3564125,109.843585 96.72,111.39 C95.9019764,113.297902 95.2039501,115.255048 94.63,117.25 C94,119.38 93.47,121.46 93.06,123.48 C92.9933333,121.533333 92.9733333,119.533333 93,117.48 C93.0266667,115.426667 93.08,113.28 93.16,111.04 C94.16,108.6 95.32,105.84 96.51,102.77 C97.7,99.7 98.8,96.57 99.81,93.39 C100.82,90.21 101.68,87.1 102.38,84.02 C103.01338,81.3376425 103.431377,78.6089562 103.63,75.86 C103.82429,73.9134008 103.592245,71.9478416 102.95,70.1 C102.471013,68.7071455 101.119938,67.8064287 99.65,67.9 C97.28,67.9 95.25,69.24 93.58,71.9 C91.6865109,75.1253164 90.2907843,78.6180043 89.44,82.26 C88.3005154,86.838871 87.4950637,91.4944489 87.03,96.19 C86.51,101.25 86.2133333,106.173333 86.14,110.96 C86.14,112.74 86.14,114.44 86.14,116.09 C85.77,117.16 85.32,118.4 84.77,119.86 C84.14,121.5 83.4,123.23 82.57,125.04 C81.8067929,126.740108 80.9487773,128.396045 80,130 C79.2025768,131.359848 78.2531476,132.624635 77.17,133.77 C76.4462797,134.66094 75.3851507,135.211423 74.24,135.29 C73.12,135.29 72.24,134.47 71.73,132.83 C71.1258258,130.843586 70.7895224,128.785409 70.73,126.71 C70.5888912,124.044005 70.6222959,121.371635 70.83,118.71 C70.9964422,116.025114 71.3304258,113.353245 71.83,110.71 C72.2169045,108.606592 72.8304822,106.551274 73.66,104.58 C74.4,102.94 75.18,102.12 76.02,102.12 C76.3716352,102.150362 76.7027829,102.298322 76.96,102.54 C77.3666233,102.918076 77.6431604,103.415143 77.75,103.96 C77.9329038,104.81781 77.9667313,105.70071 77.85,106.57 C77.6666344,107.94709 77.2965668,109.29279 76.75,110.57 C76.2907939,111.50218 76.1980141,112.572716 76.49,113.57 C76.7098956,114.299573 77.2196204,114.906905 77.9,115.25 C78.5680569,115.504445 79.3192045,115.406796 79.9,114.99 C80.7875148,114.299 81.3977893,113.312627 81.62,112.21 C82.0350682,110.799092 82.2141469,109.329295 82.15,107.86 C82.1020932,106.530346 81.8176478,105.219865 81.31,103.99 C80.8334985,102.85831 80.0551584,101.879331 79.06,101.16 C77.970202,100.403572 76.6659226,100.017898 75.34,100.06 C72.7774573,100.026927 70.3143667,101.050502 68.53,102.89 C66.5871107,104.876525 65.1053771,107.266418 64.19,109.89 C63.447576,111.974715 62.9345476,114.134128 62.66,116.33 C62.29,117.33 61.85,118.4 61.31,119.68 C60.61,121.32 59.83,123.05 58.95,124.86 C58.1389831,126.586462 57.2135914,128.256844 56.18,129.86 C55.3143825,131.217972 54.3088959,132.481533 53.18,133.63 C52.4584814,134.497217 51.4230975,135.04367 50.3,135.15 C49.6221828,135.114842 49.008453,134.738321 48.67,134.15 C48.1434302,133.258957 47.7715085,132.285198 47.57,131.27 C47.2689024,129.890709 47.078298,128.4896 47,127.08 C46.89,125.51 46.84,123.85 46.84,122.08 C48.3970976,122.143187 49.9176917,121.598068 51.08,120.56 C52.4118858,119.436253 53.5298337,118.081165 54.38,116.56 C55.2966018,114.905101 55.9701777,113.126861 56.38,111.28 C56.8221773,109.532661 56.9307425,107.717588 56.7,105.93 C56.5168946,104.458332 55.9283206,103.066527 55,101.91 C53.8934407,100.73626 52.3193482,100.119832 50.71,100.23 C48.2380413,100.184574 45.8688029,101.217694 44.22,103.06 C42.4057818,105.083584 41.0423309,107.469623 40.22,110.06 C39.2449488,113.016914 38.7322436,116.106637 38.7,119.22 C38.6045444,122.31125 38.9753729,125.39924 39.8,128.38 C40.5012804,130.972346 41.7914313,133.367851 43.57,135.38 C45.2280348,137.237666 47.6209896,138.26949 50.11,138.2 C51.5397232,138.163908 52.9119983,137.629853 53.99,136.69 C55.327185,135.580299 56.5049462,134.291492 57.49,132.86 C58.6217174,131.251487 59.6248267,129.556232 60.49,127.79 C61.27,126.19 61.96,124.68 62.59,123.24 C62.7121303,124.97171 63.006927,126.68689 63.47,128.36 C64.1763286,130.960791 65.4849535,133.358795 67.29,135.36 C69.0102378,137.237727 71.4538438,138.286548 74,138.24 C75.4129181,138.20959 76.7681648,137.673878 77.82,136.73 C79.1191326,135.62522 80.2479785,134.334629 81.17,132.9 C82.2336553,131.280028 83.1794282,129.585658 84,127.83 C84.8666667,125.976667 85.6166667,124.23 86.25,122.59 C86.31,122.45 86.34,122.33 86.4,122.19 C86.4,122.76 86.47,123.35 86.51,123.9 C86.6597393,126.730699 87.0986913,129.538651 87.82,132.28 C87.89,132.49 88.24,132.64 88.82,132.75 C89.4810836,132.85561 90.1516789,132.88914 90.82,132.85 C91.4537861,132.826439 92.0836082,132.739336 92.7,132.59 C93.26,132.45 93.54,132.31 93.54,132.17 L93.33,130.29 C93.5337545,128.04237 93.9353096,125.817085 94.53,123.64 C95.1966667,121.093333 95.95,118.666667 96.79,116.36 C97.4940747,114.352499 98.3326413,112.394729 99.3,110.5 C100.14,108.89 100.83,108.09 101.39,108.09 C101.67,108.09 101.72,108.58 101.55,109.55 C101.319747,110.799114 100.985244,112.026741 100.55,113.22 C99.9440036,114.880764 99.246263,116.506599 98.46,118.09 C97.6016565,119.838983 96.6399554,121.535317 95.58,123.17 C94.9873499,123.943897 94.7946117,124.952066 95.06,125.89 C95.54,127.49 96.08,129.026667 96.68,130.5 C97.2246119,131.880461 97.8731385,133.21763 98.62,134.5 C99.2044553,135.547486 99.9426611,136.501424 100.81,137.33 C101.458381,137.955478 102.319267,138.312692 103.22,138.33 C104.349772,138.253225 105.386851,137.677885 106.05,136.76 C107.06613,135.53613 107.92917,134.192876 108.62,132.76 C109.463866,131.045989 110.195409,129.278929 110.81,127.47 C111.42,125.73 111.94,124.07 112.4,122.47 C112.4,122.93 112.4,123.41 112.49,123.86 C112.634705,126.691222 113.073738,129.49969 113.8,132.24 C113.87,132.45 114.22,132.6 114.8,132.71 C115.461009,132.816323 116.131682,132.849857 116.8,132.81 C117.43714,132.787107 118.070346,132.7 118.69,132.55 C119.25,132.41 119.53,132.27 119.53,132.13 L119.32,130.25 C119.523754,128.00237 119.92531,125.777085 120.52,123.6 C121.18,121.05 121.94,118.6 122.77,116.32 C123.481353,114.313819 124.323149,112.356308 125.29,110.46 C126.12,108.85 126.82,108.05 127.38,108.05 C127.94,108.05 128.04,108.92 127.9,110.66 C127.76,112.4 127.52,114.59 127.17,117.21 C126.82,119.83 126.49,122.65 126.17,125.69 C125.861571,128.505443 125.754633,131.33932 125.85,134.17 C125.879295,136.415406 126.323424,138.63605 127.16,140.72 C127.753791,142.338055 129.317271,143.393807 131.04,143.34 C132.04,143.34 133.04,142.69 134.04,141.4 C135.18758,139.877257 136.154079,138.226154 136.92,136.48 C137.83,134.48 138.68,132.32 139.49,129.98 C140.2,127.9 140.82,125.92 141.37,123.98 C141.45,124.3 141.53,124.62 141.63,124.98 C142.195769,126.802067 143.230299,128.443521 144.63,129.74 C146.043746,131.022037 147.902817,131.700347 149.81,131.63 C151.419531,131.675025 152.994001,131.154919 154.26,130.16 C155.48649,129.184332 156.506335,127.974116 157.26,126.6 C158.566946,126.146979 159.739387,125.373375 160.67,124.35 C161.653415,123.310596 162.497186,122.14747 163.18,120.89 C163.24,120.79 163.28,120.69 163.34,120.58 C163.271716,122.86861 163.338499,125.159255 163.54,127.44 C163.708473,129.53911 164.114398,131.612351 164.75,133.62 C165.24863,135.270126 166.105729,136.789684 167.26,138.07 C168.359215,139.228944 169.903778,139.859155 171.5,139.8 C172.34,139.8 173.11,139.15 173.81,137.86 C174.582488,136.380652 175.228135,134.83846 175.74,133.25 C176.34,131.47 176.863333,129.62 177.31,127.7 C177.756667,125.78 178.16,124.156667 178.52,122.83 C178.382019,124.21753 178.486922,125.618492 178.83,126.97 C179.138157,128.305836 179.6689,129.580296 180.4,130.74 C181.018477,131.739403 181.860597,132.581523 182.86,133.2 C183.764435,133.759656 184.886416,133.838195 185.86,133.41 C187.211873,132.686064 188.295176,131.546668 188.95,130.16 C190.01557,128.311704 190.941483,126.38634 191.72,124.4 C192.27,123.04 192.72,121.76 193.15,120.5 C193.27,121.59 193.39,122.66 193.55,123.67 C193.92896,126.479664 194.781006,129.204862 196.07,131.73 C197.22,133.83 198.77,134.87 200.73,134.87 C201.777388,134.797604 202.754324,134.316319 203.45,133.53 C204.46417,132.496275 205.359721,131.352519 206.12,130.12 C207.028407,128.683839 207.849882,127.1945 208.58,125.66 C209.353333,124.046667 210.02,122.493333 210.58,121 C211.14,119.506667 211.63,118.196667 212.05,117.07 C212.327975,116.319446 212.555155,115.551045 212.73,114.77 C212.94,113.93 212.78,113.39 212.26,113.15 C211.74,112.91 211.4,112.99 211.26,113.41 C211.12,113.83 210.7,114.98 210.01,116.86 C209.32,118.74 208.47,120.75 207.49,122.86 C206.60475,124.837619 205.602992,126.760996 204.49,128.62 C203.49,130.33 202.49,131.19 201.66,131.19 C200.83,131.19 200.51,130.19 200.3,128.1 C200.073079,125.469838 200.002955,122.828498 200.09,120.19 C200.156667,116.983333 200.33,113.39 200.61,109.41 C200.89,105.43 201.203333,101.486667 201.55,97.58 C203.51,97.02 205.483333,96.4933333 207.47,96 C209.438706,95.5211464 211.447061,95.2232405 213.47,95.11 C215.482363,95.0084314 217.499379,95.1697927 219.47,95.59 C221.60221,96.0667898 223.633424,96.9165142 225.47,98.1 C225.75,98.24 225.85,97.94 225.78,97.21" id="Shape" fill="#3C3C3B" fill-rule="nonzero"></path>
        </g>
    </g>
</svg>