<svg width="150" height="97" viewBox="0 0 150 97" fill="none" xmlns="http://www.w3.org/2000/svg">
<g filter="url(#filter0_d)">
<rect x="6.59025" y="35.2419" width="131.757" height="53.112" transform="rotate(-14.6733 6.59025 35.2419)" stroke="#E30613" stroke-width="2.44489"/>
<path d="M40.1356 56.9048C39.5313 58.075 38.4841 59.1643 36.9942 60.1728C35.5043 61.1813 33.7808 61.9418 31.8237 62.4543C28.8144 63.2423 26.1691 62.9512 23.8876 61.5809C21.6062 60.2107 19.9726 57.9007 18.9867 54.6509L18.4502 52.6663C17.8578 50.4041 17.7411 48.3265 18.0999 46.4336C18.456 44.5302 19.2574 42.9318 20.504 41.6384C21.7585 40.3317 23.3642 39.4222 25.3213 38.9097C28.1833 38.1603 30.5757 38.2366 32.4984 39.1386C34.4288 40.0273 35.8659 41.7367 36.8095 44.2667L31.4748 45.6636C30.9492 44.4295 30.2992 43.6215 29.5246 43.2397C28.75 42.8579 27.784 42.8185 26.6266 43.1215C25.2377 43.4852 24.3187 44.3555 23.8697 45.7323C23.4207 47.1092 23.4775 48.8933 24.04 51.0846L24.4037 52.4735C25.0043 54.7673 25.8455 56.391 26.9272 57.3445C28.0167 58.2848 29.4032 58.5345 31.0867 58.0937C32.5282 57.7162 33.5174 57.1143 34.0543 56.2878L33.1203 52.7209L29.2693 53.7293L28.2733 49.9255L37.6642 47.4665L40.1356 56.9048ZM50.5136 48.5544L47.5148 49.3396L49.6391 57.4521L44.0992 58.9027L38.0819 35.9225L47.1256 33.5545C49.8508 32.8409 52.14 32.888 53.993 33.6958C55.8461 34.5035 57.0619 36.0122 57.6405 38.2219C58.0593 39.8212 58.0802 41.2324 57.7034 42.4554C57.3371 43.6757 56.5501 44.7925 55.3426 45.8058L62.5665 53.8141L62.6285 54.0508L56.6941 55.6047L50.5136 48.5544ZM46.3949 45.0624L49.8987 44.1449C50.9509 43.8694 51.6684 43.3892 52.0512 42.7043C52.4418 42.0061 52.5077 41.1625 52.2487 40.1734C51.9897 39.1843 51.5189 38.4812 50.8362 38.0641C50.1508 37.6364 49.2873 37.5589 48.2456 37.8317L44.7417 38.7492L46.3949 45.0624ZM77.1139 45.6705L69.5222 47.6584L69.3205 52.2985L63.4019 53.8483L65.8128 28.6613L71.0212 27.2975L85.5297 48.0542L79.5795 49.6122L77.1139 45.6705ZM69.728 43.034L74.6681 41.7405L70.1031 34.4189L69.728 43.034ZM98.4673 24.6812L91.5701 26.4873L96.4674 45.1902L90.9276 46.6408L86.0302 27.9379L79.2593 29.7108L78.1393 25.4336L97.3473 20.404L98.4673 24.6812ZM111.619 41.2227L106.095 42.6692L100.078 19.6891L105.602 18.2426L111.619 41.2227ZM125.724 31.0026C125.512 30.1924 125.057 29.6368 124.36 29.3359C123.673 29.0323 122.546 28.8272 120.978 28.7206C119.409 28.614 118.108 28.4544 117.074 28.2416C113.714 27.5588 111.698 25.9389 111.029 23.3821C110.696 22.1089 110.77 20.8919 111.254 19.731C111.744 18.5568 112.598 17.5237 113.815 16.6317C115.029 15.7291 116.483 15.056 118.177 14.6125C119.829 14.1799 121.385 14.0874 122.844 14.335C124.313 14.5798 125.554 15.1544 126.567 16.0585C127.577 16.9522 128.265 18.0988 128.631 19.4982L123.107 20.9447C122.862 20.0082 122.382 19.3579 121.669 18.9939C120.966 18.6271 120.125 18.5718 119.146 18.828C118.157 19.087 117.431 19.5132 116.968 20.1067C116.513 20.6869 116.373 21.3137 116.55 21.9871C116.704 22.5763 117.16 23.0303 117.918 23.349C118.674 23.6572 119.913 23.8611 121.637 23.9606C123.358 24.0496 124.806 24.2551 125.981 24.5771C128.839 25.3579 130.597 27.0057 131.256 29.5204C131.782 31.5301 131.437 33.3068 130.223 34.8505C129.008 36.3941 127.08 37.5117 124.439 38.2033C122.576 38.6909 120.801 38.8017 119.112 38.5355C117.431 38.2561 116.055 37.6383 114.984 36.682C113.92 35.7124 113.19 34.47 112.794 32.9548L118.349 31.5001C118.672 32.7312 119.226 33.5587 120.011 33.9826C120.804 34.3933 121.917 34.4112 123.348 34.0365C124.263 33.7968 124.933 33.4134 125.357 32.8864C125.789 32.346 125.911 31.7181 125.724 31.0026ZM30.4892 74.3914C30.4064 74.0752 30.229 73.8584 29.9569 73.741C29.6889 73.6225 29.249 73.5424 28.637 73.5008C28.025 73.4593 27.5172 73.3969 27.1137 73.3139C25.8023 73.0474 25.0159 72.4153 24.7546 71.4175C24.6245 70.9207 24.6537 70.4457 24.8422 69.9927C25.0338 69.5345 25.367 69.1313 25.8418 68.7832C26.3156 68.431 26.8831 68.1683 27.5441 67.9952C28.1888 67.8264 28.7958 67.7903 29.3652 67.8869C29.9387 67.9825 30.423 68.2067 30.8181 68.5595C31.2122 68.9083 31.4808 69.3557 31.6238 69.9018L29.468 70.4663C29.3723 70.1009 29.1852 69.8471 28.9067 69.705C28.6323 69.5619 28.3041 69.5403 27.9223 69.6403C27.5363 69.7414 27.2529 69.9077 27.0723 70.1393C26.8946 70.3657 26.8402 70.6103 26.909 70.8731C26.9692 71.1031 27.1472 71.2802 27.4431 71.4046C27.7378 71.5249 28.2216 71.6044 28.8943 71.6433C29.5659 71.678 30.131 71.7582 30.5895 71.8839C31.7048 72.1886 32.3909 72.8316 32.6479 73.813C32.8532 74.5972 32.7189 75.2906 32.2448 75.893C31.7707 76.4954 31.0183 76.9315 29.9877 77.2014C29.2609 77.3917 28.568 77.4349 27.9089 77.3311C27.253 77.222 26.7159 76.9809 26.2979 76.6077C25.8829 76.2293 25.598 75.7445 25.4432 75.1532L27.6113 74.5855C27.737 75.0659 27.9532 75.3889 28.2598 75.5543C28.5694 75.7146 29.0035 75.7216 29.5619 75.5753C29.9191 75.4818 30.1805 75.3322 30.346 75.1265C30.5146 74.9156 30.5623 74.6706 30.4892 74.3914ZM39.5128 66.7765L36.8212 67.4813L38.7323 74.78L36.5704 75.3461L34.6593 68.0474L32.017 68.7393L31.5799 67.0701L39.0757 65.1073L39.5128 66.7765ZM46.2576 71.0193L43.295 71.7951L43.2163 73.6059L40.9065 74.2107L41.8474 64.3816L43.8799 63.8494L49.5418 71.9495L47.2198 72.5576L46.2576 71.0193ZM43.3753 69.9905L45.3031 69.4857L43.5217 66.6284L43.3753 69.9905ZM52.704 67.7386L51.5338 68.045L52.3627 71.2109L50.2008 71.777L47.8526 62.8091L51.3819 61.885C52.4454 61.6065 53.3387 61.6249 54.0618 61.9401C54.785 62.2554 55.2595 62.8441 55.4852 63.7064C55.6487 64.3306 55.6569 64.8813 55.5098 65.3585C55.3668 65.8347 55.0597 66.2706 54.5885 66.666L57.4076 69.7912L57.4318 69.8836L55.1159 70.49L52.704 67.7386ZM51.0967 66.3759L52.4641 66.0178C52.8747 65.9103 53.1547 65.7229 53.3041 65.4557C53.4565 65.1832 53.4822 64.854 53.3811 64.468C53.28 64.082 53.0963 63.8076 52.8299 63.6448C52.5624 63.4779 52.2254 63.4477 51.8189 63.5542L50.4516 63.9122L51.0967 66.3759ZM63.2505 60.5608L60.5589 61.2656L62.4701 68.5643L60.3082 69.1304L58.397 61.8317L55.7547 62.5236L55.3176 60.8544L62.8134 58.8917L63.2505 60.5608ZM70.6461 62.3626L67.2462 63.2529L67.8058 65.3901L71.8216 64.3386L72.2571 66.0016L66.0794 67.6192L63.7312 58.6514L69.9212 57.0305L70.3583 58.6997L66.3301 59.7544L66.8252 61.6453L70.2251 60.7551L70.6461 62.3626ZM75.641 61.7326L74.4708 62.039L75.2998 65.2049L73.1379 65.771L70.7896 56.8031L74.3189 55.879C75.3824 55.6005 76.2757 55.6189 76.9989 55.9341C77.722 56.2494 78.1965 56.8381 78.4223 57.7004C78.5857 58.3245 78.5939 58.8753 78.4468 59.3525C78.3039 59.8287 77.9968 60.2646 77.5255 60.66L80.3446 63.7852L80.3688 63.8776L78.0529 64.484L75.641 61.7326ZM74.0337 60.3699L75.4011 60.0118C75.8117 59.9043 76.0917 59.7169 76.2411 59.4496C76.3935 59.1772 76.4192 58.848 76.3181 58.462C76.2171 58.076 76.0333 57.8016 75.7669 57.6388C75.4995 57.4719 75.1625 57.4417 74.756 57.5481L73.3886 57.9062L74.0337 60.3699ZM85.3681 60.0215C85.2853 59.7053 85.1078 59.4885 84.8358 59.3711C84.5678 59.2526 84.1278 59.1725 83.5158 59.1309C82.9038 59.0893 82.3961 59.027 81.9926 58.944C80.6811 58.6775 79.8947 58.0454 79.6335 57.0476C79.5034 56.5508 79.5326 56.0758 79.7211 55.6228C79.9126 55.1646 80.2458 54.7614 80.7207 54.4133C81.1945 54.0611 81.7619 53.7984 82.423 53.6253C83.0677 53.4565 83.6747 53.4204 84.2441 53.517C84.8175 53.6126 85.3019 53.8368 85.697 54.1896C86.0911 54.5384 86.3596 54.9858 86.5026 55.5319L84.3469 56.0964C84.2512 55.731 84.0641 55.4772 83.7856 55.3351C83.5111 55.192 83.183 55.1704 82.8011 55.2704C82.4151 55.3715 82.1318 55.5378 81.9511 55.7694C81.7735 55.9958 81.7191 56.2404 81.7879 56.5032C81.8481 56.7332 82.0261 56.9103 82.3219 57.0347C82.6167 57.155 83.1004 57.2345 83.7731 57.2734C84.4448 57.3081 85.0098 57.3883 85.4684 57.514C86.5836 57.8187 87.2698 58.4617 87.5267 59.4431C87.7321 60.2273 87.5977 60.9207 87.1236 61.5231C86.6495 62.1255 85.8972 62.5616 84.8665 62.8315C84.1397 63.0218 83.4468 63.065 82.7878 62.9611C82.1318 62.8521 81.5948 62.611 81.1768 62.2378C80.7618 61.8594 80.4769 61.3746 80.3221 60.7833L82.4901 60.2156C82.6159 60.696 82.8321 61.019 83.1387 61.1844C83.4483 61.3446 83.8823 61.3517 84.4407 61.2054C84.798 61.1119 85.0594 60.9623 85.2249 60.7566C85.3934 60.5457 85.4412 60.3007 85.3681 60.0215ZM90.6279 57.9399L91.4247 60.9826L89.2628 61.5487L86.9145 52.5808L90.4931 51.6438C91.1788 51.4643 91.8178 51.433 92.41 51.5499C93.0053 51.6617 93.508 51.914 93.918 52.3068C94.331 52.6945 94.6149 53.184 94.7698 53.7753C94.9988 54.6499 94.868 55.4322 94.3773 56.1223C93.8898 56.8072 93.0998 57.2927 92.0076 57.5787L90.6279 57.9399ZM90.1909 56.2708L91.6075 55.8999C92.0263 55.7902 92.3171 55.6021 92.4799 55.3357C92.6468 55.0683 92.6803 54.7436 92.5803 54.3617C92.4706 53.9429 92.2701 53.6378 91.9786 53.4465C91.6872 53.2551 91.3459 53.2085 90.9548 53.3065L89.5135 53.6839L90.1909 56.2708ZM101.038 56.6752L98.0753 57.451L97.9966 59.2618L95.6868 59.8666L96.6277 50.0375L98.6602 49.5053L104.322 57.6054L102 58.2135L101.038 56.6752ZM98.1556 55.6464L100.083 55.1416L98.302 52.2843L98.1556 55.6464ZM107.156 53.2962L106.524 54.5016L107.143 56.8668L104.981 57.4329L102.633 48.465L104.795 47.8989L105.83 51.8532L106.283 50.5169L107.48 47.1958L110.153 46.4958L108.162 51.2559L112.502 55.4637L109.939 56.1346L107.156 53.2962ZM115.224 51.1835L114.592 52.3889L115.212 54.754L113.05 55.3201L110.702 46.3523L112.863 45.7862L113.899 49.7404L114.352 48.4042L115.549 45.083L118.222 44.3831L116.23 49.1431L120.57 53.3509L118.008 54.0218L115.224 51.1835ZM125.685 47.9508L122.285 48.841L122.845 50.9783L126.861 49.9268L127.296 51.5898L121.118 53.2074L118.77 44.2395L124.96 42.6187L125.397 44.2878L121.369 45.3426L121.864 47.2335L125.264 46.3432L125.685 47.9508ZM133.429 42.1848L130.737 42.8895L132.648 50.1882L130.487 50.7543L128.575 43.4556L125.933 44.1475L125.496 42.4784L132.992 40.5156L133.429 42.1848Z" fill="#E30613"/>
</g>
<defs>
<filter id="filter0_d" x="0.208247" y="0.374451" width="148.788" height="95.8891" filterUnits="userSpaceOnUse" color-interpolation-filters="sRGB">
<feFlood flood-opacity="0" result="BackgroundImageFix"/>
<feColorMatrix in="SourceAlpha" type="matrix" values="0 0 0 0 0 0 0 0 0 0 0 0 0 0 0 0 0 0 127 0"/>
<feOffset dx="-3.25985" dy="6.5197"/>
<feGaussianBlur stdDeviation="0.814963"/>
<feColorMatrix type="matrix" values="0 0 0 0 0 0 0 0 0 0 0 0 0 0 0 0 0 0 0.15 0"/>
<feBlend mode="normal" in2="BackgroundImageFix" result="effect1_dropShadow"/>
<feBlend mode="normal" in="SourceGraphic" in2="effect1_dropShadow" result="shape"/>
</filter>
</defs>
</svg>
