<svg width="111" height="89" viewBox="0 0 111 89" fill="none" xmlns="http://www.w3.org/2000/svg">
<g filter="url(#filter0_d)">
<rect x="7.88763" y="22.2721" width="90.2075" height="55.9644" transform="rotate(-12.8587 7.88763 22.2721)" stroke="#E30613" stroke-width="3"/>
<path d="M20.2567 34.6615L19.5641 28.1124L26.856 26.4478L27.3684 28.6928L22.4243 29.8214L22.7068 32.3623C22.8851 32.1954 23.1295 32.0284 23.4399 31.8614C23.7561 31.6931 24.0741 31.5724 24.394 31.4994C25.6336 31.2164 26.6689 31.3677 27.4997 31.9534C28.335 32.532 28.9039 33.484 29.2064 34.8093C29.389 35.609 29.3746 36.3755 29.1634 37.1089C28.9566 37.8353 28.5702 38.4463 28.0042 38.9422C27.4383 39.438 26.7154 39.7863 25.8357 39.9871C25.0531 40.1657 24.2825 40.1734 23.524 40.0099C22.7642 39.8408 22.1262 39.5207 21.6099 39.0495C21.0924 38.5727 20.7556 37.9794 20.5997 37.2698L23.4959 36.6086C23.6287 37.0591 23.8572 37.3886 24.1813 37.5971C24.5053 37.8056 24.8816 37.861 25.31 37.7632C26.2811 37.5415 26.6024 36.7109 26.2738 35.2713C25.9699 33.9403 25.2239 33.4105 24.0358 33.6817C23.3617 33.8356 22.9085 34.1674 22.6763 34.6772L20.2567 34.6615ZM39.1395 31.4059C39.5242 33.0911 39.441 34.4774 38.8898 35.5648C38.3444 36.6509 37.3834 37.3511 36.0067 37.6653C34.6186 37.9822 33.4397 37.7675 32.47 37.0212C31.5003 36.275 30.8244 35.065 30.4423 33.3912L29.922 31.112C29.5374 29.4268 29.6177 28.0411 30.1631 26.955C30.7142 25.8676 31.681 25.1661 33.0634 24.8506C34.4458 24.535 35.6219 24.7503 36.5916 25.4966C37.5613 26.2429 38.2378 27.4557 38.6212 29.1352L39.1395 31.4059ZM35.6475 29.4173C35.4427 28.5205 35.1731 27.8789 34.8384 27.4925C34.5025 27.1004 34.0804 26.9623 33.572 27.0784C33.075 27.1919 32.7592 27.4803 32.6246 27.9438C32.4957 28.4059 32.5178 29.0559 32.6911 29.8939L33.4187 33.0814C33.6313 34.0125 33.9042 34.6684 34.2375 35.0491C34.5695 35.4241 34.9897 35.5535 35.4981 35.4375C35.9894 35.3253 36.3045 35.034 36.4436 34.5636C36.5813 34.0874 36.5506 33.4002 36.3516 32.5021L35.6475 29.4173ZM48.4747 21.5129L51.4737 20.8283L53.4277 29.3884C53.609 30.1824 53.585 30.9331 53.3559 31.6405C53.1324 32.3467 52.7285 32.9467 52.1441 33.4407C51.5654 33.9334 50.8704 34.2724 50.0593 34.4575C48.6997 34.7679 47.5647 34.6664 46.6542 34.153C45.7436 33.6396 45.1449 32.7546 44.8581 31.4979L47.8742 30.8093C48.0046 31.3806 48.1963 31.7726 48.4492 31.9853C48.7078 32.1967 49.0685 32.2496 49.5312 32.144C49.9482 32.0488 50.2329 31.8215 50.3852 31.4622C50.542 31.0959 50.5565 30.6328 50.4287 30.073L48.4747 21.5129ZM62.5896 28.9648L58.4681 29.9056L58.2803 32.4006L55.0671 33.1341L56.7948 19.6136L59.6225 18.9682L67.0803 30.3918L63.85 31.1292L62.5896 28.9648ZM58.6578 27.4192L61.3398 26.807L59.0067 22.7869L58.6578 27.4192ZM74.5514 26.2342L70.4299 27.1751L70.2422 29.67L67.0289 30.4035L68.7567 16.8831L71.5843 16.2376L79.0422 27.6612L75.8118 28.3986L74.5514 26.2342ZM70.6196 24.6886L73.3016 24.0764L70.9685 20.0563L70.6196 24.6886ZM83.5893 21.9895L81.9612 22.3611L82.9666 26.7654L79.959 27.4519L77.1111 14.976L82.0209 13.8552C83.5005 13.5175 84.7322 13.5819 85.7162 14.0484C86.7002 14.515 87.3291 15.3481 87.6029 16.5477C87.8011 17.416 87.7883 18.1762 87.5645 18.8282C87.3465 19.479 86.9037 20.0669 86.2362 20.5919L89.9893 25.0271L90.0186 25.1556L86.7968 25.8911L83.5893 21.9895ZM81.4312 20.039L83.3334 19.6048C83.9046 19.4744 84.2992 19.2281 84.517 18.8658C84.7392 18.4965 84.789 18.0434 84.6665 17.5065C84.5439 16.9695 84.3024 16.5829 83.9419 16.3466C83.5802 16.1047 83.1165 16.0482 82.551 16.1773L80.6488 16.6115L81.4312 20.039ZM34.8367 57.8419L35.4769 42.8307L40.7019 41.638L38.6008 62.536L33.4824 63.7043L22.5745 45.776L27.7594 44.5924L34.8367 57.8419ZM56.717 49.748L49.3594 51.4275L50.4152 56.0527L59.1057 54.0689L59.9272 57.6677L46.5582 60.7195L42.1281 41.3125L55.5238 38.2546L56.3483 41.8668L47.6312 43.8567L48.5652 47.9487L55.9229 46.2691L56.717 49.748ZM67.4803 48.7355L64.9478 49.3136L66.5117 56.1647L61.8332 57.2326L57.4032 37.8256L65.0407 36.0822C67.3422 35.5568 69.2582 35.657 70.7888 36.3827C72.3195 37.1085 73.2978 38.4044 73.7237 40.2704C74.032 41.6211 74.0122 42.8036 73.6641 43.818C73.3249 44.8303 72.6361 45.7448 71.5978 46.5615L77.4359 53.4606L77.4815 53.6606L72.4698 54.8046L67.4803 48.7355ZM64.1233 45.7014L67.0823 45.0259C67.9709 44.8231 68.5846 44.4399 68.9234 43.8764C69.2691 43.302 69.3466 42.5972 69.1559 41.7619C68.9653 40.9266 68.5896 40.3252 68.0289 39.9577C67.4662 39.5813 66.745 39.4935 65.8652 39.6943L62.9062 40.3698L64.1233 45.7014ZM88.4734 45.7243C88.3172 45.0401 87.9511 44.5627 87.3752 44.2922C86.8081 44.0196 85.8692 43.8179 84.5585 43.687C83.2478 43.5562 82.1623 43.3879 81.302 43.1823C78.5054 42.5212 76.8606 41.111 76.3676 38.9517C76.1222 37.8765 76.2172 36.8591 76.6526 35.8996C77.0949 34.9292 77.8374 34.0866 78.8803 33.3717C79.9211 32.648 81.1568 32.1228 82.5874 31.7963C83.9826 31.4778 85.2878 31.4416 86.5033 31.6877C87.7276 31.9318 88.7518 32.4459 89.5759 33.2301C90.398 34.0054 90.9439 34.9839 91.2137 36.1658L86.5486 37.2307C86.368 36.4398 85.9837 35.8825 85.3956 35.5586C84.8163 35.2328 84.1135 35.1641 83.2871 35.3528C82.4518 35.5435 81.8324 35.8812 81.4289 36.366C81.0322 36.8398 80.8988 37.3611 81.0286 37.9298C81.1422 38.4274 81.5122 38.8198 82.1387 39.1068C82.7631 39.385 83.7959 39.5886 85.2371 39.7177C86.6763 39.838 87.8836 40.0485 88.8591 40.3494C91.2321 41.0792 92.661 42.5059 93.1458 44.6297C93.5332 46.3269 93.1977 47.8059 92.1392 49.0665C91.0807 50.3272 89.4363 51.2121 87.2059 51.7212C85.6331 52.0803 84.143 52.1259 82.7356 51.8582C81.3351 51.5796 80.1989 51.0255 79.3271 50.1962C78.4622 49.3559 77.8836 48.2959 77.5915 47.0163L82.2834 45.9453C82.5207 46.985 82.9627 47.6928 83.6095 48.0687C84.2631 48.4337 85.1941 48.4782 86.4026 48.2024C87.1757 48.0259 87.7469 47.7226 88.1161 47.2924C88.4922 46.8512 88.6113 46.3286 88.4734 45.7243Z" fill="#E30613"/>
</g>
<defs>
<filter id="filter0_d" x="0.0914307" y="0.400452" width="109.992" height="88.2288" filterUnits="userSpaceOnUse" color-interpolation-filters="sRGB">
<feFlood flood-opacity="0" result="BackgroundImageFix"/>
<feColorMatrix in="SourceAlpha" type="matrix" values="0 0 0 0 0 0 0 0 0 0 0 0 0 0 0 0 0 0 127 0"/>
<feOffset dx="-4" dy="8"/>
<feGaussianBlur stdDeviation="1"/>
<feColorMatrix type="matrix" values="0 0 0 0 0 0 0 0 0 0 0 0 0 0 0 0 0 0 0.15 0"/>
<feBlend mode="normal" in2="BackgroundImageFix" result="effect1_dropShadow"/>
<feBlend mode="normal" in="SourceGraphic" in2="effect1_dropShadow" result="shape"/>
</filter>
</defs>
</svg>
