<svg width="40" height="40" viewBox="0 0 40 40" fill="none" xmlns="http://www.w3.org/2000/svg">
<path d="M15.8374 30.6749C24.0319 30.6749 30.6749 24.0319 30.6749 15.8374C30.6749 7.64295 24.0319 1 15.8374 1C7.64295 1 1 7.64295 1 15.8374C1 24.0319 7.64295 30.6749 15.8374 30.6749Z" stroke="#FE8B00" stroke-width="2" stroke-miterlimit="10" stroke-linecap="round" stroke-linejoin="round"/>
<path d="M38.2582 38.258C37.2691 39.2472 35.7853 39.2472 34.7962 38.258L29.0261 32.4879C28.0369 31.4987 28.0369 30.015 29.0261 29.0258C30.0152 28.0366 31.499 28.0366 32.4881 29.0258L38.2582 34.7959C39.2474 35.6202 39.2474 37.2688 38.2582 38.258Z" stroke="#FE8B00" stroke-width="2" stroke-miterlimit="10" stroke-linecap="round" stroke-linejoin="round"/>
<path d="M29.0257 29.026L25.7285 25.7288" stroke="#FE8B00" stroke-width="2" stroke-miterlimit="10"/>
</svg>
